%TF.GenerationSoftware,KiCad,Pcbnew,9.0.2*%
%TF.CreationDate,2025-06-30T23:17:22-04:00*%
%TF.ProjectId,Serv3Controller,53657276-3343-46f6-9e74-726f6c6c6572,rev?*%
%TF.SameCoordinates,Original*%
%TF.FileFunction,Legend,Bot*%
%TF.FilePolarity,Positive*%
%FSLAX46Y46*%
G04 Gerber Fmt 4.6, Leading zero omitted, Abs format (unit mm)*
G04 Created by KiCad (PCBNEW 9.0.2) date 2025-06-30 23:17:22*
%MOMM*%
%LPD*%
G01*
G04 APERTURE LIST*
%ADD10C,0.100000*%
%ADD11C,0.300000*%
%ADD12C,0.150000*%
%ADD13C,0.087500*%
G04 APERTURE END LIST*
D10*
X93296115Y-102572419D02*
X93296115Y-101572419D01*
X93296115Y-101572419D02*
X93058020Y-101572419D01*
X93058020Y-101572419D02*
X92915163Y-101620038D01*
X92915163Y-101620038D02*
X92819925Y-101715276D01*
X92819925Y-101715276D02*
X92772306Y-101810514D01*
X92772306Y-101810514D02*
X92724687Y-102000990D01*
X92724687Y-102000990D02*
X92724687Y-102143847D01*
X92724687Y-102143847D02*
X92772306Y-102334323D01*
X92772306Y-102334323D02*
X92819925Y-102429561D01*
X92819925Y-102429561D02*
X92915163Y-102524800D01*
X92915163Y-102524800D02*
X93058020Y-102572419D01*
X93058020Y-102572419D02*
X93296115Y-102572419D01*
X91915163Y-102524800D02*
X92010401Y-102572419D01*
X92010401Y-102572419D02*
X92200877Y-102572419D01*
X92200877Y-102572419D02*
X92296115Y-102524800D01*
X92296115Y-102524800D02*
X92343734Y-102429561D01*
X92343734Y-102429561D02*
X92343734Y-102048609D01*
X92343734Y-102048609D02*
X92296115Y-101953371D01*
X92296115Y-101953371D02*
X92200877Y-101905752D01*
X92200877Y-101905752D02*
X92010401Y-101905752D01*
X92010401Y-101905752D02*
X91915163Y-101953371D01*
X91915163Y-101953371D02*
X91867544Y-102048609D01*
X91867544Y-102048609D02*
X91867544Y-102143847D01*
X91867544Y-102143847D02*
X92343734Y-102239085D01*
X91486591Y-102524800D02*
X91391353Y-102572419D01*
X91391353Y-102572419D02*
X91200877Y-102572419D01*
X91200877Y-102572419D02*
X91105639Y-102524800D01*
X91105639Y-102524800D02*
X91058020Y-102429561D01*
X91058020Y-102429561D02*
X91058020Y-102381942D01*
X91058020Y-102381942D02*
X91105639Y-102286704D01*
X91105639Y-102286704D02*
X91200877Y-102239085D01*
X91200877Y-102239085D02*
X91343734Y-102239085D01*
X91343734Y-102239085D02*
X91438972Y-102191466D01*
X91438972Y-102191466D02*
X91486591Y-102096228D01*
X91486591Y-102096228D02*
X91486591Y-102048609D01*
X91486591Y-102048609D02*
X91438972Y-101953371D01*
X91438972Y-101953371D02*
X91343734Y-101905752D01*
X91343734Y-101905752D02*
X91200877Y-101905752D01*
X91200877Y-101905752D02*
X91105639Y-101953371D01*
X90629448Y-102572419D02*
X90629448Y-101905752D01*
X90629448Y-101572419D02*
X90677067Y-101620038D01*
X90677067Y-101620038D02*
X90629448Y-101667657D01*
X90629448Y-101667657D02*
X90581829Y-101620038D01*
X90581829Y-101620038D02*
X90629448Y-101572419D01*
X90629448Y-101572419D02*
X90629448Y-101667657D01*
X89724687Y-101905752D02*
X89724687Y-102715276D01*
X89724687Y-102715276D02*
X89772306Y-102810514D01*
X89772306Y-102810514D02*
X89819925Y-102858133D01*
X89819925Y-102858133D02*
X89915163Y-102905752D01*
X89915163Y-102905752D02*
X90058020Y-102905752D01*
X90058020Y-102905752D02*
X90153258Y-102858133D01*
X89724687Y-102524800D02*
X89819925Y-102572419D01*
X89819925Y-102572419D02*
X90010401Y-102572419D01*
X90010401Y-102572419D02*
X90105639Y-102524800D01*
X90105639Y-102524800D02*
X90153258Y-102477180D01*
X90153258Y-102477180D02*
X90200877Y-102381942D01*
X90200877Y-102381942D02*
X90200877Y-102096228D01*
X90200877Y-102096228D02*
X90153258Y-102000990D01*
X90153258Y-102000990D02*
X90105639Y-101953371D01*
X90105639Y-101953371D02*
X90010401Y-101905752D01*
X90010401Y-101905752D02*
X89819925Y-101905752D01*
X89819925Y-101905752D02*
X89724687Y-101953371D01*
X89248496Y-101905752D02*
X89248496Y-102572419D01*
X89248496Y-102000990D02*
X89200877Y-101953371D01*
X89200877Y-101953371D02*
X89105639Y-101905752D01*
X89105639Y-101905752D02*
X88962782Y-101905752D01*
X88962782Y-101905752D02*
X88867544Y-101953371D01*
X88867544Y-101953371D02*
X88819925Y-102048609D01*
X88819925Y-102048609D02*
X88819925Y-102572419D01*
X87962782Y-102524800D02*
X88058020Y-102572419D01*
X88058020Y-102572419D02*
X88248496Y-102572419D01*
X88248496Y-102572419D02*
X88343734Y-102524800D01*
X88343734Y-102524800D02*
X88391353Y-102429561D01*
X88391353Y-102429561D02*
X88391353Y-102048609D01*
X88391353Y-102048609D02*
X88343734Y-101953371D01*
X88343734Y-101953371D02*
X88248496Y-101905752D01*
X88248496Y-101905752D02*
X88058020Y-101905752D01*
X88058020Y-101905752D02*
X87962782Y-101953371D01*
X87962782Y-101953371D02*
X87915163Y-102048609D01*
X87915163Y-102048609D02*
X87915163Y-102143847D01*
X87915163Y-102143847D02*
X88391353Y-102239085D01*
X87058020Y-102572419D02*
X87058020Y-101572419D01*
X87058020Y-102524800D02*
X87153258Y-102572419D01*
X87153258Y-102572419D02*
X87343734Y-102572419D01*
X87343734Y-102572419D02*
X87438972Y-102524800D01*
X87438972Y-102524800D02*
X87486591Y-102477180D01*
X87486591Y-102477180D02*
X87534210Y-102381942D01*
X87534210Y-102381942D02*
X87534210Y-102096228D01*
X87534210Y-102096228D02*
X87486591Y-102000990D01*
X87486591Y-102000990D02*
X87438972Y-101953371D01*
X87438972Y-101953371D02*
X87343734Y-101905752D01*
X87343734Y-101905752D02*
X87153258Y-101905752D01*
X87153258Y-101905752D02*
X87058020Y-101953371D01*
X85819924Y-102572419D02*
X85819924Y-101572419D01*
X85819924Y-101953371D02*
X85724686Y-101905752D01*
X85724686Y-101905752D02*
X85534210Y-101905752D01*
X85534210Y-101905752D02*
X85438972Y-101953371D01*
X85438972Y-101953371D02*
X85391353Y-102000990D01*
X85391353Y-102000990D02*
X85343734Y-102096228D01*
X85343734Y-102096228D02*
X85343734Y-102381942D01*
X85343734Y-102381942D02*
X85391353Y-102477180D01*
X85391353Y-102477180D02*
X85438972Y-102524800D01*
X85438972Y-102524800D02*
X85534210Y-102572419D01*
X85534210Y-102572419D02*
X85724686Y-102572419D01*
X85724686Y-102572419D02*
X85819924Y-102524800D01*
X85010400Y-101905752D02*
X84772305Y-102572419D01*
X84534210Y-101905752D02*
X84772305Y-102572419D01*
X84772305Y-102572419D02*
X84867543Y-102810514D01*
X84867543Y-102810514D02*
X84915162Y-102858133D01*
X84915162Y-102858133D02*
X85010400Y-102905752D01*
X83105638Y-101572419D02*
X83105638Y-102286704D01*
X83105638Y-102286704D02*
X83153257Y-102429561D01*
X83153257Y-102429561D02*
X83248495Y-102524800D01*
X83248495Y-102524800D02*
X83391352Y-102572419D01*
X83391352Y-102572419D02*
X83486590Y-102572419D01*
X82486590Y-102572419D02*
X82581828Y-102524800D01*
X82581828Y-102524800D02*
X82629447Y-102477180D01*
X82629447Y-102477180D02*
X82677066Y-102381942D01*
X82677066Y-102381942D02*
X82677066Y-102096228D01*
X82677066Y-102096228D02*
X82629447Y-102000990D01*
X82629447Y-102000990D02*
X82581828Y-101953371D01*
X82581828Y-101953371D02*
X82486590Y-101905752D01*
X82486590Y-101905752D02*
X82343733Y-101905752D01*
X82343733Y-101905752D02*
X82248495Y-101953371D01*
X82248495Y-101953371D02*
X82200876Y-102000990D01*
X82200876Y-102000990D02*
X82153257Y-102096228D01*
X82153257Y-102096228D02*
X82153257Y-102381942D01*
X82153257Y-102381942D02*
X82200876Y-102477180D01*
X82200876Y-102477180D02*
X82248495Y-102524800D01*
X82248495Y-102524800D02*
X82343733Y-102572419D01*
X82343733Y-102572419D02*
X82486590Y-102572419D01*
X81772304Y-102524800D02*
X81677066Y-102572419D01*
X81677066Y-102572419D02*
X81486590Y-102572419D01*
X81486590Y-102572419D02*
X81391352Y-102524800D01*
X81391352Y-102524800D02*
X81343733Y-102429561D01*
X81343733Y-102429561D02*
X81343733Y-102381942D01*
X81343733Y-102381942D02*
X81391352Y-102286704D01*
X81391352Y-102286704D02*
X81486590Y-102239085D01*
X81486590Y-102239085D02*
X81629447Y-102239085D01*
X81629447Y-102239085D02*
X81724685Y-102191466D01*
X81724685Y-102191466D02*
X81772304Y-102096228D01*
X81772304Y-102096228D02*
X81772304Y-102048609D01*
X81772304Y-102048609D02*
X81724685Y-101953371D01*
X81724685Y-101953371D02*
X81629447Y-101905752D01*
X81629447Y-101905752D02*
X81486590Y-101905752D01*
X81486590Y-101905752D02*
X81391352Y-101953371D01*
X80915161Y-102572419D02*
X80915161Y-101572419D01*
X80486590Y-102572419D02*
X80486590Y-102048609D01*
X80486590Y-102048609D02*
X80534209Y-101953371D01*
X80534209Y-101953371D02*
X80629447Y-101905752D01*
X80629447Y-101905752D02*
X80772304Y-101905752D01*
X80772304Y-101905752D02*
X80867542Y-101953371D01*
X80867542Y-101953371D02*
X80915161Y-102000990D01*
X79248494Y-102572419D02*
X79248494Y-101572419D01*
X79248494Y-101572419D02*
X78867542Y-101572419D01*
X78867542Y-101572419D02*
X78772304Y-101620038D01*
X78772304Y-101620038D02*
X78724685Y-101667657D01*
X78724685Y-101667657D02*
X78677066Y-101762895D01*
X78677066Y-101762895D02*
X78677066Y-101905752D01*
X78677066Y-101905752D02*
X78724685Y-102000990D01*
X78724685Y-102000990D02*
X78772304Y-102048609D01*
X78772304Y-102048609D02*
X78867542Y-102096228D01*
X78867542Y-102096228D02*
X79248494Y-102096228D01*
X78248494Y-102572419D02*
X78248494Y-101905752D01*
X78248494Y-101572419D02*
X78296113Y-101620038D01*
X78296113Y-101620038D02*
X78248494Y-101667657D01*
X78248494Y-101667657D02*
X78200875Y-101620038D01*
X78200875Y-101620038D02*
X78248494Y-101572419D01*
X78248494Y-101572419D02*
X78248494Y-101667657D01*
X77391352Y-102524800D02*
X77486590Y-102572419D01*
X77486590Y-102572419D02*
X77677066Y-102572419D01*
X77677066Y-102572419D02*
X77772304Y-102524800D01*
X77772304Y-102524800D02*
X77819923Y-102429561D01*
X77819923Y-102429561D02*
X77819923Y-102048609D01*
X77819923Y-102048609D02*
X77772304Y-101953371D01*
X77772304Y-101953371D02*
X77677066Y-101905752D01*
X77677066Y-101905752D02*
X77486590Y-101905752D01*
X77486590Y-101905752D02*
X77391352Y-101953371D01*
X77391352Y-101953371D02*
X77343733Y-102048609D01*
X77343733Y-102048609D02*
X77343733Y-102143847D01*
X77343733Y-102143847D02*
X77819923Y-102239085D01*
X77058018Y-101905752D02*
X76677066Y-101905752D01*
X76915161Y-101572419D02*
X76915161Y-102429561D01*
X76915161Y-102429561D02*
X76867542Y-102524800D01*
X76867542Y-102524800D02*
X76772304Y-102572419D01*
X76772304Y-102572419D02*
X76677066Y-102572419D01*
X76438970Y-101905752D02*
X76200875Y-102572419D01*
X75962780Y-101905752D02*
X76200875Y-102572419D01*
X76200875Y-102572419D02*
X76296113Y-102810514D01*
X76296113Y-102810514D02*
X76343732Y-102858133D01*
X76343732Y-102858133D02*
X76438970Y-102905752D01*
X77972306Y-87220038D02*
X78067544Y-87172419D01*
X78067544Y-87172419D02*
X78210401Y-87172419D01*
X78210401Y-87172419D02*
X78353258Y-87220038D01*
X78353258Y-87220038D02*
X78448496Y-87315276D01*
X78448496Y-87315276D02*
X78496115Y-87410514D01*
X78496115Y-87410514D02*
X78543734Y-87600990D01*
X78543734Y-87600990D02*
X78543734Y-87743847D01*
X78543734Y-87743847D02*
X78496115Y-87934323D01*
X78496115Y-87934323D02*
X78448496Y-88029561D01*
X78448496Y-88029561D02*
X78353258Y-88124800D01*
X78353258Y-88124800D02*
X78210401Y-88172419D01*
X78210401Y-88172419D02*
X78115163Y-88172419D01*
X78115163Y-88172419D02*
X77972306Y-88124800D01*
X77972306Y-88124800D02*
X77924687Y-88077180D01*
X77924687Y-88077180D02*
X77924687Y-87743847D01*
X77924687Y-87743847D02*
X78115163Y-87743847D01*
X77496115Y-88172419D02*
X77496115Y-87172419D01*
X77496115Y-87172419D02*
X76924687Y-88172419D01*
X76924687Y-88172419D02*
X76924687Y-87172419D01*
X76448496Y-88172419D02*
X76448496Y-87172419D01*
X76448496Y-87172419D02*
X76210401Y-87172419D01*
X76210401Y-87172419D02*
X76067544Y-87220038D01*
X76067544Y-87220038D02*
X75972306Y-87315276D01*
X75972306Y-87315276D02*
X75924687Y-87410514D01*
X75924687Y-87410514D02*
X75877068Y-87600990D01*
X75877068Y-87600990D02*
X75877068Y-87743847D01*
X75877068Y-87743847D02*
X75924687Y-87934323D01*
X75924687Y-87934323D02*
X75972306Y-88029561D01*
X75972306Y-88029561D02*
X76067544Y-88124800D01*
X76067544Y-88124800D02*
X76210401Y-88172419D01*
X76210401Y-88172419D02*
X76448496Y-88172419D01*
D11*
X101145489Y-80900828D02*
X101145489Y-79400828D01*
X101145489Y-79400828D02*
X100574060Y-79400828D01*
X100574060Y-79400828D02*
X100431203Y-79472257D01*
X100431203Y-79472257D02*
X100359774Y-79543685D01*
X100359774Y-79543685D02*
X100288346Y-79686542D01*
X100288346Y-79686542D02*
X100288346Y-79900828D01*
X100288346Y-79900828D02*
X100359774Y-80043685D01*
X100359774Y-80043685D02*
X100431203Y-80115114D01*
X100431203Y-80115114D02*
X100574060Y-80186542D01*
X100574060Y-80186542D02*
X101145489Y-80186542D01*
X99002632Y-80900828D02*
X99002632Y-80115114D01*
X99002632Y-80115114D02*
X99074060Y-79972257D01*
X99074060Y-79972257D02*
X99216917Y-79900828D01*
X99216917Y-79900828D02*
X99502632Y-79900828D01*
X99502632Y-79900828D02*
X99645489Y-79972257D01*
X99002632Y-80829400D02*
X99145489Y-80900828D01*
X99145489Y-80900828D02*
X99502632Y-80900828D01*
X99502632Y-80900828D02*
X99645489Y-80829400D01*
X99645489Y-80829400D02*
X99716917Y-80686542D01*
X99716917Y-80686542D02*
X99716917Y-80543685D01*
X99716917Y-80543685D02*
X99645489Y-80400828D01*
X99645489Y-80400828D02*
X99502632Y-80329400D01*
X99502632Y-80329400D02*
X99145489Y-80329400D01*
X99145489Y-80329400D02*
X99002632Y-80257971D01*
X98288346Y-79900828D02*
X98288346Y-81400828D01*
X98288346Y-79972257D02*
X98145489Y-79900828D01*
X98145489Y-79900828D02*
X97859774Y-79900828D01*
X97859774Y-79900828D02*
X97716917Y-79972257D01*
X97716917Y-79972257D02*
X97645489Y-80043685D01*
X97645489Y-80043685D02*
X97574060Y-80186542D01*
X97574060Y-80186542D02*
X97574060Y-80615114D01*
X97574060Y-80615114D02*
X97645489Y-80757971D01*
X97645489Y-80757971D02*
X97716917Y-80829400D01*
X97716917Y-80829400D02*
X97859774Y-80900828D01*
X97859774Y-80900828D02*
X98145489Y-80900828D01*
X98145489Y-80900828D02*
X98288346Y-80829400D01*
X97074060Y-79900828D02*
X96716917Y-80900828D01*
X96359774Y-79900828D02*
X96716917Y-80900828D01*
X96716917Y-80900828D02*
X96859774Y-81257971D01*
X96859774Y-81257971D02*
X96931203Y-81329400D01*
X96931203Y-81329400D02*
X97074060Y-81400828D01*
X95788346Y-80900828D02*
X95788346Y-79900828D01*
X95788346Y-80186542D02*
X95716917Y-80043685D01*
X95716917Y-80043685D02*
X95645489Y-79972257D01*
X95645489Y-79972257D02*
X95502631Y-79900828D01*
X95502631Y-79900828D02*
X95359774Y-79900828D01*
X94216918Y-79900828D02*
X94216918Y-80900828D01*
X94859775Y-79900828D02*
X94859775Y-80686542D01*
X94859775Y-80686542D02*
X94788346Y-80829400D01*
X94788346Y-80829400D02*
X94645489Y-80900828D01*
X94645489Y-80900828D02*
X94431203Y-80900828D01*
X94431203Y-80900828D02*
X94288346Y-80829400D01*
X94288346Y-80829400D02*
X94216918Y-80757971D01*
X93574060Y-80829400D02*
X93431203Y-80900828D01*
X93431203Y-80900828D02*
X93145489Y-80900828D01*
X93145489Y-80900828D02*
X93002632Y-80829400D01*
X93002632Y-80829400D02*
X92931203Y-80686542D01*
X92931203Y-80686542D02*
X92931203Y-80615114D01*
X92931203Y-80615114D02*
X93002632Y-80472257D01*
X93002632Y-80472257D02*
X93145489Y-80400828D01*
X93145489Y-80400828D02*
X93359775Y-80400828D01*
X93359775Y-80400828D02*
X93502632Y-80329400D01*
X93502632Y-80329400D02*
X93574060Y-80186542D01*
X93574060Y-80186542D02*
X93574060Y-80115114D01*
X93574060Y-80115114D02*
X93502632Y-79972257D01*
X93502632Y-79972257D02*
X93359775Y-79900828D01*
X93359775Y-79900828D02*
X93145489Y-79900828D01*
X93145489Y-79900828D02*
X93002632Y-79972257D01*
X91216917Y-80829400D02*
X91002632Y-80900828D01*
X91002632Y-80900828D02*
X90645489Y-80900828D01*
X90645489Y-80900828D02*
X90502632Y-80829400D01*
X90502632Y-80829400D02*
X90431203Y-80757971D01*
X90431203Y-80757971D02*
X90359774Y-80615114D01*
X90359774Y-80615114D02*
X90359774Y-80472257D01*
X90359774Y-80472257D02*
X90431203Y-80329400D01*
X90431203Y-80329400D02*
X90502632Y-80257971D01*
X90502632Y-80257971D02*
X90645489Y-80186542D01*
X90645489Y-80186542D02*
X90931203Y-80115114D01*
X90931203Y-80115114D02*
X91074060Y-80043685D01*
X91074060Y-80043685D02*
X91145489Y-79972257D01*
X91145489Y-79972257D02*
X91216917Y-79829400D01*
X91216917Y-79829400D02*
X91216917Y-79686542D01*
X91216917Y-79686542D02*
X91145489Y-79543685D01*
X91145489Y-79543685D02*
X91074060Y-79472257D01*
X91074060Y-79472257D02*
X90931203Y-79400828D01*
X90931203Y-79400828D02*
X90574060Y-79400828D01*
X90574060Y-79400828D02*
X90359774Y-79472257D01*
X89859775Y-79900828D02*
X89502632Y-80900828D01*
X89145489Y-79900828D02*
X89502632Y-80900828D01*
X89502632Y-80900828D02*
X89645489Y-81257971D01*
X89645489Y-81257971D02*
X89716918Y-81329400D01*
X89716918Y-81329400D02*
X89859775Y-81400828D01*
X88645489Y-80829400D02*
X88502632Y-80900828D01*
X88502632Y-80900828D02*
X88216918Y-80900828D01*
X88216918Y-80900828D02*
X88074061Y-80829400D01*
X88074061Y-80829400D02*
X88002632Y-80686542D01*
X88002632Y-80686542D02*
X88002632Y-80615114D01*
X88002632Y-80615114D02*
X88074061Y-80472257D01*
X88074061Y-80472257D02*
X88216918Y-80400828D01*
X88216918Y-80400828D02*
X88431204Y-80400828D01*
X88431204Y-80400828D02*
X88574061Y-80329400D01*
X88574061Y-80329400D02*
X88645489Y-80186542D01*
X88645489Y-80186542D02*
X88645489Y-80115114D01*
X88645489Y-80115114D02*
X88574061Y-79972257D01*
X88574061Y-79972257D02*
X88431204Y-79900828D01*
X88431204Y-79900828D02*
X88216918Y-79900828D01*
X88216918Y-79900828D02*
X88074061Y-79972257D01*
X87574060Y-79900828D02*
X87002632Y-79900828D01*
X87359775Y-79400828D02*
X87359775Y-80686542D01*
X87359775Y-80686542D02*
X87288346Y-80829400D01*
X87288346Y-80829400D02*
X87145489Y-80900828D01*
X87145489Y-80900828D02*
X87002632Y-80900828D01*
X85931203Y-80829400D02*
X86074060Y-80900828D01*
X86074060Y-80900828D02*
X86359775Y-80900828D01*
X86359775Y-80900828D02*
X86502632Y-80829400D01*
X86502632Y-80829400D02*
X86574060Y-80686542D01*
X86574060Y-80686542D02*
X86574060Y-80115114D01*
X86574060Y-80115114D02*
X86502632Y-79972257D01*
X86502632Y-79972257D02*
X86359775Y-79900828D01*
X86359775Y-79900828D02*
X86074060Y-79900828D01*
X86074060Y-79900828D02*
X85931203Y-79972257D01*
X85931203Y-79972257D02*
X85859775Y-80115114D01*
X85859775Y-80115114D02*
X85859775Y-80257971D01*
X85859775Y-80257971D02*
X86574060Y-80400828D01*
X85216918Y-80900828D02*
X85216918Y-79900828D01*
X85216918Y-80043685D02*
X85145489Y-79972257D01*
X85145489Y-79972257D02*
X85002632Y-79900828D01*
X85002632Y-79900828D02*
X84788346Y-79900828D01*
X84788346Y-79900828D02*
X84645489Y-79972257D01*
X84645489Y-79972257D02*
X84574061Y-80115114D01*
X84574061Y-80115114D02*
X84574061Y-80900828D01*
X84574061Y-80115114D02*
X84502632Y-79972257D01*
X84502632Y-79972257D02*
X84359775Y-79900828D01*
X84359775Y-79900828D02*
X84145489Y-79900828D01*
X84145489Y-79900828D02*
X84002632Y-79972257D01*
X84002632Y-79972257D02*
X83931203Y-80115114D01*
X83931203Y-80115114D02*
X83931203Y-80900828D01*
D10*
X112024687Y-93077180D02*
X112072306Y-93124800D01*
X112072306Y-93124800D02*
X112215163Y-93172419D01*
X112215163Y-93172419D02*
X112310401Y-93172419D01*
X112310401Y-93172419D02*
X112453258Y-93124800D01*
X112453258Y-93124800D02*
X112548496Y-93029561D01*
X112548496Y-93029561D02*
X112596115Y-92934323D01*
X112596115Y-92934323D02*
X112643734Y-92743847D01*
X112643734Y-92743847D02*
X112643734Y-92600990D01*
X112643734Y-92600990D02*
X112596115Y-92410514D01*
X112596115Y-92410514D02*
X112548496Y-92315276D01*
X112548496Y-92315276D02*
X112453258Y-92220038D01*
X112453258Y-92220038D02*
X112310401Y-92172419D01*
X112310401Y-92172419D02*
X112215163Y-92172419D01*
X112215163Y-92172419D02*
X112072306Y-92220038D01*
X112072306Y-92220038D02*
X112024687Y-92267657D01*
X111643734Y-92886704D02*
X111167544Y-92886704D01*
X111738972Y-93172419D02*
X111405639Y-92172419D01*
X111405639Y-92172419D02*
X111072306Y-93172419D01*
X110738972Y-93172419D02*
X110738972Y-92172419D01*
X110738972Y-92172419D02*
X110167544Y-93172419D01*
X110167544Y-93172419D02*
X110167544Y-92172419D01*
X109691353Y-92791466D02*
X108929449Y-92791466D01*
X109310401Y-93172419D02*
X109310401Y-92410514D01*
X112796115Y-95291466D02*
X112034211Y-95291466D01*
X112415163Y-95672419D02*
X112415163Y-94910514D01*
X111653258Y-94672419D02*
X111034211Y-94672419D01*
X111034211Y-94672419D02*
X111367544Y-95053371D01*
X111367544Y-95053371D02*
X111224687Y-95053371D01*
X111224687Y-95053371D02*
X111129449Y-95100990D01*
X111129449Y-95100990D02*
X111081830Y-95148609D01*
X111081830Y-95148609D02*
X111034211Y-95243847D01*
X111034211Y-95243847D02*
X111034211Y-95481942D01*
X111034211Y-95481942D02*
X111081830Y-95577180D01*
X111081830Y-95577180D02*
X111129449Y-95624800D01*
X111129449Y-95624800D02*
X111224687Y-95672419D01*
X111224687Y-95672419D02*
X111510401Y-95672419D01*
X111510401Y-95672419D02*
X111605639Y-95624800D01*
X111605639Y-95624800D02*
X111653258Y-95577180D01*
X110748496Y-94672419D02*
X110415163Y-95672419D01*
X110415163Y-95672419D02*
X110081830Y-94672419D01*
X109843734Y-94672419D02*
X109224687Y-94672419D01*
X109224687Y-94672419D02*
X109558020Y-95053371D01*
X109558020Y-95053371D02*
X109415163Y-95053371D01*
X109415163Y-95053371D02*
X109319925Y-95100990D01*
X109319925Y-95100990D02*
X109272306Y-95148609D01*
X109272306Y-95148609D02*
X109224687Y-95243847D01*
X109224687Y-95243847D02*
X109224687Y-95481942D01*
X109224687Y-95481942D02*
X109272306Y-95577180D01*
X109272306Y-95577180D02*
X109319925Y-95624800D01*
X109319925Y-95624800D02*
X109415163Y-95672419D01*
X109415163Y-95672419D02*
X109700877Y-95672419D01*
X109700877Y-95672419D02*
X109796115Y-95624800D01*
X109796115Y-95624800D02*
X109843734Y-95577180D01*
X100843734Y-75124800D02*
X100700877Y-75172419D01*
X100700877Y-75172419D02*
X100462782Y-75172419D01*
X100462782Y-75172419D02*
X100367544Y-75124800D01*
X100367544Y-75124800D02*
X100319925Y-75077180D01*
X100319925Y-75077180D02*
X100272306Y-74981942D01*
X100272306Y-74981942D02*
X100272306Y-74886704D01*
X100272306Y-74886704D02*
X100319925Y-74791466D01*
X100319925Y-74791466D02*
X100367544Y-74743847D01*
X100367544Y-74743847D02*
X100462782Y-74696228D01*
X100462782Y-74696228D02*
X100653258Y-74648609D01*
X100653258Y-74648609D02*
X100748496Y-74600990D01*
X100748496Y-74600990D02*
X100796115Y-74553371D01*
X100796115Y-74553371D02*
X100843734Y-74458133D01*
X100843734Y-74458133D02*
X100843734Y-74362895D01*
X100843734Y-74362895D02*
X100796115Y-74267657D01*
X100796115Y-74267657D02*
X100748496Y-74220038D01*
X100748496Y-74220038D02*
X100653258Y-74172419D01*
X100653258Y-74172419D02*
X100415163Y-74172419D01*
X100415163Y-74172419D02*
X100272306Y-74220038D01*
X96972306Y-99720038D02*
X97067544Y-99672419D01*
X97067544Y-99672419D02*
X97210401Y-99672419D01*
X97210401Y-99672419D02*
X97353258Y-99720038D01*
X97353258Y-99720038D02*
X97448496Y-99815276D01*
X97448496Y-99815276D02*
X97496115Y-99910514D01*
X97496115Y-99910514D02*
X97543734Y-100100990D01*
X97543734Y-100100990D02*
X97543734Y-100243847D01*
X97543734Y-100243847D02*
X97496115Y-100434323D01*
X97496115Y-100434323D02*
X97448496Y-100529561D01*
X97448496Y-100529561D02*
X97353258Y-100624800D01*
X97353258Y-100624800D02*
X97210401Y-100672419D01*
X97210401Y-100672419D02*
X97115163Y-100672419D01*
X97115163Y-100672419D02*
X96972306Y-100624800D01*
X96972306Y-100624800D02*
X96924687Y-100577180D01*
X96924687Y-100577180D02*
X96924687Y-100243847D01*
X96924687Y-100243847D02*
X97115163Y-100243847D01*
D12*
X104972744Y-78588200D02*
X104801316Y-78645342D01*
X104801316Y-78645342D02*
X104515601Y-78645342D01*
X104515601Y-78645342D02*
X104401316Y-78588200D01*
X104401316Y-78588200D02*
X104344173Y-78531057D01*
X104344173Y-78531057D02*
X104287030Y-78416771D01*
X104287030Y-78416771D02*
X104287030Y-78302485D01*
X104287030Y-78302485D02*
X104344173Y-78188200D01*
X104344173Y-78188200D02*
X104401316Y-78131057D01*
X104401316Y-78131057D02*
X104515601Y-78073914D01*
X104515601Y-78073914D02*
X104744173Y-78016771D01*
X104744173Y-78016771D02*
X104858458Y-77959628D01*
X104858458Y-77959628D02*
X104915601Y-77902485D01*
X104915601Y-77902485D02*
X104972744Y-77788200D01*
X104972744Y-77788200D02*
X104972744Y-77673914D01*
X104972744Y-77673914D02*
X104915601Y-77559628D01*
X104915601Y-77559628D02*
X104858458Y-77502485D01*
X104858458Y-77502485D02*
X104744173Y-77445342D01*
X104744173Y-77445342D02*
X104458458Y-77445342D01*
X104458458Y-77445342D02*
X104287030Y-77502485D01*
X103087030Y-78645342D02*
X103487030Y-78073914D01*
X103772744Y-78645342D02*
X103772744Y-77445342D01*
X103772744Y-77445342D02*
X103315601Y-77445342D01*
X103315601Y-77445342D02*
X103201316Y-77502485D01*
X103201316Y-77502485D02*
X103144173Y-77559628D01*
X103144173Y-77559628D02*
X103087030Y-77673914D01*
X103087030Y-77673914D02*
X103087030Y-77845342D01*
X103087030Y-77845342D02*
X103144173Y-77959628D01*
X103144173Y-77959628D02*
X103201316Y-78016771D01*
X103201316Y-78016771D02*
X103315601Y-78073914D01*
X103315601Y-78073914D02*
X103772744Y-78073914D01*
X102744173Y-77445342D02*
X102344173Y-78645342D01*
X102344173Y-78645342D02*
X101944173Y-77445342D01*
X101658459Y-77445342D02*
X100915602Y-77445342D01*
X100915602Y-77445342D02*
X101315602Y-77902485D01*
X101315602Y-77902485D02*
X101144173Y-77902485D01*
X101144173Y-77902485D02*
X101029888Y-77959628D01*
X101029888Y-77959628D02*
X100972745Y-78016771D01*
X100972745Y-78016771D02*
X100915602Y-78131057D01*
X100915602Y-78131057D02*
X100915602Y-78416771D01*
X100915602Y-78416771D02*
X100972745Y-78531057D01*
X100972745Y-78531057D02*
X101029888Y-78588200D01*
X101029888Y-78588200D02*
X101144173Y-78645342D01*
X101144173Y-78645342D02*
X101487030Y-78645342D01*
X101487030Y-78645342D02*
X101601316Y-78588200D01*
X101601316Y-78588200D02*
X101658459Y-78531057D01*
D10*
X84572306Y-74220038D02*
X84667544Y-74172419D01*
X84667544Y-74172419D02*
X84810401Y-74172419D01*
X84810401Y-74172419D02*
X84953258Y-74220038D01*
X84953258Y-74220038D02*
X85048496Y-74315276D01*
X85048496Y-74315276D02*
X85096115Y-74410514D01*
X85096115Y-74410514D02*
X85143734Y-74600990D01*
X85143734Y-74600990D02*
X85143734Y-74743847D01*
X85143734Y-74743847D02*
X85096115Y-74934323D01*
X85096115Y-74934323D02*
X85048496Y-75029561D01*
X85048496Y-75029561D02*
X84953258Y-75124800D01*
X84953258Y-75124800D02*
X84810401Y-75172419D01*
X84810401Y-75172419D02*
X84715163Y-75172419D01*
X84715163Y-75172419D02*
X84572306Y-75124800D01*
X84572306Y-75124800D02*
X84524687Y-75077180D01*
X84524687Y-75077180D02*
X84524687Y-74743847D01*
X84524687Y-74743847D02*
X84715163Y-74743847D01*
D12*
X84072744Y-78688200D02*
X83901316Y-78745342D01*
X83901316Y-78745342D02*
X83615601Y-78745342D01*
X83615601Y-78745342D02*
X83501316Y-78688200D01*
X83501316Y-78688200D02*
X83444173Y-78631057D01*
X83444173Y-78631057D02*
X83387030Y-78516771D01*
X83387030Y-78516771D02*
X83387030Y-78402485D01*
X83387030Y-78402485D02*
X83444173Y-78288200D01*
X83444173Y-78288200D02*
X83501316Y-78231057D01*
X83501316Y-78231057D02*
X83615601Y-78173914D01*
X83615601Y-78173914D02*
X83844173Y-78116771D01*
X83844173Y-78116771D02*
X83958458Y-78059628D01*
X83958458Y-78059628D02*
X84015601Y-78002485D01*
X84015601Y-78002485D02*
X84072744Y-77888200D01*
X84072744Y-77888200D02*
X84072744Y-77773914D01*
X84072744Y-77773914D02*
X84015601Y-77659628D01*
X84015601Y-77659628D02*
X83958458Y-77602485D01*
X83958458Y-77602485D02*
X83844173Y-77545342D01*
X83844173Y-77545342D02*
X83558458Y-77545342D01*
X83558458Y-77545342D02*
X83387030Y-77602485D01*
X82187030Y-78745342D02*
X82587030Y-78173914D01*
X82872744Y-78745342D02*
X82872744Y-77545342D01*
X82872744Y-77545342D02*
X82415601Y-77545342D01*
X82415601Y-77545342D02*
X82301316Y-77602485D01*
X82301316Y-77602485D02*
X82244173Y-77659628D01*
X82244173Y-77659628D02*
X82187030Y-77773914D01*
X82187030Y-77773914D02*
X82187030Y-77945342D01*
X82187030Y-77945342D02*
X82244173Y-78059628D01*
X82244173Y-78059628D02*
X82301316Y-78116771D01*
X82301316Y-78116771D02*
X82415601Y-78173914D01*
X82415601Y-78173914D02*
X82872744Y-78173914D01*
X81844173Y-77545342D02*
X81444173Y-78745342D01*
X81444173Y-78745342D02*
X81044173Y-77545342D01*
X80015602Y-78745342D02*
X80701316Y-78745342D01*
X80358459Y-78745342D02*
X80358459Y-77545342D01*
X80358459Y-77545342D02*
X80472745Y-77716771D01*
X80472745Y-77716771D02*
X80587030Y-77831057D01*
X80587030Y-77831057D02*
X80701316Y-77888200D01*
D10*
X105372306Y-74220038D02*
X105467544Y-74172419D01*
X105467544Y-74172419D02*
X105610401Y-74172419D01*
X105610401Y-74172419D02*
X105753258Y-74220038D01*
X105753258Y-74220038D02*
X105848496Y-74315276D01*
X105848496Y-74315276D02*
X105896115Y-74410514D01*
X105896115Y-74410514D02*
X105943734Y-74600990D01*
X105943734Y-74600990D02*
X105943734Y-74743847D01*
X105943734Y-74743847D02*
X105896115Y-74934323D01*
X105896115Y-74934323D02*
X105848496Y-75029561D01*
X105848496Y-75029561D02*
X105753258Y-75124800D01*
X105753258Y-75124800D02*
X105610401Y-75172419D01*
X105610401Y-75172419D02*
X105515163Y-75172419D01*
X105515163Y-75172419D02*
X105372306Y-75124800D01*
X105372306Y-75124800D02*
X105324687Y-75077180D01*
X105324687Y-75077180D02*
X105324687Y-74743847D01*
X105324687Y-74743847D02*
X105515163Y-74743847D01*
X78124687Y-93077180D02*
X78172306Y-93124800D01*
X78172306Y-93124800D02*
X78315163Y-93172419D01*
X78315163Y-93172419D02*
X78410401Y-93172419D01*
X78410401Y-93172419D02*
X78553258Y-93124800D01*
X78553258Y-93124800D02*
X78648496Y-93029561D01*
X78648496Y-93029561D02*
X78696115Y-92934323D01*
X78696115Y-92934323D02*
X78743734Y-92743847D01*
X78743734Y-92743847D02*
X78743734Y-92600990D01*
X78743734Y-92600990D02*
X78696115Y-92410514D01*
X78696115Y-92410514D02*
X78648496Y-92315276D01*
X78648496Y-92315276D02*
X78553258Y-92220038D01*
X78553258Y-92220038D02*
X78410401Y-92172419D01*
X78410401Y-92172419D02*
X78315163Y-92172419D01*
X78315163Y-92172419D02*
X78172306Y-92220038D01*
X78172306Y-92220038D02*
X78124687Y-92267657D01*
X77743734Y-92886704D02*
X77267544Y-92886704D01*
X77838972Y-93172419D02*
X77505639Y-92172419D01*
X77505639Y-92172419D02*
X77172306Y-93172419D01*
X76838972Y-93172419D02*
X76838972Y-92172419D01*
X76838972Y-92172419D02*
X76267544Y-93172419D01*
X76267544Y-93172419D02*
X76267544Y-92172419D01*
X75791353Y-92791466D02*
X75029449Y-92791466D01*
X75410401Y-93172419D02*
X75410401Y-92410514D01*
X93638972Y-99572419D02*
X93305639Y-100572419D01*
X93305639Y-100572419D02*
X92972306Y-99572419D01*
X92638972Y-100191466D02*
X91877068Y-100191466D01*
X92258020Y-100572419D02*
X92258020Y-99810514D01*
X80043734Y-75124800D02*
X79900877Y-75172419D01*
X79900877Y-75172419D02*
X79662782Y-75172419D01*
X79662782Y-75172419D02*
X79567544Y-75124800D01*
X79567544Y-75124800D02*
X79519925Y-75077180D01*
X79519925Y-75077180D02*
X79472306Y-74981942D01*
X79472306Y-74981942D02*
X79472306Y-74886704D01*
X79472306Y-74886704D02*
X79519925Y-74791466D01*
X79519925Y-74791466D02*
X79567544Y-74743847D01*
X79567544Y-74743847D02*
X79662782Y-74696228D01*
X79662782Y-74696228D02*
X79853258Y-74648609D01*
X79853258Y-74648609D02*
X79948496Y-74600990D01*
X79948496Y-74600990D02*
X79996115Y-74553371D01*
X79996115Y-74553371D02*
X80043734Y-74458133D01*
X80043734Y-74458133D02*
X80043734Y-74362895D01*
X80043734Y-74362895D02*
X79996115Y-74267657D01*
X79996115Y-74267657D02*
X79948496Y-74220038D01*
X79948496Y-74220038D02*
X79853258Y-74172419D01*
X79853258Y-74172419D02*
X79615163Y-74172419D01*
X79615163Y-74172419D02*
X79472306Y-74220038D01*
X111872306Y-87220038D02*
X111967544Y-87172419D01*
X111967544Y-87172419D02*
X112110401Y-87172419D01*
X112110401Y-87172419D02*
X112253258Y-87220038D01*
X112253258Y-87220038D02*
X112348496Y-87315276D01*
X112348496Y-87315276D02*
X112396115Y-87410514D01*
X112396115Y-87410514D02*
X112443734Y-87600990D01*
X112443734Y-87600990D02*
X112443734Y-87743847D01*
X112443734Y-87743847D02*
X112396115Y-87934323D01*
X112396115Y-87934323D02*
X112348496Y-88029561D01*
X112348496Y-88029561D02*
X112253258Y-88124800D01*
X112253258Y-88124800D02*
X112110401Y-88172419D01*
X112110401Y-88172419D02*
X112015163Y-88172419D01*
X112015163Y-88172419D02*
X111872306Y-88124800D01*
X111872306Y-88124800D02*
X111824687Y-88077180D01*
X111824687Y-88077180D02*
X111824687Y-87743847D01*
X111824687Y-87743847D02*
X112015163Y-87743847D01*
X111396115Y-88172419D02*
X111396115Y-87172419D01*
X111396115Y-87172419D02*
X110824687Y-88172419D01*
X110824687Y-88172419D02*
X110824687Y-87172419D01*
X110348496Y-88172419D02*
X110348496Y-87172419D01*
X110348496Y-87172419D02*
X110110401Y-87172419D01*
X110110401Y-87172419D02*
X109967544Y-87220038D01*
X109967544Y-87220038D02*
X109872306Y-87315276D01*
X109872306Y-87315276D02*
X109824687Y-87410514D01*
X109824687Y-87410514D02*
X109777068Y-87600990D01*
X109777068Y-87600990D02*
X109777068Y-87743847D01*
X109777068Y-87743847D02*
X109824687Y-87934323D01*
X109824687Y-87934323D02*
X109872306Y-88029561D01*
X109872306Y-88029561D02*
X109967544Y-88124800D01*
X109967544Y-88124800D02*
X110110401Y-88172419D01*
X110110401Y-88172419D02*
X110348496Y-88172419D01*
X103738972Y-74172419D02*
X103405639Y-75172419D01*
X103405639Y-75172419D02*
X103072306Y-74172419D01*
X102738972Y-74791466D02*
X101977068Y-74791466D01*
X102358020Y-75172419D02*
X102358020Y-74410514D01*
X78024687Y-90577180D02*
X78072306Y-90624800D01*
X78072306Y-90624800D02*
X78215163Y-90672419D01*
X78215163Y-90672419D02*
X78310401Y-90672419D01*
X78310401Y-90672419D02*
X78453258Y-90624800D01*
X78453258Y-90624800D02*
X78548496Y-90529561D01*
X78548496Y-90529561D02*
X78596115Y-90434323D01*
X78596115Y-90434323D02*
X78643734Y-90243847D01*
X78643734Y-90243847D02*
X78643734Y-90100990D01*
X78643734Y-90100990D02*
X78596115Y-89910514D01*
X78596115Y-89910514D02*
X78548496Y-89815276D01*
X78548496Y-89815276D02*
X78453258Y-89720038D01*
X78453258Y-89720038D02*
X78310401Y-89672419D01*
X78310401Y-89672419D02*
X78215163Y-89672419D01*
X78215163Y-89672419D02*
X78072306Y-89720038D01*
X78072306Y-89720038D02*
X78024687Y-89767657D01*
X77643734Y-90386704D02*
X77167544Y-90386704D01*
X77738972Y-90672419D02*
X77405639Y-89672419D01*
X77405639Y-89672419D02*
X77072306Y-90672419D01*
X76738972Y-90672419D02*
X76738972Y-89672419D01*
X76738972Y-89672419D02*
X76167544Y-90672419D01*
X76167544Y-90672419D02*
X76167544Y-89672419D01*
X75691353Y-90291466D02*
X74929449Y-90291466D01*
D11*
X108516917Y-83329400D02*
X108302632Y-83400828D01*
X108302632Y-83400828D02*
X107945489Y-83400828D01*
X107945489Y-83400828D02*
X107802632Y-83329400D01*
X107802632Y-83329400D02*
X107731203Y-83257971D01*
X107731203Y-83257971D02*
X107659774Y-83115114D01*
X107659774Y-83115114D02*
X107659774Y-82972257D01*
X107659774Y-82972257D02*
X107731203Y-82829400D01*
X107731203Y-82829400D02*
X107802632Y-82757971D01*
X107802632Y-82757971D02*
X107945489Y-82686542D01*
X107945489Y-82686542D02*
X108231203Y-82615114D01*
X108231203Y-82615114D02*
X108374060Y-82543685D01*
X108374060Y-82543685D02*
X108445489Y-82472257D01*
X108445489Y-82472257D02*
X108516917Y-82329400D01*
X108516917Y-82329400D02*
X108516917Y-82186542D01*
X108516917Y-82186542D02*
X108445489Y-82043685D01*
X108445489Y-82043685D02*
X108374060Y-81972257D01*
X108374060Y-81972257D02*
X108231203Y-81900828D01*
X108231203Y-81900828D02*
X107874060Y-81900828D01*
X107874060Y-81900828D02*
X107659774Y-81972257D01*
X106445489Y-83329400D02*
X106588346Y-83400828D01*
X106588346Y-83400828D02*
X106874061Y-83400828D01*
X106874061Y-83400828D02*
X107016918Y-83329400D01*
X107016918Y-83329400D02*
X107088346Y-83186542D01*
X107088346Y-83186542D02*
X107088346Y-82615114D01*
X107088346Y-82615114D02*
X107016918Y-82472257D01*
X107016918Y-82472257D02*
X106874061Y-82400828D01*
X106874061Y-82400828D02*
X106588346Y-82400828D01*
X106588346Y-82400828D02*
X106445489Y-82472257D01*
X106445489Y-82472257D02*
X106374061Y-82615114D01*
X106374061Y-82615114D02*
X106374061Y-82757971D01*
X106374061Y-82757971D02*
X107088346Y-82900828D01*
X105731204Y-83400828D02*
X105731204Y-82400828D01*
X105731204Y-82686542D02*
X105659775Y-82543685D01*
X105659775Y-82543685D02*
X105588347Y-82472257D01*
X105588347Y-82472257D02*
X105445489Y-82400828D01*
X105445489Y-82400828D02*
X105302632Y-82400828D01*
X104945490Y-82400828D02*
X104588347Y-83400828D01*
X104588347Y-83400828D02*
X104231204Y-82400828D01*
X103445490Y-83400828D02*
X103588347Y-83329400D01*
X103588347Y-83329400D02*
X103659776Y-83257971D01*
X103659776Y-83257971D02*
X103731204Y-83115114D01*
X103731204Y-83115114D02*
X103731204Y-82686542D01*
X103731204Y-82686542D02*
X103659776Y-82543685D01*
X103659776Y-82543685D02*
X103588347Y-82472257D01*
X103588347Y-82472257D02*
X103445490Y-82400828D01*
X103445490Y-82400828D02*
X103231204Y-82400828D01*
X103231204Y-82400828D02*
X103088347Y-82472257D01*
X103088347Y-82472257D02*
X103016919Y-82543685D01*
X103016919Y-82543685D02*
X102945490Y-82686542D01*
X102945490Y-82686542D02*
X102945490Y-83115114D01*
X102945490Y-83115114D02*
X103016919Y-83257971D01*
X103016919Y-83257971D02*
X103088347Y-83329400D01*
X103088347Y-83329400D02*
X103231204Y-83400828D01*
X103231204Y-83400828D02*
X103445490Y-83400828D01*
X101159776Y-83400828D02*
X101159776Y-81900828D01*
X101159776Y-81900828D02*
X100659776Y-82972257D01*
X100659776Y-82972257D02*
X100159776Y-81900828D01*
X100159776Y-81900828D02*
X100159776Y-83400828D01*
X99231204Y-83400828D02*
X99374061Y-83329400D01*
X99374061Y-83329400D02*
X99445490Y-83257971D01*
X99445490Y-83257971D02*
X99516918Y-83115114D01*
X99516918Y-83115114D02*
X99516918Y-82686542D01*
X99516918Y-82686542D02*
X99445490Y-82543685D01*
X99445490Y-82543685D02*
X99374061Y-82472257D01*
X99374061Y-82472257D02*
X99231204Y-82400828D01*
X99231204Y-82400828D02*
X99016918Y-82400828D01*
X99016918Y-82400828D02*
X98874061Y-82472257D01*
X98874061Y-82472257D02*
X98802633Y-82543685D01*
X98802633Y-82543685D02*
X98731204Y-82686542D01*
X98731204Y-82686542D02*
X98731204Y-83115114D01*
X98731204Y-83115114D02*
X98802633Y-83257971D01*
X98802633Y-83257971D02*
X98874061Y-83329400D01*
X98874061Y-83329400D02*
X99016918Y-83400828D01*
X99016918Y-83400828D02*
X99231204Y-83400828D01*
X98302632Y-82400828D02*
X97731204Y-82400828D01*
X98088347Y-81900828D02*
X98088347Y-83186542D01*
X98088347Y-83186542D02*
X98016918Y-83329400D01*
X98016918Y-83329400D02*
X97874061Y-83400828D01*
X97874061Y-83400828D02*
X97731204Y-83400828D01*
X97016918Y-83400828D02*
X97159775Y-83329400D01*
X97159775Y-83329400D02*
X97231204Y-83257971D01*
X97231204Y-83257971D02*
X97302632Y-83115114D01*
X97302632Y-83115114D02*
X97302632Y-82686542D01*
X97302632Y-82686542D02*
X97231204Y-82543685D01*
X97231204Y-82543685D02*
X97159775Y-82472257D01*
X97159775Y-82472257D02*
X97016918Y-82400828D01*
X97016918Y-82400828D02*
X96802632Y-82400828D01*
X96802632Y-82400828D02*
X96659775Y-82472257D01*
X96659775Y-82472257D02*
X96588347Y-82543685D01*
X96588347Y-82543685D02*
X96516918Y-82686542D01*
X96516918Y-82686542D02*
X96516918Y-83115114D01*
X96516918Y-83115114D02*
X96588347Y-83257971D01*
X96588347Y-83257971D02*
X96659775Y-83329400D01*
X96659775Y-83329400D02*
X96802632Y-83400828D01*
X96802632Y-83400828D02*
X97016918Y-83400828D01*
X95874061Y-83400828D02*
X95874061Y-82400828D01*
X95874061Y-82686542D02*
X95802632Y-82543685D01*
X95802632Y-82543685D02*
X95731204Y-82472257D01*
X95731204Y-82472257D02*
X95588346Y-82400828D01*
X95588346Y-82400828D02*
X95445489Y-82400828D01*
X93374061Y-83972257D02*
X93445490Y-83900828D01*
X93445490Y-83900828D02*
X93588347Y-83686542D01*
X93588347Y-83686542D02*
X93659776Y-83543685D01*
X93659776Y-83543685D02*
X93731204Y-83329400D01*
X93731204Y-83329400D02*
X93802633Y-82972257D01*
X93802633Y-82972257D02*
X93802633Y-82686542D01*
X93802633Y-82686542D02*
X93731204Y-82329400D01*
X93731204Y-82329400D02*
X93659776Y-82115114D01*
X93659776Y-82115114D02*
X93588347Y-81972257D01*
X93588347Y-81972257D02*
X93445490Y-81757971D01*
X93445490Y-81757971D02*
X93374061Y-81686542D01*
X92945490Y-81900828D02*
X92016918Y-81900828D01*
X92016918Y-81900828D02*
X92516918Y-82472257D01*
X92516918Y-82472257D02*
X92302633Y-82472257D01*
X92302633Y-82472257D02*
X92159776Y-82543685D01*
X92159776Y-82543685D02*
X92088347Y-82615114D01*
X92088347Y-82615114D02*
X92016918Y-82757971D01*
X92016918Y-82757971D02*
X92016918Y-83115114D01*
X92016918Y-83115114D02*
X92088347Y-83257971D01*
X92088347Y-83257971D02*
X92159776Y-83329400D01*
X92159776Y-83329400D02*
X92302633Y-83400828D01*
X92302633Y-83400828D02*
X92731204Y-83400828D01*
X92731204Y-83400828D02*
X92874061Y-83329400D01*
X92874061Y-83329400D02*
X92945490Y-83257971D01*
X91516919Y-83972257D02*
X91445490Y-83900828D01*
X91445490Y-83900828D02*
X91302633Y-83686542D01*
X91302633Y-83686542D02*
X91231205Y-83543685D01*
X91231205Y-83543685D02*
X91159776Y-83329400D01*
X91159776Y-83329400D02*
X91088347Y-82972257D01*
X91088347Y-82972257D02*
X91088347Y-82686542D01*
X91088347Y-82686542D02*
X91159776Y-82329400D01*
X91159776Y-82329400D02*
X91231205Y-82115114D01*
X91231205Y-82115114D02*
X91302633Y-81972257D01*
X91302633Y-81972257D02*
X91445490Y-81757971D01*
X91445490Y-81757971D02*
X91516919Y-81686542D01*
X88374062Y-83257971D02*
X88445490Y-83329400D01*
X88445490Y-83329400D02*
X88659776Y-83400828D01*
X88659776Y-83400828D02*
X88802633Y-83400828D01*
X88802633Y-83400828D02*
X89016919Y-83329400D01*
X89016919Y-83329400D02*
X89159776Y-83186542D01*
X89159776Y-83186542D02*
X89231205Y-83043685D01*
X89231205Y-83043685D02*
X89302633Y-82757971D01*
X89302633Y-82757971D02*
X89302633Y-82543685D01*
X89302633Y-82543685D02*
X89231205Y-82257971D01*
X89231205Y-82257971D02*
X89159776Y-82115114D01*
X89159776Y-82115114D02*
X89016919Y-81972257D01*
X89016919Y-81972257D02*
X88802633Y-81900828D01*
X88802633Y-81900828D02*
X88659776Y-81900828D01*
X88659776Y-81900828D02*
X88445490Y-81972257D01*
X88445490Y-81972257D02*
X88374062Y-82043685D01*
X87516919Y-83400828D02*
X87659776Y-83329400D01*
X87659776Y-83329400D02*
X87731205Y-83257971D01*
X87731205Y-83257971D02*
X87802633Y-83115114D01*
X87802633Y-83115114D02*
X87802633Y-82686542D01*
X87802633Y-82686542D02*
X87731205Y-82543685D01*
X87731205Y-82543685D02*
X87659776Y-82472257D01*
X87659776Y-82472257D02*
X87516919Y-82400828D01*
X87516919Y-82400828D02*
X87302633Y-82400828D01*
X87302633Y-82400828D02*
X87159776Y-82472257D01*
X87159776Y-82472257D02*
X87088348Y-82543685D01*
X87088348Y-82543685D02*
X87016919Y-82686542D01*
X87016919Y-82686542D02*
X87016919Y-83115114D01*
X87016919Y-83115114D02*
X87088348Y-83257971D01*
X87088348Y-83257971D02*
X87159776Y-83329400D01*
X87159776Y-83329400D02*
X87302633Y-83400828D01*
X87302633Y-83400828D02*
X87516919Y-83400828D01*
X86374062Y-82400828D02*
X86374062Y-83400828D01*
X86374062Y-82543685D02*
X86302633Y-82472257D01*
X86302633Y-82472257D02*
X86159776Y-82400828D01*
X86159776Y-82400828D02*
X85945490Y-82400828D01*
X85945490Y-82400828D02*
X85802633Y-82472257D01*
X85802633Y-82472257D02*
X85731205Y-82615114D01*
X85731205Y-82615114D02*
X85731205Y-83400828D01*
X85231204Y-82400828D02*
X84659776Y-82400828D01*
X85016919Y-81900828D02*
X85016919Y-83186542D01*
X85016919Y-83186542D02*
X84945490Y-83329400D01*
X84945490Y-83329400D02*
X84802633Y-83400828D01*
X84802633Y-83400828D02*
X84659776Y-83400828D01*
X84159776Y-83400828D02*
X84159776Y-82400828D01*
X84159776Y-82686542D02*
X84088347Y-82543685D01*
X84088347Y-82543685D02*
X84016919Y-82472257D01*
X84016919Y-82472257D02*
X83874061Y-82400828D01*
X83874061Y-82400828D02*
X83731204Y-82400828D01*
X83016919Y-83400828D02*
X83159776Y-83329400D01*
X83159776Y-83329400D02*
X83231205Y-83257971D01*
X83231205Y-83257971D02*
X83302633Y-83115114D01*
X83302633Y-83115114D02*
X83302633Y-82686542D01*
X83302633Y-82686542D02*
X83231205Y-82543685D01*
X83231205Y-82543685D02*
X83159776Y-82472257D01*
X83159776Y-82472257D02*
X83016919Y-82400828D01*
X83016919Y-82400828D02*
X82802633Y-82400828D01*
X82802633Y-82400828D02*
X82659776Y-82472257D01*
X82659776Y-82472257D02*
X82588348Y-82543685D01*
X82588348Y-82543685D02*
X82516919Y-82686542D01*
X82516919Y-82686542D02*
X82516919Y-83115114D01*
X82516919Y-83115114D02*
X82588348Y-83257971D01*
X82588348Y-83257971D02*
X82659776Y-83329400D01*
X82659776Y-83329400D02*
X82802633Y-83400828D01*
X82802633Y-83400828D02*
X83016919Y-83400828D01*
X81659776Y-83400828D02*
X81802633Y-83329400D01*
X81802633Y-83329400D02*
X81874062Y-83186542D01*
X81874062Y-83186542D02*
X81874062Y-81900828D01*
X80874062Y-83400828D02*
X81016919Y-83329400D01*
X81016919Y-83329400D02*
X81088348Y-83186542D01*
X81088348Y-83186542D02*
X81088348Y-81900828D01*
X79731205Y-83329400D02*
X79874062Y-83400828D01*
X79874062Y-83400828D02*
X80159777Y-83400828D01*
X80159777Y-83400828D02*
X80302634Y-83329400D01*
X80302634Y-83329400D02*
X80374062Y-83186542D01*
X80374062Y-83186542D02*
X80374062Y-82615114D01*
X80374062Y-82615114D02*
X80302634Y-82472257D01*
X80302634Y-82472257D02*
X80159777Y-82400828D01*
X80159777Y-82400828D02*
X79874062Y-82400828D01*
X79874062Y-82400828D02*
X79731205Y-82472257D01*
X79731205Y-82472257D02*
X79659777Y-82615114D01*
X79659777Y-82615114D02*
X79659777Y-82757971D01*
X79659777Y-82757971D02*
X80374062Y-82900828D01*
X79016920Y-83400828D02*
X79016920Y-82400828D01*
X79016920Y-82686542D02*
X78945491Y-82543685D01*
X78945491Y-82543685D02*
X78874063Y-82472257D01*
X78874063Y-82472257D02*
X78731205Y-82400828D01*
X78731205Y-82400828D02*
X78588348Y-82400828D01*
D10*
X111924687Y-90577180D02*
X111972306Y-90624800D01*
X111972306Y-90624800D02*
X112115163Y-90672419D01*
X112115163Y-90672419D02*
X112210401Y-90672419D01*
X112210401Y-90672419D02*
X112353258Y-90624800D01*
X112353258Y-90624800D02*
X112448496Y-90529561D01*
X112448496Y-90529561D02*
X112496115Y-90434323D01*
X112496115Y-90434323D02*
X112543734Y-90243847D01*
X112543734Y-90243847D02*
X112543734Y-90100990D01*
X112543734Y-90100990D02*
X112496115Y-89910514D01*
X112496115Y-89910514D02*
X112448496Y-89815276D01*
X112448496Y-89815276D02*
X112353258Y-89720038D01*
X112353258Y-89720038D02*
X112210401Y-89672419D01*
X112210401Y-89672419D02*
X112115163Y-89672419D01*
X112115163Y-89672419D02*
X111972306Y-89720038D01*
X111972306Y-89720038D02*
X111924687Y-89767657D01*
X111543734Y-90386704D02*
X111067544Y-90386704D01*
X111638972Y-90672419D02*
X111305639Y-89672419D01*
X111305639Y-89672419D02*
X110972306Y-90672419D01*
X110638972Y-90672419D02*
X110638972Y-89672419D01*
X110638972Y-89672419D02*
X110067544Y-90672419D01*
X110067544Y-90672419D02*
X110067544Y-89672419D01*
X109591353Y-90291466D02*
X108829449Y-90291466D01*
D13*
X77975768Y-81109783D02*
X77975768Y-80409783D01*
X77975768Y-80409783D02*
X77742435Y-80909783D01*
X77742435Y-80909783D02*
X77509101Y-80409783D01*
X77509101Y-80409783D02*
X77509101Y-81109783D01*
X77209101Y-80476450D02*
X77175768Y-80443116D01*
X77175768Y-80443116D02*
X77109101Y-80409783D01*
X77109101Y-80409783D02*
X76942435Y-80409783D01*
X76942435Y-80409783D02*
X76875768Y-80443116D01*
X76875768Y-80443116D02*
X76842435Y-80476450D01*
X76842435Y-80476450D02*
X76809101Y-80543116D01*
X76809101Y-80543116D02*
X76809101Y-80609783D01*
X76809101Y-80609783D02*
X76842435Y-80709783D01*
X76842435Y-80709783D02*
X77242435Y-81109783D01*
X77242435Y-81109783D02*
X76809101Y-81109783D01*
X75975768Y-81109783D02*
X75975768Y-80409783D01*
X75675768Y-81109783D02*
X75675768Y-80743116D01*
X75675768Y-80743116D02*
X75709101Y-80676450D01*
X75709101Y-80676450D02*
X75775768Y-80643116D01*
X75775768Y-80643116D02*
X75875768Y-80643116D01*
X75875768Y-80643116D02*
X75942435Y-80676450D01*
X75942435Y-80676450D02*
X75975768Y-80709783D01*
X75242435Y-81109783D02*
X75309102Y-81076450D01*
X75309102Y-81076450D02*
X75342435Y-81043116D01*
X75342435Y-81043116D02*
X75375768Y-80976450D01*
X75375768Y-80976450D02*
X75375768Y-80776450D01*
X75375768Y-80776450D02*
X75342435Y-80709783D01*
X75342435Y-80709783D02*
X75309102Y-80676450D01*
X75309102Y-80676450D02*
X75242435Y-80643116D01*
X75242435Y-80643116D02*
X75142435Y-80643116D01*
X75142435Y-80643116D02*
X75075768Y-80676450D01*
X75075768Y-80676450D02*
X75042435Y-80709783D01*
X75042435Y-80709783D02*
X75009102Y-80776450D01*
X75009102Y-80776450D02*
X75009102Y-80976450D01*
X75009102Y-80976450D02*
X75042435Y-81043116D01*
X75042435Y-81043116D02*
X75075768Y-81076450D01*
X75075768Y-81076450D02*
X75142435Y-81109783D01*
X75142435Y-81109783D02*
X75242435Y-81109783D01*
X74609102Y-81109783D02*
X74675769Y-81076450D01*
X74675769Y-81076450D02*
X74709102Y-81009783D01*
X74709102Y-81009783D02*
X74709102Y-80409783D01*
X74075768Y-81076450D02*
X74142435Y-81109783D01*
X74142435Y-81109783D02*
X74275768Y-81109783D01*
X74275768Y-81109783D02*
X74342435Y-81076450D01*
X74342435Y-81076450D02*
X74375768Y-81009783D01*
X74375768Y-81009783D02*
X74375768Y-80743116D01*
X74375768Y-80743116D02*
X74342435Y-80676450D01*
X74342435Y-80676450D02*
X74275768Y-80643116D01*
X74275768Y-80643116D02*
X74142435Y-80643116D01*
X74142435Y-80643116D02*
X74075768Y-80676450D01*
X74075768Y-80676450D02*
X74042435Y-80743116D01*
X74042435Y-80743116D02*
X74042435Y-80809783D01*
X74042435Y-80809783D02*
X74375768Y-80876450D01*
X73775768Y-81076450D02*
X73709102Y-81109783D01*
X73709102Y-81109783D02*
X73575768Y-81109783D01*
X73575768Y-81109783D02*
X73509102Y-81076450D01*
X73509102Y-81076450D02*
X73475768Y-81009783D01*
X73475768Y-81009783D02*
X73475768Y-80976450D01*
X73475768Y-80976450D02*
X73509102Y-80909783D01*
X73509102Y-80909783D02*
X73575768Y-80876450D01*
X73575768Y-80876450D02*
X73675768Y-80876450D01*
X73675768Y-80876450D02*
X73742435Y-80843116D01*
X73742435Y-80843116D02*
X73775768Y-80776450D01*
X73775768Y-80776450D02*
X73775768Y-80743116D01*
X73775768Y-80743116D02*
X73742435Y-80676450D01*
X73742435Y-80676450D02*
X73675768Y-80643116D01*
X73675768Y-80643116D02*
X73575768Y-80643116D01*
X73575768Y-80643116D02*
X73509102Y-80676450D01*
X77275768Y-79543116D02*
X77275768Y-80009783D01*
X77442435Y-79276450D02*
X77609101Y-79776450D01*
X77609101Y-79776450D02*
X77175768Y-79776450D01*
X76942434Y-79376450D02*
X76909101Y-79343116D01*
X76909101Y-79343116D02*
X76842434Y-79309783D01*
X76842434Y-79309783D02*
X76675768Y-79309783D01*
X76675768Y-79309783D02*
X76609101Y-79343116D01*
X76609101Y-79343116D02*
X76575768Y-79376450D01*
X76575768Y-79376450D02*
X76542434Y-79443116D01*
X76542434Y-79443116D02*
X76542434Y-79509783D01*
X76542434Y-79509783D02*
X76575768Y-79609783D01*
X76575768Y-79609783D02*
X76975768Y-80009783D01*
X76975768Y-80009783D02*
X76542434Y-80009783D01*
X76242434Y-79943116D02*
X76209101Y-79976450D01*
X76209101Y-79976450D02*
X76242434Y-80009783D01*
X76242434Y-80009783D02*
X76275767Y-79976450D01*
X76275767Y-79976450D02*
X76242434Y-79943116D01*
X76242434Y-79943116D02*
X76242434Y-80009783D01*
X75609101Y-79543116D02*
X75609101Y-80009783D01*
X75775768Y-79276450D02*
X75942434Y-79776450D01*
X75942434Y-79776450D02*
X75509101Y-79776450D01*
X75242434Y-80009783D02*
X75242434Y-79543116D01*
X75242434Y-79609783D02*
X75209101Y-79576450D01*
X75209101Y-79576450D02*
X75142434Y-79543116D01*
X75142434Y-79543116D02*
X75042434Y-79543116D01*
X75042434Y-79543116D02*
X74975767Y-79576450D01*
X74975767Y-79576450D02*
X74942434Y-79643116D01*
X74942434Y-79643116D02*
X74942434Y-80009783D01*
X74942434Y-79643116D02*
X74909101Y-79576450D01*
X74909101Y-79576450D02*
X74842434Y-79543116D01*
X74842434Y-79543116D02*
X74742434Y-79543116D01*
X74742434Y-79543116D02*
X74675767Y-79576450D01*
X74675767Y-79576450D02*
X74642434Y-79643116D01*
X74642434Y-79643116D02*
X74642434Y-80009783D01*
D10*
X90172306Y-99720038D02*
X90267544Y-99672419D01*
X90267544Y-99672419D02*
X90410401Y-99672419D01*
X90410401Y-99672419D02*
X90553258Y-99720038D01*
X90553258Y-99720038D02*
X90648496Y-99815276D01*
X90648496Y-99815276D02*
X90696115Y-99910514D01*
X90696115Y-99910514D02*
X90743734Y-100100990D01*
X90743734Y-100100990D02*
X90743734Y-100243847D01*
X90743734Y-100243847D02*
X90696115Y-100434323D01*
X90696115Y-100434323D02*
X90648496Y-100529561D01*
X90648496Y-100529561D02*
X90553258Y-100624800D01*
X90553258Y-100624800D02*
X90410401Y-100672419D01*
X90410401Y-100672419D02*
X90315163Y-100672419D01*
X90315163Y-100672419D02*
X90172306Y-100624800D01*
X90172306Y-100624800D02*
X90124687Y-100577180D01*
X90124687Y-100577180D02*
X90124687Y-100243847D01*
X90124687Y-100243847D02*
X90315163Y-100243847D01*
X112524687Y-85672419D02*
X112858020Y-85196228D01*
X113096115Y-85672419D02*
X113096115Y-84672419D01*
X113096115Y-84672419D02*
X112715163Y-84672419D01*
X112715163Y-84672419D02*
X112619925Y-84720038D01*
X112619925Y-84720038D02*
X112572306Y-84767657D01*
X112572306Y-84767657D02*
X112524687Y-84862895D01*
X112524687Y-84862895D02*
X112524687Y-85005752D01*
X112524687Y-85005752D02*
X112572306Y-85100990D01*
X112572306Y-85100990D02*
X112619925Y-85148609D01*
X112619925Y-85148609D02*
X112715163Y-85196228D01*
X112715163Y-85196228D02*
X113096115Y-85196228D01*
X112096115Y-85148609D02*
X111762782Y-85148609D01*
X111619925Y-85672419D02*
X112096115Y-85672419D01*
X112096115Y-85672419D02*
X112096115Y-84672419D01*
X112096115Y-84672419D02*
X111619925Y-84672419D01*
X111238972Y-85624800D02*
X111096115Y-85672419D01*
X111096115Y-85672419D02*
X110858020Y-85672419D01*
X110858020Y-85672419D02*
X110762782Y-85624800D01*
X110762782Y-85624800D02*
X110715163Y-85577180D01*
X110715163Y-85577180D02*
X110667544Y-85481942D01*
X110667544Y-85481942D02*
X110667544Y-85386704D01*
X110667544Y-85386704D02*
X110715163Y-85291466D01*
X110715163Y-85291466D02*
X110762782Y-85243847D01*
X110762782Y-85243847D02*
X110858020Y-85196228D01*
X110858020Y-85196228D02*
X111048496Y-85148609D01*
X111048496Y-85148609D02*
X111143734Y-85100990D01*
X111143734Y-85100990D02*
X111191353Y-85053371D01*
X111191353Y-85053371D02*
X111238972Y-84958133D01*
X111238972Y-84958133D02*
X111238972Y-84862895D01*
X111238972Y-84862895D02*
X111191353Y-84767657D01*
X111191353Y-84767657D02*
X111143734Y-84720038D01*
X111143734Y-84720038D02*
X111048496Y-84672419D01*
X111048496Y-84672419D02*
X110810401Y-84672419D01*
X110810401Y-84672419D02*
X110667544Y-84720038D01*
X110238972Y-85148609D02*
X109905639Y-85148609D01*
X109762782Y-85672419D02*
X110238972Y-85672419D01*
X110238972Y-85672419D02*
X110238972Y-84672419D01*
X110238972Y-84672419D02*
X109762782Y-84672419D01*
X109477067Y-84672419D02*
X108905639Y-84672419D01*
X109191353Y-85672419D02*
X109191353Y-84672419D01*
X85024687Y-100972419D02*
X85358020Y-100496228D01*
X85596115Y-100972419D02*
X85596115Y-99972419D01*
X85596115Y-99972419D02*
X85215163Y-99972419D01*
X85215163Y-99972419D02*
X85119925Y-100020038D01*
X85119925Y-100020038D02*
X85072306Y-100067657D01*
X85072306Y-100067657D02*
X85024687Y-100162895D01*
X85024687Y-100162895D02*
X85024687Y-100305752D01*
X85024687Y-100305752D02*
X85072306Y-100400990D01*
X85072306Y-100400990D02*
X85119925Y-100448609D01*
X85119925Y-100448609D02*
X85215163Y-100496228D01*
X85215163Y-100496228D02*
X85596115Y-100496228D01*
X84215163Y-100924800D02*
X84310401Y-100972419D01*
X84310401Y-100972419D02*
X84500877Y-100972419D01*
X84500877Y-100972419D02*
X84596115Y-100924800D01*
X84596115Y-100924800D02*
X84643734Y-100829561D01*
X84643734Y-100829561D02*
X84643734Y-100448609D01*
X84643734Y-100448609D02*
X84596115Y-100353371D01*
X84596115Y-100353371D02*
X84500877Y-100305752D01*
X84500877Y-100305752D02*
X84310401Y-100305752D01*
X84310401Y-100305752D02*
X84215163Y-100353371D01*
X84215163Y-100353371D02*
X84167544Y-100448609D01*
X84167544Y-100448609D02*
X84167544Y-100543847D01*
X84167544Y-100543847D02*
X84643734Y-100639085D01*
X83834210Y-100305752D02*
X83596115Y-100972419D01*
X83596115Y-100972419D02*
X83358020Y-100305752D01*
X82977067Y-100972419D02*
X82977067Y-100305752D01*
X82977067Y-99972419D02*
X83024686Y-100020038D01*
X83024686Y-100020038D02*
X82977067Y-100067657D01*
X82977067Y-100067657D02*
X82929448Y-100020038D01*
X82929448Y-100020038D02*
X82977067Y-99972419D01*
X82977067Y-99972419D02*
X82977067Y-100067657D01*
X82548496Y-100924800D02*
X82453258Y-100972419D01*
X82453258Y-100972419D02*
X82262782Y-100972419D01*
X82262782Y-100972419D02*
X82167544Y-100924800D01*
X82167544Y-100924800D02*
X82119925Y-100829561D01*
X82119925Y-100829561D02*
X82119925Y-100781942D01*
X82119925Y-100781942D02*
X82167544Y-100686704D01*
X82167544Y-100686704D02*
X82262782Y-100639085D01*
X82262782Y-100639085D02*
X82405639Y-100639085D01*
X82405639Y-100639085D02*
X82500877Y-100591466D01*
X82500877Y-100591466D02*
X82548496Y-100496228D01*
X82548496Y-100496228D02*
X82548496Y-100448609D01*
X82548496Y-100448609D02*
X82500877Y-100353371D01*
X82500877Y-100353371D02*
X82405639Y-100305752D01*
X82405639Y-100305752D02*
X82262782Y-100305752D01*
X82262782Y-100305752D02*
X82167544Y-100353371D01*
X81691353Y-100972419D02*
X81691353Y-100305752D01*
X81691353Y-99972419D02*
X81738972Y-100020038D01*
X81738972Y-100020038D02*
X81691353Y-100067657D01*
X81691353Y-100067657D02*
X81643734Y-100020038D01*
X81643734Y-100020038D02*
X81691353Y-99972419D01*
X81691353Y-99972419D02*
X81691353Y-100067657D01*
X81072306Y-100972419D02*
X81167544Y-100924800D01*
X81167544Y-100924800D02*
X81215163Y-100877180D01*
X81215163Y-100877180D02*
X81262782Y-100781942D01*
X81262782Y-100781942D02*
X81262782Y-100496228D01*
X81262782Y-100496228D02*
X81215163Y-100400990D01*
X81215163Y-100400990D02*
X81167544Y-100353371D01*
X81167544Y-100353371D02*
X81072306Y-100305752D01*
X81072306Y-100305752D02*
X80929449Y-100305752D01*
X80929449Y-100305752D02*
X80834211Y-100353371D01*
X80834211Y-100353371D02*
X80786592Y-100400990D01*
X80786592Y-100400990D02*
X80738973Y-100496228D01*
X80738973Y-100496228D02*
X80738973Y-100781942D01*
X80738973Y-100781942D02*
X80786592Y-100877180D01*
X80786592Y-100877180D02*
X80834211Y-100924800D01*
X80834211Y-100924800D02*
X80929449Y-100972419D01*
X80929449Y-100972419D02*
X81072306Y-100972419D01*
X80310401Y-100305752D02*
X80310401Y-100972419D01*
X80310401Y-100400990D02*
X80262782Y-100353371D01*
X80262782Y-100353371D02*
X80167544Y-100305752D01*
X80167544Y-100305752D02*
X80024687Y-100305752D01*
X80024687Y-100305752D02*
X79929449Y-100353371D01*
X79929449Y-100353371D02*
X79881830Y-100448609D01*
X79881830Y-100448609D02*
X79881830Y-100972419D01*
X78119925Y-100972419D02*
X78691353Y-100972419D01*
X78405639Y-100972419D02*
X78405639Y-99972419D01*
X78405639Y-99972419D02*
X78500877Y-100115276D01*
X78500877Y-100115276D02*
X78596115Y-100210514D01*
X78596115Y-100210514D02*
X78691353Y-100258133D01*
X78896115Y-95291466D02*
X78134211Y-95291466D01*
X78515163Y-95672419D02*
X78515163Y-94910514D01*
X77753258Y-94672419D02*
X77134211Y-94672419D01*
X77134211Y-94672419D02*
X77467544Y-95053371D01*
X77467544Y-95053371D02*
X77324687Y-95053371D01*
X77324687Y-95053371D02*
X77229449Y-95100990D01*
X77229449Y-95100990D02*
X77181830Y-95148609D01*
X77181830Y-95148609D02*
X77134211Y-95243847D01*
X77134211Y-95243847D02*
X77134211Y-95481942D01*
X77134211Y-95481942D02*
X77181830Y-95577180D01*
X77181830Y-95577180D02*
X77229449Y-95624800D01*
X77229449Y-95624800D02*
X77324687Y-95672419D01*
X77324687Y-95672419D02*
X77610401Y-95672419D01*
X77610401Y-95672419D02*
X77705639Y-95624800D01*
X77705639Y-95624800D02*
X77753258Y-95577180D01*
X76848496Y-94672419D02*
X76515163Y-95672419D01*
X76515163Y-95672419D02*
X76181830Y-94672419D01*
X75943734Y-94672419D02*
X75324687Y-94672419D01*
X75324687Y-94672419D02*
X75658020Y-95053371D01*
X75658020Y-95053371D02*
X75515163Y-95053371D01*
X75515163Y-95053371D02*
X75419925Y-95100990D01*
X75419925Y-95100990D02*
X75372306Y-95148609D01*
X75372306Y-95148609D02*
X75324687Y-95243847D01*
X75324687Y-95243847D02*
X75324687Y-95481942D01*
X75324687Y-95481942D02*
X75372306Y-95577180D01*
X75372306Y-95577180D02*
X75419925Y-95624800D01*
X75419925Y-95624800D02*
X75515163Y-95672419D01*
X75515163Y-95672419D02*
X75800877Y-95672419D01*
X75800877Y-95672419D02*
X75896115Y-95624800D01*
X75896115Y-95624800D02*
X75943734Y-95577180D01*
X100438972Y-99572419D02*
X100105639Y-100572419D01*
X100105639Y-100572419D02*
X99772306Y-99572419D01*
X99438972Y-100191466D02*
X98677068Y-100191466D01*
X99058020Y-100572419D02*
X99058020Y-99810514D01*
X94972306Y-74220038D02*
X95067544Y-74172419D01*
X95067544Y-74172419D02*
X95210401Y-74172419D01*
X95210401Y-74172419D02*
X95353258Y-74220038D01*
X95353258Y-74220038D02*
X95448496Y-74315276D01*
X95448496Y-74315276D02*
X95496115Y-74410514D01*
X95496115Y-74410514D02*
X95543734Y-74600990D01*
X95543734Y-74600990D02*
X95543734Y-74743847D01*
X95543734Y-74743847D02*
X95496115Y-74934323D01*
X95496115Y-74934323D02*
X95448496Y-75029561D01*
X95448496Y-75029561D02*
X95353258Y-75124800D01*
X95353258Y-75124800D02*
X95210401Y-75172419D01*
X95210401Y-75172419D02*
X95115163Y-75172419D01*
X95115163Y-75172419D02*
X94972306Y-75124800D01*
X94972306Y-75124800D02*
X94924687Y-75077180D01*
X94924687Y-75077180D02*
X94924687Y-74743847D01*
X94924687Y-74743847D02*
X95115163Y-74743847D01*
D12*
X94672744Y-78588200D02*
X94501316Y-78645342D01*
X94501316Y-78645342D02*
X94215601Y-78645342D01*
X94215601Y-78645342D02*
X94101316Y-78588200D01*
X94101316Y-78588200D02*
X94044173Y-78531057D01*
X94044173Y-78531057D02*
X93987030Y-78416771D01*
X93987030Y-78416771D02*
X93987030Y-78302485D01*
X93987030Y-78302485D02*
X94044173Y-78188200D01*
X94044173Y-78188200D02*
X94101316Y-78131057D01*
X94101316Y-78131057D02*
X94215601Y-78073914D01*
X94215601Y-78073914D02*
X94444173Y-78016771D01*
X94444173Y-78016771D02*
X94558458Y-77959628D01*
X94558458Y-77959628D02*
X94615601Y-77902485D01*
X94615601Y-77902485D02*
X94672744Y-77788200D01*
X94672744Y-77788200D02*
X94672744Y-77673914D01*
X94672744Y-77673914D02*
X94615601Y-77559628D01*
X94615601Y-77559628D02*
X94558458Y-77502485D01*
X94558458Y-77502485D02*
X94444173Y-77445342D01*
X94444173Y-77445342D02*
X94158458Y-77445342D01*
X94158458Y-77445342D02*
X93987030Y-77502485D01*
X92787030Y-78645342D02*
X93187030Y-78073914D01*
X93472744Y-78645342D02*
X93472744Y-77445342D01*
X93472744Y-77445342D02*
X93015601Y-77445342D01*
X93015601Y-77445342D02*
X92901316Y-77502485D01*
X92901316Y-77502485D02*
X92844173Y-77559628D01*
X92844173Y-77559628D02*
X92787030Y-77673914D01*
X92787030Y-77673914D02*
X92787030Y-77845342D01*
X92787030Y-77845342D02*
X92844173Y-77959628D01*
X92844173Y-77959628D02*
X92901316Y-78016771D01*
X92901316Y-78016771D02*
X93015601Y-78073914D01*
X93015601Y-78073914D02*
X93472744Y-78073914D01*
X92444173Y-77445342D02*
X92044173Y-78645342D01*
X92044173Y-78645342D02*
X91644173Y-77445342D01*
X91301316Y-77559628D02*
X91244173Y-77502485D01*
X91244173Y-77502485D02*
X91129888Y-77445342D01*
X91129888Y-77445342D02*
X90844173Y-77445342D01*
X90844173Y-77445342D02*
X90729888Y-77502485D01*
X90729888Y-77502485D02*
X90672745Y-77559628D01*
X90672745Y-77559628D02*
X90615602Y-77673914D01*
X90615602Y-77673914D02*
X90615602Y-77788200D01*
X90615602Y-77788200D02*
X90672745Y-77959628D01*
X90672745Y-77959628D02*
X91358459Y-78645342D01*
X91358459Y-78645342D02*
X90615602Y-78645342D01*
D13*
X77609101Y-78376450D02*
X77575768Y-78343116D01*
X77575768Y-78343116D02*
X77509101Y-78309783D01*
X77509101Y-78309783D02*
X77342435Y-78309783D01*
X77342435Y-78309783D02*
X77275768Y-78343116D01*
X77275768Y-78343116D02*
X77242435Y-78376450D01*
X77242435Y-78376450D02*
X77209101Y-78443116D01*
X77209101Y-78443116D02*
X77209101Y-78509783D01*
X77209101Y-78509783D02*
X77242435Y-78609783D01*
X77242435Y-78609783D02*
X77642435Y-79009783D01*
X77642435Y-79009783D02*
X77209101Y-79009783D01*
X76875768Y-79009783D02*
X76742434Y-79009783D01*
X76742434Y-79009783D02*
X76675768Y-78976450D01*
X76675768Y-78976450D02*
X76642434Y-78943116D01*
X76642434Y-78943116D02*
X76575768Y-78843116D01*
X76575768Y-78843116D02*
X76542434Y-78709783D01*
X76542434Y-78709783D02*
X76542434Y-78443116D01*
X76542434Y-78443116D02*
X76575768Y-78376450D01*
X76575768Y-78376450D02*
X76609101Y-78343116D01*
X76609101Y-78343116D02*
X76675768Y-78309783D01*
X76675768Y-78309783D02*
X76809101Y-78309783D01*
X76809101Y-78309783D02*
X76875768Y-78343116D01*
X76875768Y-78343116D02*
X76909101Y-78376450D01*
X76909101Y-78376450D02*
X76942434Y-78443116D01*
X76942434Y-78443116D02*
X76942434Y-78609783D01*
X76942434Y-78609783D02*
X76909101Y-78676450D01*
X76909101Y-78676450D02*
X76875768Y-78709783D01*
X76875768Y-78709783D02*
X76809101Y-78743116D01*
X76809101Y-78743116D02*
X76675768Y-78743116D01*
X76675768Y-78743116D02*
X76609101Y-78709783D01*
X76609101Y-78709783D02*
X76575768Y-78676450D01*
X76575768Y-78676450D02*
X76542434Y-78609783D01*
X76242434Y-78943116D02*
X76209101Y-78976450D01*
X76209101Y-78976450D02*
X76242434Y-79009783D01*
X76242434Y-79009783D02*
X76275767Y-78976450D01*
X76275767Y-78976450D02*
X76242434Y-78943116D01*
X76242434Y-78943116D02*
X76242434Y-79009783D01*
X75609101Y-78309783D02*
X75742434Y-78309783D01*
X75742434Y-78309783D02*
X75809101Y-78343116D01*
X75809101Y-78343116D02*
X75842434Y-78376450D01*
X75842434Y-78376450D02*
X75909101Y-78476450D01*
X75909101Y-78476450D02*
X75942434Y-78609783D01*
X75942434Y-78609783D02*
X75942434Y-78876450D01*
X75942434Y-78876450D02*
X75909101Y-78943116D01*
X75909101Y-78943116D02*
X75875768Y-78976450D01*
X75875768Y-78976450D02*
X75809101Y-79009783D01*
X75809101Y-79009783D02*
X75675768Y-79009783D01*
X75675768Y-79009783D02*
X75609101Y-78976450D01*
X75609101Y-78976450D02*
X75575768Y-78943116D01*
X75575768Y-78943116D02*
X75542434Y-78876450D01*
X75542434Y-78876450D02*
X75542434Y-78709783D01*
X75542434Y-78709783D02*
X75575768Y-78643116D01*
X75575768Y-78643116D02*
X75609101Y-78609783D01*
X75609101Y-78609783D02*
X75675768Y-78576450D01*
X75675768Y-78576450D02*
X75809101Y-78576450D01*
X75809101Y-78576450D02*
X75875768Y-78609783D01*
X75875768Y-78609783D02*
X75909101Y-78643116D01*
X75909101Y-78643116D02*
X75942434Y-78709783D01*
X75309101Y-79009783D02*
X74942434Y-78543116D01*
X75309101Y-78543116D02*
X74942434Y-79009783D01*
D10*
X90443734Y-75124800D02*
X90300877Y-75172419D01*
X90300877Y-75172419D02*
X90062782Y-75172419D01*
X90062782Y-75172419D02*
X89967544Y-75124800D01*
X89967544Y-75124800D02*
X89919925Y-75077180D01*
X89919925Y-75077180D02*
X89872306Y-74981942D01*
X89872306Y-74981942D02*
X89872306Y-74886704D01*
X89872306Y-74886704D02*
X89919925Y-74791466D01*
X89919925Y-74791466D02*
X89967544Y-74743847D01*
X89967544Y-74743847D02*
X90062782Y-74696228D01*
X90062782Y-74696228D02*
X90253258Y-74648609D01*
X90253258Y-74648609D02*
X90348496Y-74600990D01*
X90348496Y-74600990D02*
X90396115Y-74553371D01*
X90396115Y-74553371D02*
X90443734Y-74458133D01*
X90443734Y-74458133D02*
X90443734Y-74362895D01*
X90443734Y-74362895D02*
X90396115Y-74267657D01*
X90396115Y-74267657D02*
X90348496Y-74220038D01*
X90348496Y-74220038D02*
X90253258Y-74172419D01*
X90253258Y-74172419D02*
X90015163Y-74172419D01*
X90015163Y-74172419D02*
X89872306Y-74220038D01*
X82938972Y-74172419D02*
X82605639Y-75172419D01*
X82605639Y-75172419D02*
X82272306Y-74172419D01*
X81938972Y-74791466D02*
X81177068Y-74791466D01*
X81558020Y-75172419D02*
X81558020Y-74410514D01*
X78624687Y-85672419D02*
X78958020Y-85196228D01*
X79196115Y-85672419D02*
X79196115Y-84672419D01*
X79196115Y-84672419D02*
X78815163Y-84672419D01*
X78815163Y-84672419D02*
X78719925Y-84720038D01*
X78719925Y-84720038D02*
X78672306Y-84767657D01*
X78672306Y-84767657D02*
X78624687Y-84862895D01*
X78624687Y-84862895D02*
X78624687Y-85005752D01*
X78624687Y-85005752D02*
X78672306Y-85100990D01*
X78672306Y-85100990D02*
X78719925Y-85148609D01*
X78719925Y-85148609D02*
X78815163Y-85196228D01*
X78815163Y-85196228D02*
X79196115Y-85196228D01*
X78196115Y-85148609D02*
X77862782Y-85148609D01*
X77719925Y-85672419D02*
X78196115Y-85672419D01*
X78196115Y-85672419D02*
X78196115Y-84672419D01*
X78196115Y-84672419D02*
X77719925Y-84672419D01*
X77338972Y-85624800D02*
X77196115Y-85672419D01*
X77196115Y-85672419D02*
X76958020Y-85672419D01*
X76958020Y-85672419D02*
X76862782Y-85624800D01*
X76862782Y-85624800D02*
X76815163Y-85577180D01*
X76815163Y-85577180D02*
X76767544Y-85481942D01*
X76767544Y-85481942D02*
X76767544Y-85386704D01*
X76767544Y-85386704D02*
X76815163Y-85291466D01*
X76815163Y-85291466D02*
X76862782Y-85243847D01*
X76862782Y-85243847D02*
X76958020Y-85196228D01*
X76958020Y-85196228D02*
X77148496Y-85148609D01*
X77148496Y-85148609D02*
X77243734Y-85100990D01*
X77243734Y-85100990D02*
X77291353Y-85053371D01*
X77291353Y-85053371D02*
X77338972Y-84958133D01*
X77338972Y-84958133D02*
X77338972Y-84862895D01*
X77338972Y-84862895D02*
X77291353Y-84767657D01*
X77291353Y-84767657D02*
X77243734Y-84720038D01*
X77243734Y-84720038D02*
X77148496Y-84672419D01*
X77148496Y-84672419D02*
X76910401Y-84672419D01*
X76910401Y-84672419D02*
X76767544Y-84720038D01*
X76338972Y-85148609D02*
X76005639Y-85148609D01*
X75862782Y-85672419D02*
X76338972Y-85672419D01*
X76338972Y-85672419D02*
X76338972Y-84672419D01*
X76338972Y-84672419D02*
X75862782Y-84672419D01*
X75577067Y-84672419D02*
X75005639Y-84672419D01*
X75291353Y-85672419D02*
X75291353Y-84672419D01*
X93338972Y-74172419D02*
X93005639Y-75172419D01*
X93005639Y-75172419D02*
X92672306Y-74172419D01*
X92338972Y-74791466D02*
X91577068Y-74791466D01*
X91958020Y-75172419D02*
X91958020Y-74410514D01*
M02*
