%TF.GenerationSoftware,KiCad,Pcbnew,9.0.2*%
%TF.CreationDate,2025-06-30T23:17:22-04:00*%
%TF.ProjectId,Serv3Controller,53657276-3343-46f6-9e74-726f6c6c6572,rev?*%
%TF.SameCoordinates,Original*%
%TF.FileFunction,Copper,L2,Bot*%
%TF.FilePolarity,Positive*%
%FSLAX46Y46*%
G04 Gerber Fmt 4.6, Leading zero omitted, Abs format (unit mm)*
G04 Created by KiCad (PCBNEW 9.0.2) date 2025-06-30 23:17:22*
%MOMM*%
%LPD*%
G01*
G04 APERTURE LIST*
G04 Aperture macros list*
%AMRoundRect*
0 Rectangle with rounded corners*
0 $1 Rounding radius*
0 $2 $3 $4 $5 $6 $7 $8 $9 X,Y pos of 4 corners*
0 Add a 4 corners polygon primitive as box body*
4,1,4,$2,$3,$4,$5,$6,$7,$8,$9,$2,$3,0*
0 Add four circle primitives for the rounded corners*
1,1,$1+$1,$2,$3*
1,1,$1+$1,$4,$5*
1,1,$1+$1,$6,$7*
1,1,$1+$1,$8,$9*
0 Add four rect primitives between the rounded corners*
20,1,$1+$1,$2,$3,$4,$5,0*
20,1,$1+$1,$4,$5,$6,$7,0*
20,1,$1+$1,$6,$7,$8,$9,0*
20,1,$1+$1,$8,$9,$2,$3,0*%
G04 Aperture macros list end*
%TA.AperFunction,ComponentPad*%
%ADD10RoundRect,0.250000X-0.725000X0.600000X-0.725000X-0.600000X0.725000X-0.600000X0.725000X0.600000X0*%
%TD*%
%TA.AperFunction,ComponentPad*%
%ADD11O,1.950000X1.700000*%
%TD*%
%TA.AperFunction,ComponentPad*%
%ADD12R,1.700000X1.700000*%
%TD*%
%TA.AperFunction,ComponentPad*%
%ADD13C,1.700000*%
%TD*%
%TA.AperFunction,ComponentPad*%
%ADD14RoundRect,0.250000X0.725000X-0.600000X0.725000X0.600000X-0.725000X0.600000X-0.725000X-0.600000X0*%
%TD*%
%TA.AperFunction,ComponentPad*%
%ADD15RoundRect,0.250000X-0.750000X-0.750000X0.750000X-0.750000X0.750000X0.750000X-0.750000X0.750000X0*%
%TD*%
%TA.AperFunction,ComponentPad*%
%ADD16C,2.000000*%
%TD*%
%TA.AperFunction,ViaPad*%
%ADD17C,0.600000*%
%TD*%
%TA.AperFunction,Conductor*%
%ADD18C,0.200000*%
%TD*%
G04 APERTURE END LIST*
D10*
%TO.P,J6,1,Pin_1*%
%TO.N,/RESETB*%
X80800000Y-85300000D03*
D11*
%TO.P,J6,2,Pin_2*%
%TO.N,GND*%
X80800000Y-87800000D03*
%TO.P,J6,3,Pin_3*%
%TO.N,/CAN-*%
X80800000Y-90300000D03*
%TO.P,J6,4,Pin_4*%
%TO.N,/CAN+*%
X80800000Y-92800000D03*
%TO.P,J6,5,Pin_5*%
%TO.N,+3V3*%
X80800000Y-95300000D03*
%TD*%
D12*
%TO.P,J7,1,Pin_1*%
%TO.N,/SRV2_PWM*%
X90160000Y-75900000D03*
D13*
%TO.P,J7,2,Pin_2*%
%TO.N,/VSERVO*%
X92700000Y-75900000D03*
%TO.P,J7,3,Pin_3*%
%TO.N,Net-(J7-Pin_3)*%
X95240000Y-75900000D03*
%TD*%
D14*
%TO.P,J5,1,Pin_1*%
%TO.N,+3V3*%
X106550000Y-95200000D03*
D11*
%TO.P,J5,2,Pin_2*%
%TO.N,/CAN+*%
X106550000Y-92700000D03*
%TO.P,J5,3,Pin_3*%
%TO.N,/CAN-*%
X106550000Y-90200000D03*
%TO.P,J5,4,Pin_4*%
%TO.N,GND*%
X106550000Y-87700000D03*
%TO.P,J5,5,Pin_5*%
%TO.N,/RESETB*%
X106550000Y-85200000D03*
%TD*%
D15*
%TO.P,J2,1,Pin_1*%
%TO.N,GND*%
X97425000Y-98017500D03*
D16*
%TO.P,J2,2,Pin_2*%
%TO.N,/VSERVO*%
X99965000Y-98017500D03*
%TD*%
D12*
%TO.P,J8,1,Pin_1*%
%TO.N,/SRV3_PWM*%
X100600000Y-75900000D03*
D13*
%TO.P,J8,2,Pin_2*%
%TO.N,/VSERVO*%
X103140000Y-75900000D03*
%TO.P,J8,3,Pin_3*%
%TO.N,Net-(J8-Pin_3)*%
X105680000Y-75900000D03*
%TD*%
D12*
%TO.P,J4,1,Pin_1*%
%TO.N,/SRV1_PWM*%
X79760000Y-75962500D03*
D13*
%TO.P,J4,2,Pin_2*%
%TO.N,/VSERVO*%
X82300000Y-75962500D03*
%TO.P,J4,3,Pin_3*%
%TO.N,Net-(J4-Pin_3)*%
X84840000Y-75962500D03*
%TD*%
D15*
%TO.P,J3,1,Pin_1*%
%TO.N,GND*%
X90625000Y-98017500D03*
D16*
%TO.P,J3,2,Pin_2*%
%TO.N,/VSERVO*%
X93165000Y-98017500D03*
%TD*%
D17*
%TO.N,GND*%
X108300000Y-86800000D03*
X86359620Y-86540380D03*
X83400000Y-96400000D03*
X78500000Y-88200000D03*
X104000000Y-87500000D03*
%TO.N,/STATUS*%
X88600000Y-98700000D03*
X93400000Y-90200000D03*
%TO.N,/SRV1_STAT*%
X85300000Y-84600000D03*
X86800000Y-81400000D03*
%TO.N,/SRV3_STAT*%
X96555741Y-88275001D03*
X105704669Y-81585429D03*
%TO.N,/SWCLK*%
X93100000Y-88800000D03*
X93771041Y-83550000D03*
X90419724Y-90483929D03*
X91350000Y-84600000D03*
%TO.N,/SWDIO*%
X96100000Y-90400000D03*
X93745710Y-84850000D03*
%TO.N,/RESETB*%
X90800000Y-86300000D03*
X87109620Y-94009620D03*
%TO.N,Net-(J4-Pin_3)*%
X88100000Y-78800000D03*
%TO.N,/CAN+*%
X102867722Y-91875000D03*
%TO.N,/CAN-*%
X103487489Y-91043285D03*
%TO.N,Net-(J7-Pin_3)*%
X98700000Y-77800000D03*
%TO.N,/SRV2_PWM*%
X90427707Y-87771521D03*
X83000000Y-85900000D03*
%TO.N,Net-(J8-Pin_3)*%
X108900000Y-78200000D03*
%TO.N,/SRV3_PWM*%
X105141682Y-84780957D03*
X97383652Y-86710549D03*
X106500000Y-83300000D03*
%TO.N,/SRV2_EN*%
X91230825Y-88415750D03*
X92900000Y-86500000D03*
%TO.N,/SRV2_SENSE*%
X100600000Y-82200000D03*
X93100000Y-82900000D03*
%TO.N,/SRV3_EN*%
X104736919Y-84033514D03*
X96549231Y-87003617D03*
%TO.N,/SRV3_SENSE*%
X107774466Y-82450000D03*
X95995635Y-87648626D03*
%TD*%
D18*
%TO.N,GND*%
X78500000Y-94752760D02*
X78500000Y-88200000D01*
X80800000Y-87800000D02*
X85100000Y-87800000D01*
X90625000Y-98017500D02*
X89042500Y-99600000D01*
X87700000Y-99600000D02*
X83347240Y-99600000D01*
X85100000Y-87800000D02*
X86359620Y-86540380D01*
X89042500Y-99600000D02*
X87700000Y-99600000D01*
X83347240Y-99600000D02*
X78500000Y-94752760D01*
%TO.N,/VSERVO*%
X103140000Y-75900000D02*
X108140000Y-80900000D01*
X110200000Y-94500000D02*
X106682500Y-98017500D01*
X106682500Y-98017500D02*
X99965000Y-98017500D01*
X110200000Y-82934314D02*
X110200000Y-94500000D01*
X108165686Y-80900000D02*
X110200000Y-82934314D01*
X108140000Y-80900000D02*
X108165686Y-80900000D01*
%TO.N,/STATUS*%
X88600000Y-97152849D02*
X88600000Y-98700000D01*
X93400000Y-90200000D02*
X93400000Y-92352849D01*
X93400000Y-92352849D02*
X88600000Y-97152849D01*
%TO.N,/SRV1_STAT*%
X85300000Y-84600000D02*
X85300000Y-82900000D01*
X85300000Y-82900000D02*
X86800000Y-81400000D01*
%TO.N,/SRV3_STAT*%
X109500000Y-88200000D02*
X109500000Y-82800000D01*
X108600000Y-89100000D02*
X109500000Y-88200000D01*
X97275001Y-88275001D02*
X98100000Y-89100000D01*
X105919240Y-81800000D02*
X105704669Y-81585429D01*
X105897240Y-89100000D02*
X105948240Y-89049000D01*
X96555741Y-88275001D02*
X97275001Y-88275001D01*
X98100000Y-89100000D02*
X105897240Y-89100000D01*
X105948240Y-89049000D02*
X107151760Y-89049000D01*
X109500000Y-82800000D02*
X108500000Y-81800000D01*
X107202760Y-89100000D02*
X108600000Y-89100000D01*
X108500000Y-81800000D02*
X105919240Y-81800000D01*
X107151760Y-89049000D02*
X107202760Y-89100000D01*
%TO.N,/SWCLK*%
X92319239Y-84600000D02*
X93369239Y-83550000D01*
X93369239Y-83550000D02*
X93771041Y-83550000D01*
X90419724Y-90483929D02*
X90803653Y-90100000D01*
X90803653Y-90100000D02*
X91800000Y-90100000D01*
X91800000Y-90100000D02*
X93100000Y-88800000D01*
X91350000Y-84600000D02*
X92319239Y-84600000D01*
%TO.N,/SWDIO*%
X94549999Y-88199389D02*
X93786755Y-87436146D01*
X93786755Y-84891045D02*
X93745710Y-84850000D01*
X96100000Y-90400000D02*
X94550000Y-88850000D01*
X93786755Y-87436146D02*
X93786755Y-84891045D01*
X94550000Y-88850000D02*
X94549999Y-88199389D01*
%TO.N,/RESETB*%
X97634314Y-85200000D02*
X94828635Y-85200000D01*
X94828635Y-85200000D02*
X94423128Y-84794493D01*
X91900000Y-85200000D02*
X90800000Y-86300000D01*
X80198240Y-93951000D02*
X87051000Y-93951000D01*
X94423128Y-84794493D02*
X94423128Y-84520180D01*
X90800000Y-86300000D02*
X89800000Y-85300000D01*
X89800000Y-85300000D02*
X80800000Y-85300000D01*
X105006158Y-83383514D02*
X99450800Y-83383514D01*
X92409310Y-85200000D02*
X91900000Y-85200000D01*
X106550000Y-84150000D02*
X106480761Y-84080761D01*
X106480761Y-84080761D02*
X105703405Y-84080761D01*
X80800000Y-85300000D02*
X79524000Y-86576000D01*
X105703405Y-84080761D02*
X105006158Y-83383514D01*
X79524000Y-86576000D02*
X79524000Y-93276760D01*
X94423128Y-84520180D02*
X94056702Y-84153754D01*
X79524000Y-93276760D02*
X80198240Y-93951000D01*
X99450800Y-83383514D02*
X97634314Y-85200000D01*
X93455556Y-84153754D02*
X92409310Y-85200000D01*
X94056702Y-84153754D02*
X93455556Y-84153754D01*
X106550000Y-85200000D02*
X106550000Y-84150000D01*
X87051000Y-93951000D02*
X87109620Y-94009620D01*
%TO.N,Net-(J4-Pin_3)*%
X84840000Y-75962500D02*
X87677500Y-78800000D01*
X87677500Y-78800000D02*
X88100000Y-78800000D01*
%TO.N,/CAN+*%
X93369239Y-88150000D02*
X92830761Y-88150000D01*
X104550000Y-91675000D02*
X105575000Y-92700000D01*
X92830761Y-88150000D02*
X92450000Y-88530761D01*
X92450000Y-88530761D02*
X92450000Y-88784314D01*
X83939613Y-89535387D02*
X80800000Y-92675000D01*
X93750000Y-88530761D02*
X93369239Y-88150000D01*
X93750000Y-89668198D02*
X93750000Y-88530761D01*
X93750000Y-89668198D02*
X95756802Y-91675000D01*
X105575000Y-92700000D02*
X106550000Y-92700000D01*
X95756802Y-91675000D02*
X104550000Y-91675000D01*
X80800000Y-92675000D02*
X80800000Y-92800000D01*
X91698927Y-89535387D02*
X83939613Y-89535387D01*
X92450000Y-88784314D02*
X91698927Y-89535387D01*
%TO.N,/CAN-*%
X95943198Y-91225000D02*
X104550000Y-91225000D01*
X92050000Y-88365076D02*
X92050000Y-88569239D01*
X104550000Y-91225000D02*
X105575000Y-90200000D01*
X105575000Y-90200000D02*
X106550000Y-90200000D01*
X94150000Y-88365075D02*
X93534924Y-87750000D01*
X91483852Y-89135387D02*
X90716148Y-89135387D01*
X103381715Y-91043285D02*
X103487489Y-91043285D01*
X94150000Y-89431802D02*
X95943198Y-91225000D01*
X90455761Y-88875000D02*
X82100000Y-88875000D01*
X106550000Y-90200000D02*
X106425000Y-90200000D01*
X92665075Y-87750000D02*
X92050000Y-88365076D01*
X80800000Y-90175000D02*
X80800000Y-90300000D01*
X90716148Y-89135387D02*
X90455761Y-88875000D01*
X94150000Y-89431802D02*
X94150000Y-88365075D01*
X92050000Y-88569239D02*
X91483852Y-89135387D01*
X103300000Y-91125000D02*
X103381715Y-91043285D01*
X93534924Y-87750000D02*
X92665075Y-87750000D01*
X82100000Y-88875000D02*
X80800000Y-90175000D01*
%TO.N,Net-(J7-Pin_3)*%
X98700000Y-77800000D02*
X98500000Y-77600000D01*
X96940000Y-77600000D02*
X95240000Y-75900000D01*
X98500000Y-77600000D02*
X96940000Y-77600000D01*
%TO.N,/SRV2_PWM*%
X83000000Y-85900000D02*
X88300000Y-85900000D01*
X88300000Y-85900000D02*
X90171521Y-87771521D01*
X90171521Y-87771521D02*
X90427707Y-87771521D01*
%TO.N,Net-(J8-Pin_3)*%
X108900000Y-78200000D02*
X107980000Y-78200000D01*
X107980000Y-78200000D02*
X105680000Y-75900000D01*
%TO.N,/SRV3_PWM*%
X100600000Y-77400000D02*
X100600000Y-75900000D01*
X106500000Y-83300000D02*
X100600000Y-77400000D01*
X98900000Y-85300000D02*
X104622639Y-85300000D01*
X97489451Y-86710549D02*
X98900000Y-85300000D01*
X104622639Y-85300000D02*
X105141682Y-84780957D01*
X97383652Y-86710549D02*
X97489451Y-86710549D01*
%TO.N,/SRV2_EN*%
X92900000Y-86500000D02*
X91230825Y-88169175D01*
X91230825Y-88169175D02*
X91230825Y-88415750D01*
%TO.N,/SRV2_SENSE*%
X99900000Y-82900000D02*
X100600000Y-82200000D01*
X93100000Y-82900000D02*
X99900000Y-82900000D01*
%TO.N,/SRV3_EN*%
X99366486Y-84033514D02*
X104736919Y-84033514D01*
X97330761Y-85750000D02*
X97650000Y-85750000D01*
X96549231Y-86531530D02*
X97330761Y-85750000D01*
X97650000Y-85750000D02*
X99366486Y-84033514D01*
X96549231Y-87003617D02*
X96549231Y-86531530D01*
%TO.N,/SRV3_SENSE*%
X107826000Y-82501534D02*
X107826000Y-85676760D01*
X97538900Y-87648626D02*
X95995635Y-87648626D01*
X107826000Y-85676760D02*
X107151760Y-86351000D01*
X107774466Y-82450000D02*
X107826000Y-82501534D01*
X98836526Y-86351000D02*
X97538900Y-87648626D01*
X107151760Y-86351000D02*
X98836526Y-86351000D01*
%TD*%
%TA.AperFunction,Conductor*%
%TO.N,GND*%
G36*
X105155929Y-86971185D02*
G01*
X105201684Y-87023989D01*
X105211628Y-87093147D01*
X105199374Y-87131796D01*
X105173905Y-87181780D01*
X105108242Y-87383870D01*
X105108242Y-87383873D01*
X105097769Y-87450000D01*
X106145854Y-87450000D01*
X106107370Y-87516657D01*
X106075000Y-87637465D01*
X106075000Y-87762535D01*
X106107370Y-87883343D01*
X106145854Y-87950000D01*
X105097769Y-87950000D01*
X105108242Y-88016126D01*
X105108242Y-88016129D01*
X105173904Y-88218217D01*
X105225361Y-88319205D01*
X105238257Y-88387874D01*
X105211981Y-88452614D01*
X105154875Y-88492872D01*
X105114876Y-88499500D01*
X98400098Y-88499500D01*
X98333059Y-88479815D01*
X98312417Y-88463181D01*
X98207089Y-88357853D01*
X98030677Y-88181442D01*
X97997193Y-88120120D01*
X98002177Y-88050429D01*
X98030676Y-88006083D01*
X99048942Y-86987819D01*
X99110265Y-86954334D01*
X99136623Y-86951500D01*
X105088890Y-86951500D01*
X105155929Y-86971185D01*
G37*
%TD.AperFunction*%
%TA.AperFunction,Conductor*%
G36*
X108664422Y-82813907D02*
G01*
X108669240Y-82818475D01*
X108863181Y-83012416D01*
X108896666Y-83073739D01*
X108899500Y-83100097D01*
X108899500Y-87899903D01*
X108879815Y-87966942D01*
X108863181Y-87987584D01*
X108387584Y-88463181D01*
X108326261Y-88496666D01*
X108299903Y-88499500D01*
X107985124Y-88499500D01*
X107918085Y-88479815D01*
X107872330Y-88427011D01*
X107862386Y-88357853D01*
X107874639Y-88319205D01*
X107926095Y-88218217D01*
X107991757Y-88016129D01*
X107991757Y-88016126D01*
X108002231Y-87950000D01*
X106954146Y-87950000D01*
X106992630Y-87883343D01*
X107025000Y-87762535D01*
X107025000Y-87637465D01*
X106992630Y-87516657D01*
X106954146Y-87450000D01*
X108002231Y-87450000D01*
X107991757Y-87383873D01*
X107991757Y-87383870D01*
X107926095Y-87181782D01*
X107829620Y-86992442D01*
X107704727Y-86820540D01*
X107701565Y-86816838D01*
X107702666Y-86815896D01*
X107672287Y-86760261D01*
X107677271Y-86690569D01*
X107705772Y-86646222D01*
X107941706Y-86410288D01*
X108184506Y-86167488D01*
X108184511Y-86167484D01*
X108194714Y-86157280D01*
X108194716Y-86157280D01*
X108306520Y-86045476D01*
X108385577Y-85908544D01*
X108426500Y-85755817D01*
X108426500Y-82952639D01*
X108431827Y-82934495D01*
X108432165Y-82915586D01*
X108445665Y-82887368D01*
X108446185Y-82885600D01*
X108447398Y-82883748D01*
X108478457Y-82837265D01*
X108532069Y-82792460D01*
X108601394Y-82783753D01*
X108664422Y-82813907D01*
G37*
%TD.AperFunction*%
%TA.AperFunction,Conductor*%
G36*
X82313022Y-86321813D02*
G01*
X82336674Y-86348126D01*
X82378210Y-86410288D01*
X82378213Y-86410292D01*
X82489707Y-86521786D01*
X82489711Y-86521789D01*
X82620814Y-86609390D01*
X82620827Y-86609397D01*
X82766498Y-86669735D01*
X82766503Y-86669737D01*
X82871232Y-86690569D01*
X82921153Y-86700499D01*
X82921156Y-86700500D01*
X82921158Y-86700500D01*
X83078844Y-86700500D01*
X83078845Y-86700499D01*
X83233497Y-86669737D01*
X83379179Y-86609394D01*
X83415966Y-86584814D01*
X83510875Y-86521398D01*
X83577553Y-86500520D01*
X83579766Y-86500500D01*
X87999903Y-86500500D01*
X88066942Y-86520185D01*
X88087584Y-86536819D01*
X89613584Y-88062819D01*
X89647069Y-88124142D01*
X89642085Y-88193834D01*
X89600213Y-88249767D01*
X89534749Y-88274184D01*
X89525903Y-88274500D01*
X82360971Y-88274500D01*
X82293932Y-88254815D01*
X82248177Y-88202011D01*
X82238233Y-88132853D01*
X82240998Y-88120967D01*
X82240618Y-88120876D01*
X82241758Y-88116124D01*
X82252231Y-88050000D01*
X81204146Y-88050000D01*
X81242630Y-87983343D01*
X81275000Y-87862535D01*
X81275000Y-87737465D01*
X81242630Y-87616657D01*
X81204146Y-87550000D01*
X82252231Y-87550000D01*
X82241757Y-87483873D01*
X82241757Y-87483870D01*
X82176095Y-87281782D01*
X82079620Y-87092442D01*
X81954727Y-86920540D01*
X81954723Y-86920535D01*
X81815856Y-86781668D01*
X81782371Y-86720345D01*
X81787355Y-86650653D01*
X81829227Y-86594720D01*
X81838441Y-86588448D01*
X81844331Y-86584814D01*
X81844334Y-86584814D01*
X81993656Y-86492712D01*
X82117712Y-86368656D01*
X82128032Y-86351923D01*
X82179976Y-86305198D01*
X82248939Y-86293973D01*
X82313022Y-86321813D01*
G37*
%TD.AperFunction*%
%TA.AperFunction,Conductor*%
G36*
X114442539Y-74120185D02*
G01*
X114488294Y-74172989D01*
X114499500Y-74224500D01*
X114499500Y-102575500D01*
X114479815Y-102642539D01*
X114427011Y-102688294D01*
X114375500Y-102699500D01*
X73224500Y-102699500D01*
X73157461Y-102679815D01*
X73111706Y-102627011D01*
X73100500Y-102575500D01*
X73100500Y-100597648D01*
X73799500Y-100597648D01*
X73799500Y-100802351D01*
X73831522Y-101004534D01*
X73894781Y-101199223D01*
X73987715Y-101381613D01*
X74108028Y-101547213D01*
X74252786Y-101691971D01*
X74407749Y-101804556D01*
X74418390Y-101812287D01*
X74534607Y-101871503D01*
X74600776Y-101905218D01*
X74600778Y-101905218D01*
X74600781Y-101905220D01*
X74705137Y-101939127D01*
X74795465Y-101968477D01*
X74896557Y-101984488D01*
X74997648Y-102000500D01*
X74997649Y-102000500D01*
X75202351Y-102000500D01*
X75202352Y-102000500D01*
X75404534Y-101968477D01*
X75599219Y-101905220D01*
X75781610Y-101812287D01*
X75874590Y-101744732D01*
X75947213Y-101691971D01*
X75947215Y-101691968D01*
X75947219Y-101691966D01*
X76091966Y-101547219D01*
X76091968Y-101547215D01*
X76091971Y-101547213D01*
X76144732Y-101474590D01*
X76212287Y-101381610D01*
X76305220Y-101199219D01*
X76368477Y-101004534D01*
X76400500Y-100802352D01*
X76400500Y-100597648D01*
X111199500Y-100597648D01*
X111199500Y-100802351D01*
X111231522Y-101004534D01*
X111294781Y-101199223D01*
X111387715Y-101381613D01*
X111508028Y-101547213D01*
X111652786Y-101691971D01*
X111807749Y-101804556D01*
X111818390Y-101812287D01*
X111934607Y-101871503D01*
X112000776Y-101905218D01*
X112000778Y-101905218D01*
X112000781Y-101905220D01*
X112105137Y-101939127D01*
X112195465Y-101968477D01*
X112296557Y-101984488D01*
X112397648Y-102000500D01*
X112397649Y-102000500D01*
X112602351Y-102000500D01*
X112602352Y-102000500D01*
X112804534Y-101968477D01*
X112999219Y-101905220D01*
X113181610Y-101812287D01*
X113274590Y-101744732D01*
X113347213Y-101691971D01*
X113347215Y-101691968D01*
X113347219Y-101691966D01*
X113491966Y-101547219D01*
X113491968Y-101547215D01*
X113491971Y-101547213D01*
X113544732Y-101474590D01*
X113612287Y-101381610D01*
X113705220Y-101199219D01*
X113768477Y-101004534D01*
X113800500Y-100802352D01*
X113800500Y-100597648D01*
X113768477Y-100395466D01*
X113705220Y-100200781D01*
X113705218Y-100200778D01*
X113705218Y-100200776D01*
X113671503Y-100134607D01*
X113612287Y-100018390D01*
X113604556Y-100007749D01*
X113491971Y-99852786D01*
X113347213Y-99708028D01*
X113181613Y-99587715D01*
X113181612Y-99587714D01*
X113181610Y-99587713D01*
X113124653Y-99558691D01*
X112999223Y-99494781D01*
X112804534Y-99431522D01*
X112629995Y-99403878D01*
X112602352Y-99399500D01*
X112397648Y-99399500D01*
X112373329Y-99403351D01*
X112195465Y-99431522D01*
X112000776Y-99494781D01*
X111818386Y-99587715D01*
X111652786Y-99708028D01*
X111508028Y-99852786D01*
X111387715Y-100018386D01*
X111294781Y-100200776D01*
X111231522Y-100395465D01*
X111199500Y-100597648D01*
X76400500Y-100597648D01*
X76368477Y-100395466D01*
X76305220Y-100200781D01*
X76305218Y-100200778D01*
X76305218Y-100200776D01*
X76271503Y-100134607D01*
X76212287Y-100018390D01*
X76204556Y-100007749D01*
X76091971Y-99852786D01*
X75947213Y-99708028D01*
X75781613Y-99587715D01*
X75781612Y-99587714D01*
X75781610Y-99587713D01*
X75724653Y-99558691D01*
X75599223Y-99494781D01*
X75404534Y-99431522D01*
X75229995Y-99403878D01*
X75202352Y-99399500D01*
X74997648Y-99399500D01*
X74973329Y-99403351D01*
X74795465Y-99431522D01*
X74600776Y-99494781D01*
X74418386Y-99587715D01*
X74252786Y-99708028D01*
X74108028Y-99852786D01*
X73987715Y-100018386D01*
X73894781Y-100200776D01*
X73831522Y-100395465D01*
X73799500Y-100597648D01*
X73100500Y-100597648D01*
X73100500Y-93355814D01*
X78923498Y-93355814D01*
X78964423Y-93508545D01*
X78992813Y-93557716D01*
X78992814Y-93557720D01*
X78992815Y-93557720D01*
X79043479Y-93645474D01*
X79043481Y-93645477D01*
X79162349Y-93764345D01*
X79162355Y-93764350D01*
X79643873Y-94245868D01*
X79677358Y-94307191D01*
X79672374Y-94376883D01*
X79647315Y-94415882D01*
X79648053Y-94416512D01*
X79644890Y-94420213D01*
X79519951Y-94592179D01*
X79423444Y-94781585D01*
X79357753Y-94983760D01*
X79324500Y-95193713D01*
X79324500Y-95406286D01*
X79357753Y-95616239D01*
X79423444Y-95818414D01*
X79519951Y-96007820D01*
X79644890Y-96179786D01*
X79795213Y-96330109D01*
X79967179Y-96455048D01*
X79967181Y-96455049D01*
X79967184Y-96455051D01*
X80156588Y-96551557D01*
X80358757Y-96617246D01*
X80568713Y-96650500D01*
X80568714Y-96650500D01*
X81031286Y-96650500D01*
X81031287Y-96650500D01*
X81241243Y-96617246D01*
X81443412Y-96551557D01*
X81632816Y-96455051D01*
X81741115Y-96376368D01*
X81804786Y-96330109D01*
X81804788Y-96330106D01*
X81804792Y-96330104D01*
X81955104Y-96179792D01*
X81955106Y-96179788D01*
X81955109Y-96179786D01*
X82080048Y-96007820D01*
X82080047Y-96007820D01*
X82080051Y-96007816D01*
X82176557Y-95818412D01*
X82242246Y-95616243D01*
X82275500Y-95406287D01*
X82275500Y-95193713D01*
X82242246Y-94983757D01*
X82176557Y-94781588D01*
X82151185Y-94731794D01*
X82138290Y-94663126D01*
X82164566Y-94598386D01*
X82221672Y-94558128D01*
X82261671Y-94551500D01*
X86468060Y-94551500D01*
X86535099Y-94571185D01*
X86555742Y-94587820D01*
X86599327Y-94631406D01*
X86599331Y-94631409D01*
X86730434Y-94719010D01*
X86730447Y-94719017D01*
X86876118Y-94779355D01*
X86876123Y-94779357D01*
X87030773Y-94810119D01*
X87030776Y-94810120D01*
X87030778Y-94810120D01*
X87188464Y-94810120D01*
X87188465Y-94810119D01*
X87343117Y-94779357D01*
X87488799Y-94719014D01*
X87619909Y-94631409D01*
X87731409Y-94519909D01*
X87819014Y-94388799D01*
X87879357Y-94243117D01*
X87910120Y-94088462D01*
X87910120Y-93930778D01*
X87910120Y-93930775D01*
X87910119Y-93930773D01*
X87879357Y-93776123D01*
X87874481Y-93764350D01*
X87819017Y-93630447D01*
X87819010Y-93630434D01*
X87731409Y-93499331D01*
X87731406Y-93499327D01*
X87619912Y-93387833D01*
X87619908Y-93387830D01*
X87488805Y-93300229D01*
X87488792Y-93300222D01*
X87343121Y-93239884D01*
X87343109Y-93239881D01*
X87188465Y-93209120D01*
X87188462Y-93209120D01*
X87030778Y-93209120D01*
X87030775Y-93209120D01*
X86876130Y-93239881D01*
X86876118Y-93239884D01*
X86730447Y-93300222D01*
X86730432Y-93300230D01*
X86686478Y-93329601D01*
X86619801Y-93350480D01*
X86617586Y-93350500D01*
X82336802Y-93350500D01*
X82269763Y-93330815D01*
X82224008Y-93278011D01*
X82214064Y-93208853D01*
X82218871Y-93188182D01*
X82242246Y-93116243D01*
X82275500Y-92906287D01*
X82275500Y-92693713D01*
X82242246Y-92483757D01*
X82176557Y-92281588D01*
X82172256Y-92273146D01*
X82159361Y-92204477D01*
X82185639Y-92139737D01*
X82195052Y-92129181D01*
X82397693Y-91926540D01*
X85714200Y-91926540D01*
X85714200Y-92073459D01*
X85740261Y-92204477D01*
X85742860Y-92217542D01*
X85749916Y-92234576D01*
X85799078Y-92353266D01*
X85799083Y-92353275D01*
X85880698Y-92475419D01*
X85880701Y-92475423D01*
X85984576Y-92579298D01*
X85984580Y-92579301D01*
X86106724Y-92660916D01*
X86106730Y-92660919D01*
X86106731Y-92660920D01*
X86242458Y-92717140D01*
X86386540Y-92745799D01*
X86386544Y-92745800D01*
X86386545Y-92745800D01*
X86533456Y-92745800D01*
X86533457Y-92745799D01*
X86677542Y-92717140D01*
X86813269Y-92660920D01*
X86935420Y-92579301D01*
X87039301Y-92475420D01*
X87120920Y-92353269D01*
X87177140Y-92217542D01*
X87205800Y-92073455D01*
X87205800Y-91926545D01*
X87177140Y-91782458D01*
X87120920Y-91646731D01*
X87120919Y-91646730D01*
X87120916Y-91646724D01*
X87039301Y-91524580D01*
X87039298Y-91524576D01*
X86935423Y-91420701D01*
X86935419Y-91420698D01*
X86813275Y-91339083D01*
X86813266Y-91339078D01*
X86677544Y-91282861D01*
X86677545Y-91282861D01*
X86677542Y-91282860D01*
X86677538Y-91282859D01*
X86677534Y-91282858D01*
X86533459Y-91254200D01*
X86533455Y-91254200D01*
X86386545Y-91254200D01*
X86386540Y-91254200D01*
X86242465Y-91282858D01*
X86242455Y-91282861D01*
X86106733Y-91339078D01*
X86106724Y-91339083D01*
X85984580Y-91420698D01*
X85984576Y-91420701D01*
X85880701Y-91524576D01*
X85880698Y-91524580D01*
X85799083Y-91646724D01*
X85799078Y-91646733D01*
X85742861Y-91782455D01*
X85742858Y-91782465D01*
X85714200Y-91926540D01*
X82397693Y-91926540D01*
X84152029Y-90172206D01*
X84213352Y-90138721D01*
X84239710Y-90135887D01*
X89521677Y-90135887D01*
X89588716Y-90155572D01*
X89634471Y-90208376D01*
X89644415Y-90277534D01*
X89643294Y-90284079D01*
X89619224Y-90405084D01*
X89619224Y-90562775D01*
X89649985Y-90717418D01*
X89649988Y-90717430D01*
X89710326Y-90863101D01*
X89710333Y-90863114D01*
X89797934Y-90994217D01*
X89797937Y-90994221D01*
X89909431Y-91105715D01*
X89909435Y-91105718D01*
X90040538Y-91193319D01*
X90040551Y-91193326D01*
X90186222Y-91253664D01*
X90186227Y-91253666D01*
X90332984Y-91282858D01*
X90340877Y-91284428D01*
X90340880Y-91284429D01*
X90340882Y-91284429D01*
X90498568Y-91284429D01*
X90498569Y-91284428D01*
X90653221Y-91253666D01*
X90701884Y-91233508D01*
X90771354Y-91226040D01*
X90833833Y-91257315D01*
X90863898Y-91300617D01*
X90879078Y-91337265D01*
X90879083Y-91337275D01*
X90960698Y-91459419D01*
X90960701Y-91459423D01*
X91064576Y-91563298D01*
X91064580Y-91563301D01*
X91186724Y-91644916D01*
X91186730Y-91644919D01*
X91186731Y-91644920D01*
X91322458Y-91701140D01*
X91466540Y-91729799D01*
X91466544Y-91729800D01*
X91466545Y-91729800D01*
X91613456Y-91729800D01*
X91613457Y-91729799D01*
X91757542Y-91701140D01*
X91893269Y-91644920D01*
X92015420Y-91563301D01*
X92119301Y-91459420D01*
X92200920Y-91337269D01*
X92257140Y-91201542D01*
X92285800Y-91057455D01*
X92285800Y-90910545D01*
X92257140Y-90766458D01*
X92236832Y-90717430D01*
X92208488Y-90649000D01*
X92206351Y-90629125D01*
X92199365Y-90610396D01*
X92202692Y-90595097D01*
X92201019Y-90579531D01*
X92209967Y-90561654D01*
X92214216Y-90542123D01*
X92230901Y-90519833D01*
X92232294Y-90517052D01*
X92235311Y-90513924D01*
X92280520Y-90468716D01*
X92280521Y-90468713D01*
X92414042Y-90335192D01*
X92475362Y-90301709D01*
X92545054Y-90306693D01*
X92600987Y-90348565D01*
X92623337Y-90398682D01*
X92630261Y-90433492D01*
X92630264Y-90433501D01*
X92690602Y-90579172D01*
X92690609Y-90579185D01*
X92778602Y-90710874D01*
X92799480Y-90777551D01*
X92799500Y-90779765D01*
X92799500Y-92052751D01*
X92779815Y-92119790D01*
X92763181Y-92140432D01*
X92323766Y-92579846D01*
X92262443Y-92613331D01*
X92192751Y-92608347D01*
X92136818Y-92566475D01*
X92132983Y-92561056D01*
X92119301Y-92540580D01*
X92119298Y-92540576D01*
X92015423Y-92436701D01*
X92015419Y-92436698D01*
X91893275Y-92355083D01*
X91893266Y-92355078D01*
X91757544Y-92298861D01*
X91757545Y-92298861D01*
X91757542Y-92298860D01*
X91757538Y-92298859D01*
X91757534Y-92298858D01*
X91613459Y-92270200D01*
X91613455Y-92270200D01*
X91466545Y-92270200D01*
X91466540Y-92270200D01*
X91322465Y-92298858D01*
X91322455Y-92298861D01*
X91186733Y-92355078D01*
X91186724Y-92355083D01*
X91064580Y-92436698D01*
X91064576Y-92436701D01*
X90960701Y-92540576D01*
X90960698Y-92540580D01*
X90879083Y-92662724D01*
X90879078Y-92662733D01*
X90822861Y-92798455D01*
X90822858Y-92798465D01*
X90794200Y-92942540D01*
X90794200Y-93089459D01*
X90822858Y-93233534D01*
X90822861Y-93233544D01*
X90879078Y-93369266D01*
X90879083Y-93369275D01*
X90960698Y-93491419D01*
X90960701Y-93491423D01*
X91064576Y-93595298D01*
X91064580Y-93595301D01*
X91085056Y-93608983D01*
X91129861Y-93662595D01*
X91138568Y-93731920D01*
X91108414Y-93794948D01*
X91103846Y-93799766D01*
X88231286Y-96672327D01*
X88119481Y-96784131D01*
X88119479Y-96784134D01*
X88069361Y-96870943D01*
X88069359Y-96870945D01*
X88040425Y-96921058D01*
X88040424Y-96921059D01*
X88024544Y-96980321D01*
X87999499Y-97073792D01*
X87999499Y-97073794D01*
X87999499Y-97241895D01*
X87999500Y-97241908D01*
X87999500Y-98120234D01*
X87979815Y-98187273D01*
X87978602Y-98189125D01*
X87890609Y-98320814D01*
X87890602Y-98320827D01*
X87830264Y-98466498D01*
X87830261Y-98466510D01*
X87799500Y-98621153D01*
X87799500Y-98778846D01*
X87830261Y-98933489D01*
X87830264Y-98933501D01*
X87890602Y-99079172D01*
X87890609Y-99079185D01*
X87978210Y-99210288D01*
X87978213Y-99210292D01*
X88089707Y-99321786D01*
X88089711Y-99321789D01*
X88220814Y-99409390D01*
X88220827Y-99409397D01*
X88366498Y-99469735D01*
X88366503Y-99469737D01*
X88492402Y-99494780D01*
X88521153Y-99500499D01*
X88521156Y-99500500D01*
X88521158Y-99500500D01*
X88678844Y-99500500D01*
X88678845Y-99500499D01*
X88833497Y-99469737D01*
X88979179Y-99409394D01*
X89110289Y-99321789D01*
X89151777Y-99280300D01*
X89213097Y-99246815D01*
X89282789Y-99251798D01*
X89327139Y-99280300D01*
X89406654Y-99359815D01*
X89555875Y-99451856D01*
X89555880Y-99451858D01*
X89722302Y-99507005D01*
X89722309Y-99507006D01*
X89825019Y-99517499D01*
X90374999Y-99517499D01*
X90375000Y-99517498D01*
X90375000Y-98565982D01*
X90393409Y-98576611D01*
X90546009Y-98617500D01*
X90703991Y-98617500D01*
X90856591Y-98576611D01*
X90875000Y-98565982D01*
X90875000Y-99517499D01*
X91424972Y-99517499D01*
X91424986Y-99517498D01*
X91527697Y-99507005D01*
X91694119Y-99451858D01*
X91694124Y-99451856D01*
X91843345Y-99359815D01*
X91967317Y-99235843D01*
X91997148Y-99187480D01*
X92049096Y-99140755D01*
X92118058Y-99129532D01*
X92182141Y-99157376D01*
X92183773Y-99158867D01*
X92183786Y-99158853D01*
X92187481Y-99162008D01*
X92187490Y-99162017D01*
X92378567Y-99300843D01*
X92419672Y-99321787D01*
X92589003Y-99408066D01*
X92589005Y-99408066D01*
X92589008Y-99408068D01*
X92661192Y-99431522D01*
X92813631Y-99481053D01*
X93046903Y-99518000D01*
X93046908Y-99518000D01*
X93283097Y-99518000D01*
X93516368Y-99481053D01*
X93551201Y-99469735D01*
X93740992Y-99408068D01*
X93951433Y-99300843D01*
X94142510Y-99162017D01*
X94309517Y-98995010D01*
X94448343Y-98803933D01*
X94555568Y-98593492D01*
X94628553Y-98368868D01*
X94647524Y-98249091D01*
X94655816Y-98196740D01*
X94665500Y-98135597D01*
X94665500Y-97899402D01*
X94628553Y-97666131D01*
X94555566Y-97441503D01*
X94468516Y-97270659D01*
X94448343Y-97231067D01*
X94309517Y-97039990D01*
X94142510Y-96872983D01*
X93951433Y-96734157D01*
X93740996Y-96626933D01*
X93516368Y-96553946D01*
X93283097Y-96517000D01*
X93283092Y-96517000D01*
X93046908Y-96517000D01*
X93046903Y-96517000D01*
X92813631Y-96553946D01*
X92589003Y-96626933D01*
X92378566Y-96734157D01*
X92289105Y-96799155D01*
X92187490Y-96872983D01*
X92187488Y-96872985D01*
X92183786Y-96876147D01*
X92182375Y-96874495D01*
X92128938Y-96903612D01*
X92059251Y-96898566D01*
X92003354Y-96856646D01*
X91997149Y-96847520D01*
X91967319Y-96799159D01*
X91967316Y-96799155D01*
X91843345Y-96675184D01*
X91694124Y-96583143D01*
X91694119Y-96583141D01*
X91527697Y-96527994D01*
X91527690Y-96527993D01*
X91424986Y-96517500D01*
X90875000Y-96517500D01*
X90875000Y-97469017D01*
X90856591Y-97458389D01*
X90703991Y-97417500D01*
X90546009Y-97417500D01*
X90393409Y-97458389D01*
X90375000Y-97469017D01*
X90375000Y-96534497D01*
X90317748Y-96498353D01*
X90317402Y-96497961D01*
X90316905Y-96497815D01*
X90294378Y-96471817D01*
X90271569Y-96445919D01*
X90271490Y-96445404D01*
X90271150Y-96445011D01*
X90266243Y-96410889D01*
X90261068Y-96376843D01*
X90261280Y-96376368D01*
X90261206Y-96375853D01*
X90275513Y-96344522D01*
X90289579Y-96313055D01*
X90290015Y-96312769D01*
X90290231Y-96312297D01*
X90296239Y-96305844D01*
X93758506Y-92843576D01*
X93758511Y-92843573D01*
X93768714Y-92833369D01*
X93768716Y-92833369D01*
X93880520Y-92721565D01*
X93948441Y-92603922D01*
X93959577Y-92584634D01*
X94000500Y-92431906D01*
X94000500Y-92273792D01*
X94000500Y-91067295D01*
X94020185Y-91000256D01*
X94072989Y-90954501D01*
X94142147Y-90944557D01*
X94205703Y-90973582D01*
X94212178Y-90979611D01*
X95388086Y-92155520D01*
X95388088Y-92155521D01*
X95388092Y-92155524D01*
X95525011Y-92234573D01*
X95525018Y-92234577D01*
X95677745Y-92275501D01*
X95677747Y-92275501D01*
X95843456Y-92275501D01*
X95843472Y-92275500D01*
X102106295Y-92275500D01*
X102173334Y-92295185D01*
X102209397Y-92330610D01*
X102245929Y-92385284D01*
X102245935Y-92385292D01*
X102357429Y-92496786D01*
X102357433Y-92496789D01*
X102488536Y-92584390D01*
X102488549Y-92584397D01*
X102634220Y-92644735D01*
X102634225Y-92644737D01*
X102788875Y-92675499D01*
X102788878Y-92675500D01*
X102788880Y-92675500D01*
X102946566Y-92675500D01*
X102946567Y-92675499D01*
X103101219Y-92644737D01*
X103246901Y-92584394D01*
X103378011Y-92496789D01*
X103489511Y-92385289D01*
X103509696Y-92355080D01*
X103526047Y-92330610D01*
X103579659Y-92285804D01*
X103629149Y-92275500D01*
X104249903Y-92275500D01*
X104316942Y-92295185D01*
X104337584Y-92311819D01*
X105094478Y-93068713D01*
X105094480Y-93068716D01*
X105118350Y-93092586D01*
X105118358Y-93092601D01*
X105148596Y-93141944D01*
X105164246Y-93190108D01*
X105173444Y-93218415D01*
X105269951Y-93407820D01*
X105394890Y-93579786D01*
X105533705Y-93718601D01*
X105567190Y-93779924D01*
X105562206Y-93849616D01*
X105520334Y-93905549D01*
X105511121Y-93911821D01*
X105356342Y-94007289D01*
X105232289Y-94131342D01*
X105140187Y-94280663D01*
X105140186Y-94280666D01*
X105085001Y-94447203D01*
X105085001Y-94447204D01*
X105085000Y-94447204D01*
X105074500Y-94549983D01*
X105074500Y-95850001D01*
X105074501Y-95850018D01*
X105085000Y-95952796D01*
X105085001Y-95952799D01*
X105140185Y-96119331D01*
X105140186Y-96119334D01*
X105232288Y-96268656D01*
X105356344Y-96392712D01*
X105505666Y-96484814D01*
X105672203Y-96539999D01*
X105774991Y-96550500D01*
X107000903Y-96550499D01*
X107067942Y-96570184D01*
X107113697Y-96622987D01*
X107123641Y-96692146D01*
X107094616Y-96755702D01*
X107088584Y-96762180D01*
X106470084Y-97380681D01*
X106408761Y-97414166D01*
X106382403Y-97417000D01*
X101419068Y-97417000D01*
X101352029Y-97397315D01*
X101308583Y-97349295D01*
X101268516Y-97270659D01*
X101248343Y-97231067D01*
X101109517Y-97039990D01*
X100942510Y-96872983D01*
X100751433Y-96734157D01*
X100540996Y-96626933D01*
X100316368Y-96553946D01*
X100083097Y-96517000D01*
X100083092Y-96517000D01*
X99846908Y-96517000D01*
X99846903Y-96517000D01*
X99613631Y-96553946D01*
X99389003Y-96626933D01*
X99178566Y-96734157D01*
X99089105Y-96799155D01*
X98987490Y-96872983D01*
X98987488Y-96872985D01*
X98983786Y-96876147D01*
X98982375Y-96874495D01*
X98928938Y-96903612D01*
X98859251Y-96898566D01*
X98803354Y-96856646D01*
X98797149Y-96847520D01*
X98767319Y-96799159D01*
X98767316Y-96799155D01*
X98643345Y-96675184D01*
X98494124Y-96583143D01*
X98494119Y-96583141D01*
X98327697Y-96527994D01*
X98327690Y-96527993D01*
X98224986Y-96517500D01*
X97675000Y-96517500D01*
X97675000Y-97469017D01*
X97656591Y-97458389D01*
X97503991Y-97417500D01*
X97346009Y-97417500D01*
X97193409Y-97458389D01*
X97175000Y-97469017D01*
X97175000Y-96517500D01*
X96625028Y-96517500D01*
X96625012Y-96517501D01*
X96522302Y-96527994D01*
X96355880Y-96583141D01*
X96355875Y-96583143D01*
X96206654Y-96675184D01*
X96082684Y-96799154D01*
X95990643Y-96948375D01*
X95990641Y-96948380D01*
X95935494Y-97114802D01*
X95935493Y-97114809D01*
X95925000Y-97217513D01*
X95925000Y-97767500D01*
X96876518Y-97767500D01*
X96865889Y-97785909D01*
X96825000Y-97938509D01*
X96825000Y-98096491D01*
X96865889Y-98249091D01*
X96876518Y-98267500D01*
X95925001Y-98267500D01*
X95925001Y-98817486D01*
X95935494Y-98920197D01*
X95990641Y-99086619D01*
X95990643Y-99086624D01*
X96082684Y-99235845D01*
X96206654Y-99359815D01*
X96355875Y-99451856D01*
X96355880Y-99451858D01*
X96522302Y-99507005D01*
X96522309Y-99507006D01*
X96625019Y-99517499D01*
X97174999Y-99517499D01*
X97175000Y-99517498D01*
X97175000Y-98565982D01*
X97193409Y-98576611D01*
X97346009Y-98617500D01*
X97503991Y-98617500D01*
X97656591Y-98576611D01*
X97675000Y-98565982D01*
X97675000Y-99517499D01*
X98224972Y-99517499D01*
X98224986Y-99517498D01*
X98327697Y-99507005D01*
X98494119Y-99451858D01*
X98494124Y-99451856D01*
X98643345Y-99359815D01*
X98767317Y-99235843D01*
X98797148Y-99187480D01*
X98849096Y-99140755D01*
X98918058Y-99129532D01*
X98982141Y-99157376D01*
X98983773Y-99158867D01*
X98983786Y-99158853D01*
X98987481Y-99162008D01*
X98987490Y-99162017D01*
X99178567Y-99300843D01*
X99219672Y-99321787D01*
X99389003Y-99408066D01*
X99389005Y-99408066D01*
X99389008Y-99408068D01*
X99461192Y-99431522D01*
X99613631Y-99481053D01*
X99846903Y-99518000D01*
X99846908Y-99518000D01*
X100083097Y-99518000D01*
X100316368Y-99481053D01*
X100351201Y-99469735D01*
X100540992Y-99408068D01*
X100751433Y-99300843D01*
X100942510Y-99162017D01*
X101109517Y-98995010D01*
X101248343Y-98803933D01*
X101308583Y-98685704D01*
X101356558Y-98634909D01*
X101419068Y-98618000D01*
X106595831Y-98618000D01*
X106595847Y-98618001D01*
X106603443Y-98618001D01*
X106761554Y-98618001D01*
X106761557Y-98618001D01*
X106914285Y-98577077D01*
X106964404Y-98548139D01*
X107051216Y-98498020D01*
X107163020Y-98386216D01*
X107163020Y-98386214D01*
X107173228Y-98376007D01*
X107173230Y-98376004D01*
X110558506Y-94990728D01*
X110558511Y-94990724D01*
X110568714Y-94980520D01*
X110568716Y-94980520D01*
X110680520Y-94868716D01*
X110732111Y-94779357D01*
X110732113Y-94779355D01*
X110759574Y-94731790D01*
X110759573Y-94731790D01*
X110759577Y-94731785D01*
X110800500Y-94579058D01*
X110800500Y-94420943D01*
X110800500Y-82855257D01*
X110799225Y-82850500D01*
X110782937Y-82789711D01*
X110759577Y-82702530D01*
X110742595Y-82673116D01*
X110680524Y-82565604D01*
X110680521Y-82565600D01*
X110680520Y-82565598D01*
X110568716Y-82453794D01*
X110568715Y-82453793D01*
X110564385Y-82449463D01*
X110564374Y-82449453D01*
X108653276Y-80538355D01*
X108653274Y-80538352D01*
X108534404Y-80419482D01*
X108534402Y-80419480D01*
X108487758Y-80392550D01*
X108462082Y-80372847D01*
X105551416Y-77462181D01*
X105517931Y-77400858D01*
X105522915Y-77331166D01*
X105564787Y-77275233D01*
X105630251Y-77250816D01*
X105639097Y-77250500D01*
X105786286Y-77250500D01*
X105786287Y-77250500D01*
X105996243Y-77217246D01*
X106038523Y-77203507D01*
X106108362Y-77201511D01*
X106164522Y-77233757D01*
X107495139Y-78564374D01*
X107495149Y-78564385D01*
X107499479Y-78568715D01*
X107499480Y-78568716D01*
X107611284Y-78680520D01*
X107611286Y-78680521D01*
X107611290Y-78680524D01*
X107681667Y-78721156D01*
X107681671Y-78721157D01*
X107681672Y-78721158D01*
X107714943Y-78740367D01*
X107748212Y-78759576D01*
X107748214Y-78759576D01*
X107748215Y-78759577D01*
X107900942Y-78800500D01*
X107900943Y-78800500D01*
X108320234Y-78800500D01*
X108387273Y-78820185D01*
X108389125Y-78821398D01*
X108520814Y-78909390D01*
X108520827Y-78909397D01*
X108666498Y-78969735D01*
X108666503Y-78969737D01*
X108821153Y-79000499D01*
X108821156Y-79000500D01*
X108821158Y-79000500D01*
X108978844Y-79000500D01*
X108978845Y-79000499D01*
X109133497Y-78969737D01*
X109279179Y-78909394D01*
X109410289Y-78821789D01*
X109521789Y-78710289D01*
X109609394Y-78579179D01*
X109669737Y-78433497D01*
X109700500Y-78278842D01*
X109700500Y-78121158D01*
X109700500Y-78121156D01*
X109700500Y-78121155D01*
X109700499Y-78121153D01*
X109692417Y-78080521D01*
X109669737Y-77966503D01*
X109668855Y-77964374D01*
X109609397Y-77820827D01*
X109609390Y-77820814D01*
X109521789Y-77689711D01*
X109521786Y-77689707D01*
X109410292Y-77578213D01*
X109410288Y-77578210D01*
X109279185Y-77490609D01*
X109279172Y-77490602D01*
X109133501Y-77430264D01*
X109133489Y-77430261D01*
X108978845Y-77399500D01*
X108978842Y-77399500D01*
X108821158Y-77399500D01*
X108821155Y-77399500D01*
X108666510Y-77430261D01*
X108666498Y-77430264D01*
X108520827Y-77490602D01*
X108520814Y-77490609D01*
X108389125Y-77578602D01*
X108371078Y-77584252D01*
X108355169Y-77594477D01*
X108324207Y-77598928D01*
X108322447Y-77599480D01*
X108320234Y-77599500D01*
X108280097Y-77599500D01*
X108213058Y-77579815D01*
X108192416Y-77563181D01*
X107013757Y-76384522D01*
X106980272Y-76323199D01*
X106983507Y-76258523D01*
X106997246Y-76216243D01*
X107000191Y-76197648D01*
X111199500Y-76197648D01*
X111199500Y-76402351D01*
X111231522Y-76604534D01*
X111294781Y-76799223D01*
X111356312Y-76919983D01*
X111386798Y-76979815D01*
X111387715Y-76981613D01*
X111508028Y-77147213D01*
X111652786Y-77291971D01*
X111788378Y-77390482D01*
X111818390Y-77412287D01*
X111934607Y-77471503D01*
X112000776Y-77505218D01*
X112000778Y-77505218D01*
X112000781Y-77505220D01*
X112105137Y-77539127D01*
X112195465Y-77568477D01*
X112267050Y-77579815D01*
X112397648Y-77600500D01*
X112397649Y-77600500D01*
X112602351Y-77600500D01*
X112602352Y-77600500D01*
X112804534Y-77568477D01*
X112999219Y-77505220D01*
X113181610Y-77412287D01*
X113274590Y-77344732D01*
X113347213Y-77291971D01*
X113347215Y-77291968D01*
X113347219Y-77291966D01*
X113491966Y-77147219D01*
X113491968Y-77147215D01*
X113491971Y-77147213D01*
X113558929Y-77055051D01*
X113612287Y-76981610D01*
X113705220Y-76799219D01*
X113768477Y-76604534D01*
X113800500Y-76402352D01*
X113800500Y-76197648D01*
X113768477Y-75995466D01*
X113705220Y-75800781D01*
X113705218Y-75800778D01*
X113705218Y-75800776D01*
X113626487Y-75646260D01*
X113612287Y-75618390D01*
X113587125Y-75583757D01*
X113491971Y-75452786D01*
X113347213Y-75308028D01*
X113181613Y-75187715D01*
X113181612Y-75187714D01*
X113181610Y-75187713D01*
X113124653Y-75158691D01*
X112999223Y-75094781D01*
X112804534Y-75031522D01*
X112618938Y-75002127D01*
X112602352Y-74999500D01*
X112397648Y-74999500D01*
X112381062Y-75002127D01*
X112195465Y-75031522D01*
X112000776Y-75094781D01*
X111818386Y-75187715D01*
X111652786Y-75308028D01*
X111508028Y-75452786D01*
X111387715Y-75618386D01*
X111294781Y-75800776D01*
X111231522Y-75995465D01*
X111199500Y-76197648D01*
X107000191Y-76197648D01*
X107030500Y-76006287D01*
X107030500Y-75793713D01*
X106997246Y-75583757D01*
X106931557Y-75381588D01*
X106835051Y-75192184D01*
X106835049Y-75192181D01*
X106835048Y-75192179D01*
X106710109Y-75020213D01*
X106559786Y-74869890D01*
X106387820Y-74744951D01*
X106198414Y-74648444D01*
X106198413Y-74648443D01*
X106198412Y-74648443D01*
X105996243Y-74582754D01*
X105996241Y-74582753D01*
X105996240Y-74582753D01*
X105834957Y-74557208D01*
X105786287Y-74549500D01*
X105573713Y-74549500D01*
X105525042Y-74557208D01*
X105363760Y-74582753D01*
X105161585Y-74648444D01*
X104972179Y-74744951D01*
X104800213Y-74869890D01*
X104649890Y-75020213D01*
X104524949Y-75192182D01*
X104520484Y-75200946D01*
X104472509Y-75251742D01*
X104404688Y-75268536D01*
X104338553Y-75245998D01*
X104299516Y-75200946D01*
X104295050Y-75192182D01*
X104170109Y-75020213D01*
X104019786Y-74869890D01*
X103847820Y-74744951D01*
X103658414Y-74648444D01*
X103658413Y-74648443D01*
X103658412Y-74648443D01*
X103456243Y-74582754D01*
X103456241Y-74582753D01*
X103456240Y-74582753D01*
X103294957Y-74557208D01*
X103246287Y-74549500D01*
X103033713Y-74549500D01*
X102985042Y-74557208D01*
X102823760Y-74582753D01*
X102621585Y-74648444D01*
X102432179Y-74744951D01*
X102260215Y-74869889D01*
X102146673Y-74983431D01*
X102085350Y-75016915D01*
X102015658Y-75011931D01*
X101959725Y-74970059D01*
X101942810Y-74939082D01*
X101893797Y-74807671D01*
X101893793Y-74807664D01*
X101807547Y-74692455D01*
X101807544Y-74692452D01*
X101692335Y-74606206D01*
X101692328Y-74606202D01*
X101557482Y-74555908D01*
X101557483Y-74555908D01*
X101497883Y-74549501D01*
X101497881Y-74549500D01*
X101497873Y-74549500D01*
X101497864Y-74549500D01*
X99702129Y-74549500D01*
X99702123Y-74549501D01*
X99642516Y-74555908D01*
X99507671Y-74606202D01*
X99507664Y-74606206D01*
X99392455Y-74692452D01*
X99392452Y-74692455D01*
X99306206Y-74807664D01*
X99306202Y-74807671D01*
X99255908Y-74942517D01*
X99249501Y-75002116D01*
X99249500Y-75002135D01*
X99249500Y-76797870D01*
X99249501Y-76797876D01*
X99255908Y-76857483D01*
X99296203Y-76965519D01*
X99301187Y-77035211D01*
X99267701Y-77096534D01*
X99206378Y-77130018D01*
X99136686Y-77125033D01*
X99111131Y-77111955D01*
X99079183Y-77090608D01*
X99079172Y-77090602D01*
X98933501Y-77030264D01*
X98933489Y-77030261D01*
X98778845Y-76999500D01*
X98778842Y-76999500D01*
X98621158Y-76999500D01*
X98621157Y-76999500D01*
X98615095Y-77000097D01*
X98615058Y-76999725D01*
X98599137Y-77001218D01*
X98584985Y-77001087D01*
X98579057Y-76999499D01*
X98420943Y-76999499D01*
X98420939Y-76999500D01*
X97240097Y-76999500D01*
X97173058Y-76979815D01*
X97152416Y-76963181D01*
X96573757Y-76384522D01*
X96540272Y-76323199D01*
X96543507Y-76258523D01*
X96557246Y-76216243D01*
X96590500Y-76006287D01*
X96590500Y-75793713D01*
X96557246Y-75583757D01*
X96491557Y-75381588D01*
X96395051Y-75192184D01*
X96395049Y-75192181D01*
X96395048Y-75192179D01*
X96270109Y-75020213D01*
X96119786Y-74869890D01*
X95947820Y-74744951D01*
X95758414Y-74648444D01*
X95758413Y-74648443D01*
X95758412Y-74648443D01*
X95556243Y-74582754D01*
X95556241Y-74582753D01*
X95556240Y-74582753D01*
X95394957Y-74557208D01*
X95346287Y-74549500D01*
X95133713Y-74549500D01*
X95085042Y-74557208D01*
X94923760Y-74582753D01*
X94721585Y-74648444D01*
X94532179Y-74744951D01*
X94360213Y-74869890D01*
X94209890Y-75020213D01*
X94084949Y-75192182D01*
X94080484Y-75200946D01*
X94032509Y-75251742D01*
X93964688Y-75268536D01*
X93898553Y-75245998D01*
X93859516Y-75200946D01*
X93855050Y-75192182D01*
X93730109Y-75020213D01*
X93579786Y-74869890D01*
X93407820Y-74744951D01*
X93218414Y-74648444D01*
X93218413Y-74648443D01*
X93218412Y-74648443D01*
X93016243Y-74582754D01*
X93016241Y-74582753D01*
X93016240Y-74582753D01*
X92854957Y-74557208D01*
X92806287Y-74549500D01*
X92593713Y-74549500D01*
X92545042Y-74557208D01*
X92383760Y-74582753D01*
X92181585Y-74648444D01*
X91992179Y-74744951D01*
X91820215Y-74869889D01*
X91706673Y-74983431D01*
X91645350Y-75016915D01*
X91575658Y-75011931D01*
X91519725Y-74970059D01*
X91502810Y-74939082D01*
X91453797Y-74807671D01*
X91453793Y-74807664D01*
X91367547Y-74692455D01*
X91367544Y-74692452D01*
X91252335Y-74606206D01*
X91252328Y-74606202D01*
X91117482Y-74555908D01*
X91117483Y-74555908D01*
X91057883Y-74549501D01*
X91057881Y-74549500D01*
X91057873Y-74549500D01*
X91057864Y-74549500D01*
X89262129Y-74549500D01*
X89262123Y-74549501D01*
X89202516Y-74555908D01*
X89067671Y-74606202D01*
X89067664Y-74606206D01*
X88952455Y-74692452D01*
X88952452Y-74692455D01*
X88866206Y-74807664D01*
X88866202Y-74807671D01*
X88815908Y-74942517D01*
X88809501Y-75002116D01*
X88809500Y-75002135D01*
X88809500Y-76797870D01*
X88809501Y-76797876D01*
X88815908Y-76857483D01*
X88866202Y-76992328D01*
X88866206Y-76992335D01*
X88952452Y-77107544D01*
X88952455Y-77107547D01*
X89067664Y-77193793D01*
X89067671Y-77193797D01*
X89202517Y-77244091D01*
X89202516Y-77244091D01*
X89209444Y-77244835D01*
X89262127Y-77250500D01*
X91057872Y-77250499D01*
X91117483Y-77244091D01*
X91252331Y-77193796D01*
X91367546Y-77107546D01*
X91453796Y-76992331D01*
X91502810Y-76860916D01*
X91544681Y-76804984D01*
X91610145Y-76780566D01*
X91678418Y-76795417D01*
X91706673Y-76816569D01*
X91820213Y-76930109D01*
X91992179Y-77055048D01*
X91992181Y-77055049D01*
X91992184Y-77055051D01*
X92181588Y-77151557D01*
X92383757Y-77217246D01*
X92593713Y-77250500D01*
X92593714Y-77250500D01*
X92806286Y-77250500D01*
X92806287Y-77250500D01*
X93016243Y-77217246D01*
X93218412Y-77151557D01*
X93407816Y-77055051D01*
X93477661Y-77004306D01*
X93579786Y-76930109D01*
X93579788Y-76930106D01*
X93579792Y-76930104D01*
X93730104Y-76779792D01*
X93730106Y-76779788D01*
X93730109Y-76779786D01*
X93855048Y-76607820D01*
X93855047Y-76607820D01*
X93855051Y-76607816D01*
X93859514Y-76599054D01*
X93907488Y-76548259D01*
X93975308Y-76531463D01*
X94041444Y-76553999D01*
X94080486Y-76599056D01*
X94084951Y-76607820D01*
X94209890Y-76779786D01*
X94360213Y-76930109D01*
X94532179Y-77055048D01*
X94532181Y-77055049D01*
X94532184Y-77055051D01*
X94721588Y-77151557D01*
X94923757Y-77217246D01*
X95133713Y-77250500D01*
X95133714Y-77250500D01*
X95346286Y-77250500D01*
X95346287Y-77250500D01*
X95556243Y-77217246D01*
X95598523Y-77203507D01*
X95668362Y-77201511D01*
X95724522Y-77233757D01*
X96455139Y-77964374D01*
X96455149Y-77964385D01*
X96459479Y-77968715D01*
X96459480Y-77968716D01*
X96571284Y-78080520D01*
X96571286Y-78080521D01*
X96571290Y-78080524D01*
X96641667Y-78121156D01*
X96641671Y-78121157D01*
X96641672Y-78121158D01*
X96674943Y-78140367D01*
X96708212Y-78159576D01*
X96708214Y-78159576D01*
X96708215Y-78159577D01*
X96860943Y-78200500D01*
X97938573Y-78200500D01*
X98005612Y-78220185D01*
X98041675Y-78255610D01*
X98078207Y-78310284D01*
X98078213Y-78310292D01*
X98189707Y-78421786D01*
X98189711Y-78421789D01*
X98320814Y-78509390D01*
X98320827Y-78509397D01*
X98453555Y-78564374D01*
X98466503Y-78569737D01*
X98621153Y-78600499D01*
X98621156Y-78600500D01*
X98621158Y-78600500D01*
X98778844Y-78600500D01*
X98778845Y-78600499D01*
X98933497Y-78569737D01*
X99079179Y-78509394D01*
X99210289Y-78421789D01*
X99321789Y-78310289D01*
X99409394Y-78179179D01*
X99469737Y-78033497D01*
X99500500Y-77878842D01*
X99500500Y-77721158D01*
X99500500Y-77721155D01*
X99500499Y-77721153D01*
X99492126Y-77679058D01*
X99469737Y-77566503D01*
X99422228Y-77451805D01*
X99409397Y-77420827D01*
X99409390Y-77420814D01*
X99388045Y-77388869D01*
X99367167Y-77322191D01*
X99385652Y-77254811D01*
X99437630Y-77208121D01*
X99506600Y-77196945D01*
X99534481Y-77203796D01*
X99642517Y-77244091D01*
X99702127Y-77250500D01*
X99875499Y-77250499D01*
X99942538Y-77270183D01*
X99988293Y-77322987D01*
X99999499Y-77374499D01*
X99999499Y-77479054D01*
X99999498Y-77479054D01*
X100040422Y-77631783D01*
X100067715Y-77679055D01*
X100067717Y-77679058D01*
X100119479Y-77768714D01*
X100119481Y-77768717D01*
X100238349Y-77887585D01*
X100238355Y-77887590D01*
X104922098Y-82571333D01*
X104955583Y-82632656D01*
X104950599Y-82702348D01*
X104908727Y-82758281D01*
X104843263Y-82782698D01*
X104834417Y-82783014D01*
X101405184Y-82783014D01*
X101338145Y-82763329D01*
X101292390Y-82710525D01*
X101282446Y-82641367D01*
X101302082Y-82590123D01*
X101305423Y-82585121D01*
X101309394Y-82579179D01*
X101369737Y-82433497D01*
X101400500Y-82278842D01*
X101400500Y-82121158D01*
X101400500Y-82121155D01*
X101400499Y-82121153D01*
X101380734Y-82021789D01*
X101369737Y-81966503D01*
X101346452Y-81910288D01*
X101309397Y-81820827D01*
X101309390Y-81820814D01*
X101221789Y-81689711D01*
X101221786Y-81689707D01*
X101110292Y-81578213D01*
X101110288Y-81578210D01*
X100979185Y-81490609D01*
X100979172Y-81490602D01*
X100833501Y-81430264D01*
X100833489Y-81430261D01*
X100678845Y-81399500D01*
X100678842Y-81399500D01*
X100521158Y-81399500D01*
X100521155Y-81399500D01*
X100366510Y-81430261D01*
X100366498Y-81430264D01*
X100220827Y-81490602D01*
X100220814Y-81490609D01*
X100089711Y-81578210D01*
X100089707Y-81578213D01*
X99978213Y-81689707D01*
X99978210Y-81689711D01*
X99890609Y-81820814D01*
X99890602Y-81820827D01*
X99830264Y-81966498D01*
X99830261Y-81966508D01*
X99799361Y-82121850D01*
X99790596Y-82138605D01*
X99786577Y-82157084D01*
X99767831Y-82182125D01*
X99766976Y-82183761D01*
X99765426Y-82185339D01*
X99687582Y-82263182D01*
X99626262Y-82296666D01*
X99599903Y-82299500D01*
X93679766Y-82299500D01*
X93612727Y-82279815D01*
X93610875Y-82278602D01*
X93479185Y-82190609D01*
X93479172Y-82190602D01*
X93333501Y-82130264D01*
X93333489Y-82130261D01*
X93178845Y-82099500D01*
X93178842Y-82099500D01*
X93021158Y-82099500D01*
X93021155Y-82099500D01*
X92866510Y-82130261D01*
X92866498Y-82130264D01*
X92720827Y-82190602D01*
X92720814Y-82190609D01*
X92589711Y-82278210D01*
X92589707Y-82278213D01*
X92478213Y-82389707D01*
X92478210Y-82389711D01*
X92390609Y-82520814D01*
X92390602Y-82520827D01*
X92330264Y-82666498D01*
X92330261Y-82666510D01*
X92299500Y-82821153D01*
X92299500Y-82978846D01*
X92330261Y-83133489D01*
X92330264Y-83133501D01*
X92390602Y-83279172D01*
X92390609Y-83279185D01*
X92478210Y-83410288D01*
X92478213Y-83410292D01*
X92481281Y-83413360D01*
X92514766Y-83474683D01*
X92509782Y-83544375D01*
X92481281Y-83588722D01*
X92106823Y-83963181D01*
X92079895Y-83977884D01*
X92054077Y-83994477D01*
X92047876Y-83995368D01*
X92045500Y-83996666D01*
X92019142Y-83999500D01*
X91929766Y-83999500D01*
X91862727Y-83979815D01*
X91860875Y-83978602D01*
X91729185Y-83890609D01*
X91729172Y-83890602D01*
X91583501Y-83830264D01*
X91583489Y-83830261D01*
X91428845Y-83799500D01*
X91428842Y-83799500D01*
X91271158Y-83799500D01*
X91271155Y-83799500D01*
X91116510Y-83830261D01*
X91116498Y-83830264D01*
X90970827Y-83890602D01*
X90970814Y-83890609D01*
X90839711Y-83978210D01*
X90839707Y-83978213D01*
X90728213Y-84089707D01*
X90728210Y-84089711D01*
X90640609Y-84220814D01*
X90640602Y-84220827D01*
X90580264Y-84366498D01*
X90580261Y-84366510D01*
X90549500Y-84521153D01*
X90549500Y-84678846D01*
X90580261Y-84833489D01*
X90580264Y-84833501D01*
X90622798Y-84936187D01*
X90624002Y-84947389D01*
X90629403Y-84957280D01*
X90627670Y-84981505D01*
X90630267Y-85005656D01*
X90625222Y-85015733D01*
X90624419Y-85026972D01*
X90609864Y-85046415D01*
X90598992Y-85068135D01*
X90589301Y-85073884D01*
X90582548Y-85082906D01*
X90559789Y-85091394D01*
X90538903Y-85103787D01*
X90527642Y-85103384D01*
X90517084Y-85107323D01*
X90493350Y-85102159D01*
X90469078Y-85101293D01*
X90458049Y-85094480D01*
X90448811Y-85092471D01*
X90420556Y-85071321D01*
X90354891Y-85005656D01*
X90287584Y-84938349D01*
X90287580Y-84938344D01*
X90168717Y-84819481D01*
X90168716Y-84819480D01*
X90081904Y-84769360D01*
X90081904Y-84769359D01*
X90081900Y-84769358D01*
X90031785Y-84740423D01*
X89879057Y-84699499D01*
X89720943Y-84699499D01*
X89713347Y-84699499D01*
X89713331Y-84699500D01*
X86224500Y-84699500D01*
X86157461Y-84679815D01*
X86111706Y-84627011D01*
X86100500Y-84575500D01*
X86100500Y-84521155D01*
X86100499Y-84521153D01*
X86084580Y-84441123D01*
X86069737Y-84366503D01*
X86069735Y-84366498D01*
X86009397Y-84220827D01*
X86009390Y-84220814D01*
X85921398Y-84089125D01*
X85900520Y-84022447D01*
X85900500Y-84020234D01*
X85900500Y-83200097D01*
X85920185Y-83133058D01*
X85936819Y-83112416D01*
X86358709Y-82690526D01*
X86814662Y-82234572D01*
X86875983Y-82201089D01*
X86878150Y-82200638D01*
X86936085Y-82189113D01*
X87033497Y-82169737D01*
X87179179Y-82109394D01*
X87310289Y-82021789D01*
X87421789Y-81910289D01*
X87509394Y-81779179D01*
X87569737Y-81633497D01*
X87600500Y-81478842D01*
X87600500Y-81321158D01*
X87600500Y-81321155D01*
X87600499Y-81321153D01*
X87569737Y-81166503D01*
X87549992Y-81118834D01*
X87509397Y-81020827D01*
X87509390Y-81020814D01*
X87421789Y-80889711D01*
X87421786Y-80889707D01*
X87310292Y-80778213D01*
X87310288Y-80778210D01*
X87179185Y-80690609D01*
X87179172Y-80690602D01*
X87033501Y-80630264D01*
X87033489Y-80630261D01*
X86878845Y-80599500D01*
X86878842Y-80599500D01*
X86721158Y-80599500D01*
X86721155Y-80599500D01*
X86566510Y-80630261D01*
X86566498Y-80630264D01*
X86420827Y-80690602D01*
X86420814Y-80690609D01*
X86289711Y-80778210D01*
X86289707Y-80778213D01*
X86178213Y-80889707D01*
X86178210Y-80889711D01*
X86090609Y-81020814D01*
X86090602Y-81020827D01*
X86030264Y-81166498D01*
X86030261Y-81166508D01*
X85999361Y-81321850D01*
X85966976Y-81383761D01*
X85965425Y-81385339D01*
X84819481Y-82531282D01*
X84819480Y-82531284D01*
X84771338Y-82614669D01*
X84740423Y-82668215D01*
X84699499Y-82820943D01*
X84699499Y-82820945D01*
X84699499Y-82989046D01*
X84699500Y-82989059D01*
X84699500Y-84020234D01*
X84679815Y-84087273D01*
X84678602Y-84089125D01*
X84590609Y-84220814D01*
X84590602Y-84220827D01*
X84530264Y-84366498D01*
X84530261Y-84366510D01*
X84499500Y-84521153D01*
X84499500Y-84575500D01*
X84479815Y-84642539D01*
X84427011Y-84688294D01*
X84375500Y-84699500D01*
X82392535Y-84699500D01*
X82325496Y-84679815D01*
X82279741Y-84627011D01*
X82269177Y-84588102D01*
X82268330Y-84579815D01*
X82264999Y-84547203D01*
X82209814Y-84380666D01*
X82117712Y-84231344D01*
X81993656Y-84107288D01*
X81844334Y-84015186D01*
X81677797Y-83960001D01*
X81677795Y-83960000D01*
X81575010Y-83949500D01*
X80024998Y-83949500D01*
X80024981Y-83949501D01*
X79922203Y-83960000D01*
X79922200Y-83960001D01*
X79755668Y-84015185D01*
X79755663Y-84015187D01*
X79606342Y-84107289D01*
X79482289Y-84231342D01*
X79390187Y-84380663D01*
X79390186Y-84380666D01*
X79335001Y-84547203D01*
X79335001Y-84547204D01*
X79335000Y-84547204D01*
X79324500Y-84649983D01*
X79324500Y-85874901D01*
X79315854Y-85904344D01*
X79309332Y-85934327D01*
X79305577Y-85939342D01*
X79304815Y-85941940D01*
X79288185Y-85962577D01*
X79155286Y-86095478D01*
X79155285Y-86095478D01*
X79155284Y-86095479D01*
X79043479Y-86207284D01*
X79026940Y-86235932D01*
X79004096Y-86275500D01*
X78964423Y-86344215D01*
X78923499Y-86496943D01*
X78923499Y-86655057D01*
X78923499Y-86655059D01*
X78923500Y-86665053D01*
X78923500Y-93190090D01*
X78923499Y-93190108D01*
X78923499Y-93355814D01*
X78923498Y-93355814D01*
X73100500Y-93355814D01*
X73100500Y-76197648D01*
X73799500Y-76197648D01*
X73799500Y-76402351D01*
X73831522Y-76604534D01*
X73894781Y-76799223D01*
X73956312Y-76919983D01*
X73986798Y-76979815D01*
X73987715Y-76981613D01*
X74108028Y-77147213D01*
X74252786Y-77291971D01*
X74388378Y-77390482D01*
X74418390Y-77412287D01*
X74534607Y-77471503D01*
X74600776Y-77505218D01*
X74600778Y-77505218D01*
X74600781Y-77505220D01*
X74705137Y-77539127D01*
X74795465Y-77568477D01*
X74867050Y-77579815D01*
X74997648Y-77600500D01*
X74997649Y-77600500D01*
X75202351Y-77600500D01*
X75202352Y-77600500D01*
X75404534Y-77568477D01*
X75599219Y-77505220D01*
X75781610Y-77412287D01*
X75874590Y-77344732D01*
X75947213Y-77291971D01*
X75947215Y-77291968D01*
X75947219Y-77291966D01*
X76091966Y-77147219D01*
X76091968Y-77147215D01*
X76091971Y-77147213D01*
X76158929Y-77055051D01*
X76212287Y-76981610D01*
X76305220Y-76799219D01*
X76368477Y-76604534D01*
X76400500Y-76402352D01*
X76400500Y-76197648D01*
X76368477Y-75995466D01*
X76305220Y-75800781D01*
X76305218Y-75800778D01*
X76305218Y-75800776D01*
X76226487Y-75646260D01*
X76212287Y-75618390D01*
X76187125Y-75583757D01*
X76091971Y-75452786D01*
X75947213Y-75308028D01*
X75781614Y-75187715D01*
X75750361Y-75171791D01*
X75599223Y-75094781D01*
X75506444Y-75064635D01*
X78409500Y-75064635D01*
X78409500Y-76860370D01*
X78409501Y-76860376D01*
X78415908Y-76919983D01*
X78466202Y-77054828D01*
X78466206Y-77054835D01*
X78552452Y-77170044D01*
X78552455Y-77170047D01*
X78667664Y-77256293D01*
X78667671Y-77256297D01*
X78802517Y-77306591D01*
X78802516Y-77306591D01*
X78809444Y-77307335D01*
X78862127Y-77313000D01*
X80657872Y-77312999D01*
X80717483Y-77306591D01*
X80852331Y-77256296D01*
X80967546Y-77170046D01*
X81053796Y-77054831D01*
X81102810Y-76923416D01*
X81144681Y-76867484D01*
X81210145Y-76843066D01*
X81278418Y-76857917D01*
X81306673Y-76879069D01*
X81420213Y-76992609D01*
X81592179Y-77117548D01*
X81592181Y-77117549D01*
X81592184Y-77117551D01*
X81781588Y-77214057D01*
X81983757Y-77279746D01*
X82193713Y-77313000D01*
X82193714Y-77313000D01*
X82406286Y-77313000D01*
X82406287Y-77313000D01*
X82616243Y-77279746D01*
X82818412Y-77214057D01*
X83007816Y-77117551D01*
X83044908Y-77090602D01*
X83179786Y-76992609D01*
X83179788Y-76992606D01*
X83179792Y-76992604D01*
X83330104Y-76842292D01*
X83330106Y-76842288D01*
X83330109Y-76842286D01*
X83455048Y-76670320D01*
X83455047Y-76670320D01*
X83455051Y-76670316D01*
X83459514Y-76661554D01*
X83507488Y-76610759D01*
X83575308Y-76593963D01*
X83641444Y-76616499D01*
X83680486Y-76661556D01*
X83684951Y-76670320D01*
X83809890Y-76842286D01*
X83960213Y-76992609D01*
X84132179Y-77117548D01*
X84132181Y-77117549D01*
X84132184Y-77117551D01*
X84321588Y-77214057D01*
X84523757Y-77279746D01*
X84733713Y-77313000D01*
X84733714Y-77313000D01*
X84946286Y-77313000D01*
X84946287Y-77313000D01*
X85156243Y-77279746D01*
X85198523Y-77266007D01*
X85268362Y-77264011D01*
X85324522Y-77296257D01*
X87192639Y-79164374D01*
X87192649Y-79164385D01*
X87196979Y-79168715D01*
X87196980Y-79168716D01*
X87308784Y-79280520D01*
X87395595Y-79330639D01*
X87445715Y-79359577D01*
X87532070Y-79382715D01*
X87538550Y-79385259D01*
X87555106Y-79398098D01*
X87580927Y-79413006D01*
X87589707Y-79421786D01*
X87589711Y-79421789D01*
X87720814Y-79509390D01*
X87720827Y-79509397D01*
X87866498Y-79569735D01*
X87866503Y-79569737D01*
X88021153Y-79600499D01*
X88021156Y-79600500D01*
X88021158Y-79600500D01*
X88178844Y-79600500D01*
X88178845Y-79600499D01*
X88333497Y-79569737D01*
X88479179Y-79509394D01*
X88610289Y-79421789D01*
X88721789Y-79310289D01*
X88809394Y-79179179D01*
X88869737Y-79033497D01*
X88900500Y-78878842D01*
X88900500Y-78721158D01*
X88900500Y-78721156D01*
X88900500Y-78721155D01*
X88900499Y-78721153D01*
X88892417Y-78680521D01*
X88869737Y-78566503D01*
X88846080Y-78509390D01*
X88809397Y-78420827D01*
X88809390Y-78420814D01*
X88721789Y-78289711D01*
X88721786Y-78289707D01*
X88610292Y-78178213D01*
X88610288Y-78178210D01*
X88479185Y-78090609D01*
X88479172Y-78090602D01*
X88333501Y-78030264D01*
X88333489Y-78030261D01*
X88178845Y-77999500D01*
X88178842Y-77999500D01*
X88021158Y-77999500D01*
X88021155Y-77999500D01*
X87866511Y-78030260D01*
X87866492Y-78030266D01*
X87865600Y-78030636D01*
X87865096Y-78030690D01*
X87860680Y-78032030D01*
X87860425Y-78031191D01*
X87796129Y-78038094D01*
X87733655Y-78006810D01*
X87730484Y-78003749D01*
X86173757Y-76447022D01*
X86140272Y-76385699D01*
X86143507Y-76321023D01*
X86157246Y-76278743D01*
X86190500Y-76068787D01*
X86190500Y-75856213D01*
X86157246Y-75646257D01*
X86091557Y-75444088D01*
X85995051Y-75254684D01*
X85995049Y-75254681D01*
X85995048Y-75254679D01*
X85870109Y-75082713D01*
X85719786Y-74932390D01*
X85547820Y-74807451D01*
X85358414Y-74710944D01*
X85358413Y-74710943D01*
X85358412Y-74710943D01*
X85156243Y-74645254D01*
X85156241Y-74645253D01*
X85156240Y-74645253D01*
X84994957Y-74619708D01*
X84946287Y-74612000D01*
X84733713Y-74612000D01*
X84685042Y-74619708D01*
X84523760Y-74645253D01*
X84321585Y-74710944D01*
X84132179Y-74807451D01*
X83960213Y-74932390D01*
X83809890Y-75082713D01*
X83684949Y-75254682D01*
X83680484Y-75263446D01*
X83632509Y-75314242D01*
X83564688Y-75331036D01*
X83498553Y-75308498D01*
X83459516Y-75263446D01*
X83455050Y-75254682D01*
X83330109Y-75082713D01*
X83179786Y-74932390D01*
X83007820Y-74807451D01*
X82818414Y-74710944D01*
X82818413Y-74710943D01*
X82818412Y-74710943D01*
X82616243Y-74645254D01*
X82616241Y-74645253D01*
X82616240Y-74645253D01*
X82454957Y-74619708D01*
X82406287Y-74612000D01*
X82193713Y-74612000D01*
X82145042Y-74619708D01*
X81983760Y-74645253D01*
X81781585Y-74710944D01*
X81592179Y-74807451D01*
X81420215Y-74932389D01*
X81306673Y-75045931D01*
X81245350Y-75079415D01*
X81175658Y-75074431D01*
X81119725Y-75032559D01*
X81102810Y-75001582D01*
X81053797Y-74870171D01*
X81053793Y-74870164D01*
X80967547Y-74754955D01*
X80967544Y-74754952D01*
X80852335Y-74668706D01*
X80852328Y-74668702D01*
X80717482Y-74618408D01*
X80717483Y-74618408D01*
X80657883Y-74612001D01*
X80657881Y-74612000D01*
X80657873Y-74612000D01*
X80657864Y-74612000D01*
X78862129Y-74612000D01*
X78862123Y-74612001D01*
X78802516Y-74618408D01*
X78667671Y-74668702D01*
X78667664Y-74668706D01*
X78552455Y-74754952D01*
X78552452Y-74754955D01*
X78466206Y-74870164D01*
X78466202Y-74870171D01*
X78415908Y-75005017D01*
X78409501Y-75064616D01*
X78409500Y-75064635D01*
X75506444Y-75064635D01*
X75404534Y-75031522D01*
X75218938Y-75002127D01*
X75202352Y-74999500D01*
X74997648Y-74999500D01*
X74981062Y-75002127D01*
X74795465Y-75031522D01*
X74600776Y-75094781D01*
X74418386Y-75187715D01*
X74252786Y-75308028D01*
X74108028Y-75452786D01*
X73987715Y-75618386D01*
X73894781Y-75800776D01*
X73831522Y-75995465D01*
X73799500Y-76197648D01*
X73100500Y-76197648D01*
X73100500Y-74224500D01*
X73120185Y-74157461D01*
X73172989Y-74111706D01*
X73224500Y-74100500D01*
X114375500Y-74100500D01*
X114442539Y-74120185D01*
G37*
%TD.AperFunction*%
%TD*%
M02*
