M48
; DRILL file {KiCad 9.0.2} date 2025-06-30T23:17:20-0400
; FORMAT={-:-/ absolute / inch / decimal}
; #@! TF.CreationDate,2025-06-30T23:17:20-04:00
; #@! TF.GenerationSoftware,Kicad,Pcbnew,9.0.2
; #@! TF.FileFunction,Plated,1,2,PTH
FMAT,2
INCH
; #@! TA.AperFunction,Plated,PTH,ViaDrill
T1C0.0118
; #@! TA.AperFunction,Plated,PTH,ComponentDrill
T2C0.0374
; #@! TA.AperFunction,Plated,PTH,ComponentDrill
T3C0.0394
; #@! TA.AperFunction,Plated,PTH,ComponentDrill
T4C0.0472
%
G90
G05
T1
X3.0906Y-3.4724
X3.2677Y-3.3819
X3.2835Y-3.7953
X3.3583Y-3.3307
X3.4Y-3.4071
X3.4173Y-3.2047
X3.4295Y-3.7012
X3.4685Y-3.1024
X3.4882Y-3.8858
X3.5598Y-3.5624
X3.5601Y-3.4556
X3.5748Y-3.3976
X3.5918Y-3.4809
X3.5965Y-3.3307
X3.6575Y-3.4055
X3.6654Y-3.2638
X3.6654Y-3.4961
X3.6772Y-3.5512
X3.6908Y-3.3406
X3.6918Y-3.2894
X3.7794Y-3.4507
X3.7835Y-3.5591
X3.8012Y-3.4253
X3.8014Y-3.4754
X3.834Y-3.4138
X3.8858Y-3.063
X3.9606Y-3.2362
X4.0499Y-3.6171
X4.0743Y-3.5844
X4.0945Y-3.4449
X4.1235Y-3.3084
X4.1394Y-3.3378
X4.1616Y-3.212
X4.1929Y-3.2795
X4.2431Y-3.2461
X4.2638Y-3.4173
X4.2874Y-3.0787
T2
X3.1811Y-3.3583
X3.1811Y-3.4567
X3.1811Y-3.5551
X3.1811Y-3.6535
X3.1811Y-3.752
X4.1949Y-3.3543
X4.1949Y-3.4528
X4.1949Y-3.5512
X4.1949Y-3.6496
X4.1949Y-3.748
T3
X3.1402Y-2.9906
X3.2402Y-2.9906
X3.3402Y-2.9906
X3.5496Y-2.9882
X3.6496Y-2.9882
X3.7496Y-2.9882
X3.9606Y-2.9882
X4.0606Y-2.9882
X4.1606Y-2.9882
T4
X3.5679Y-3.859
X3.6679Y-3.859
X3.8356Y-3.859
X3.9356Y-3.859
M30
