%TF.GenerationSoftware,KiCad,Pcbnew,9.0.2*%
%TF.CreationDate,2025-06-30T23:17:22-04:00*%
%TF.ProjectId,Serv3Controller,53657276-3343-46f6-9e74-726f6c6c6572,rev?*%
%TF.SameCoordinates,Original*%
%TF.FileFunction,Soldermask,Top*%
%TF.FilePolarity,Negative*%
%FSLAX46Y46*%
G04 Gerber Fmt 4.6, Leading zero omitted, Abs format (unit mm)*
G04 Created by KiCad (PCBNEW 9.0.2) date 2025-06-30 23:17:22*
%MOMM*%
%LPD*%
G01*
G04 APERTURE LIST*
G04 Aperture macros list*
%AMRoundRect*
0 Rectangle with rounded corners*
0 $1 Rounding radius*
0 $2 $3 $4 $5 $6 $7 $8 $9 X,Y pos of 4 corners*
0 Add a 4 corners polygon primitive as box body*
4,1,4,$2,$3,$4,$5,$6,$7,$8,$9,$2,$3,0*
0 Add four circle primitives for the rounded corners*
1,1,$1+$1,$2,$3*
1,1,$1+$1,$4,$5*
1,1,$1+$1,$6,$7*
1,1,$1+$1,$8,$9*
0 Add four rect primitives between the rounded corners*
20,1,$1+$1,$2,$3,$4,$5,0*
20,1,$1+$1,$4,$5,$6,$7,0*
20,1,$1+$1,$6,$7,$8,$9,0*
20,1,$1+$1,$8,$9,$2,$3,0*%
G04 Aperture macros list end*
%ADD10RoundRect,0.250000X-0.725000X0.600000X-0.725000X-0.600000X0.725000X-0.600000X0.725000X0.600000X0*%
%ADD11O,1.950000X1.700000*%
%ADD12RoundRect,0.225000X-0.250000X0.225000X-0.250000X-0.225000X0.250000X-0.225000X0.250000X0.225000X0*%
%ADD13RoundRect,0.200000X-0.275000X0.200000X-0.275000X-0.200000X0.275000X-0.200000X0.275000X0.200000X0*%
%ADD14RoundRect,0.150000X0.150000X-0.587500X0.150000X0.587500X-0.150000X0.587500X-0.150000X-0.587500X0*%
%ADD15RoundRect,0.200000X0.275000X-0.200000X0.275000X0.200000X-0.275000X0.200000X-0.275000X-0.200000X0*%
%ADD16C,2.100000*%
%ADD17R,1.700000X1.700000*%
%ADD18C,1.700000*%
%ADD19RoundRect,0.250000X0.725000X-0.600000X0.725000X0.600000X-0.725000X0.600000X-0.725000X-0.600000X0*%
%ADD20RoundRect,0.250000X-0.750000X-0.750000X0.750000X-0.750000X0.750000X0.750000X-0.750000X0.750000X0*%
%ADD21C,2.000000*%
%ADD22RoundRect,0.218750X-0.256250X0.218750X-0.256250X-0.218750X0.256250X-0.218750X0.256250X0.218750X0*%
%ADD23RoundRect,0.225000X0.250000X-0.225000X0.250000X0.225000X-0.250000X0.225000X-0.250000X-0.225000X0*%
%ADD24R,0.558800X1.981200*%
%ADD25C,0.990600*%
%ADD26C,0.787400*%
%ADD27R,1.473200X0.355600*%
%ADD28RoundRect,0.225000X0.225000X0.250000X-0.225000X0.250000X-0.225000X-0.250000X0.225000X-0.250000X0*%
G04 APERTURE END LIST*
D10*
%TO.C,J6*%
X80800000Y-85300000D03*
D11*
X80800000Y-87800000D03*
X80800000Y-90300000D03*
X80800000Y-92800000D03*
X80800000Y-95300000D03*
%TD*%
D12*
%TO.C,C4*%
X93600000Y-91225000D03*
X93600000Y-92775000D03*
%TD*%
D13*
%TO.C,R7*%
X93400000Y-79237500D03*
X93400000Y-80887500D03*
%TD*%
D14*
%TO.C,Q2*%
X98100000Y-81000000D03*
X100000000Y-81000000D03*
X99050000Y-79125000D03*
%TD*%
D15*
%TO.C,R3*%
X91700000Y-80887500D03*
X91700000Y-79237500D03*
%TD*%
%TO.C,R1*%
X86000000Y-96525000D03*
X86000000Y-94875000D03*
%TD*%
D16*
%TO.C,REF\u002A\u002A*%
X75100000Y-76300000D03*
%TD*%
D15*
%TO.C,R5*%
X110710000Y-80887500D03*
X110710000Y-79237500D03*
%TD*%
D17*
%TO.C,J7*%
X90160000Y-75900000D03*
D18*
X92700000Y-75900000D03*
X95240000Y-75900000D03*
%TD*%
D13*
%TO.C,R8*%
X103210000Y-79237500D03*
X103210000Y-80887500D03*
%TD*%
D16*
%TO.C,REF\u002A\u002A*%
X75100000Y-100700000D03*
%TD*%
D19*
%TO.C,J5*%
X106550000Y-95200000D03*
D11*
X106550000Y-92700000D03*
X106550000Y-90200000D03*
X106550000Y-87700000D03*
X106550000Y-85200000D03*
%TD*%
D15*
%TO.C,R2*%
X87700000Y-96525000D03*
X87700000Y-94875000D03*
%TD*%
D16*
%TO.C,REF\u002A\u002A*%
X112500000Y-100700000D03*
%TD*%
D20*
%TO.C,J2*%
X97425000Y-98017500D03*
D21*
X99965000Y-98017500D03*
%TD*%
D14*
%TO.C,Q1*%
X88200000Y-81000000D03*
X90100000Y-81000000D03*
X89150000Y-79125000D03*
%TD*%
%TO.C,Q3*%
X107060000Y-81000000D03*
X108960000Y-81000000D03*
X108010000Y-79125000D03*
%TD*%
D17*
%TO.C,J8*%
X100600000Y-75900000D03*
D18*
X103140000Y-75900000D03*
X105680000Y-75900000D03*
%TD*%
D22*
%TO.C,D3*%
X85850000Y-79295000D03*
X85850000Y-80870000D03*
%TD*%
D12*
%TO.C,C1*%
X86900000Y-84025000D03*
X86900000Y-85575000D03*
%TD*%
D23*
%TO.C,C2*%
X87200000Y-88575000D03*
X87200000Y-87025000D03*
%TD*%
D24*
%TO.C,U2*%
X97295000Y-89463800D03*
X98565000Y-89463800D03*
X99835000Y-89463800D03*
X101105000Y-89463800D03*
X101105000Y-84536200D03*
X99835000Y-84536200D03*
X98565000Y-84536200D03*
X97295000Y-84536200D03*
%TD*%
D17*
%TO.C,J4*%
X79760000Y-75962500D03*
D18*
X82300000Y-75962500D03*
X84840000Y-75962500D03*
%TD*%
D22*
%TO.C,D1*%
X85700000Y-99712500D03*
X85700000Y-101287500D03*
%TD*%
D20*
%TO.C,J3*%
X90625000Y-98017500D03*
D21*
X93165000Y-98017500D03*
%TD*%
D15*
%TO.C,R4*%
X101600000Y-80887500D03*
X101600000Y-79237500D03*
%TD*%
D12*
%TO.C,C8*%
X108400000Y-75125000D03*
X108400000Y-76675000D03*
%TD*%
D25*
%TO.C,J1*%
X86460000Y-92000000D03*
X91540000Y-90984000D03*
X91540000Y-93016000D03*
D26*
X87730000Y-92635000D03*
X87730000Y-91365000D03*
X89000000Y-92635000D03*
X89000000Y-91365000D03*
X90270000Y-92635000D03*
X90270000Y-91365000D03*
%TD*%
D27*
%TO.C,U1*%
X89179000Y-83075000D03*
X89179000Y-83725001D03*
X89179000Y-84374999D03*
X89179000Y-85025001D03*
X89179000Y-85674999D03*
X89179000Y-86324998D03*
X89179000Y-86974999D03*
X89179000Y-87624998D03*
X89179000Y-88274999D03*
X89179000Y-88924998D03*
X95021000Y-88925000D03*
X95021000Y-88275002D03*
X95021000Y-87625001D03*
X95021000Y-86975002D03*
X95021000Y-86325001D03*
X95021000Y-85675002D03*
X95021000Y-85025001D03*
X95021000Y-84375002D03*
X95021000Y-83725001D03*
X95021000Y-83075002D03*
%TD*%
D22*
%TO.C,D4*%
X95800000Y-79295000D03*
X95800000Y-80870000D03*
%TD*%
%TO.C,D5*%
X105310000Y-79295000D03*
X105310000Y-80870000D03*
%TD*%
D13*
%TO.C,R6*%
X83450000Y-79237500D03*
X83450000Y-80887500D03*
%TD*%
D16*
%TO.C,REF\u002A\u002A*%
X112500000Y-76300000D03*
%TD*%
D12*
%TO.C,C7*%
X97900000Y-75150000D03*
X97900000Y-76700000D03*
%TD*%
%TO.C,C6*%
X87500000Y-75287500D03*
X87500000Y-76837500D03*
%TD*%
D22*
%TO.C,D2*%
X87700000Y-99712500D03*
X87700000Y-101287500D03*
%TD*%
D23*
%TO.C,C5*%
X102900000Y-100875000D03*
X102900000Y-99325000D03*
%TD*%
D28*
%TO.C,C3*%
X99675000Y-91700000D03*
X98125000Y-91700000D03*
%TD*%
M02*
