%TF.GenerationSoftware,KiCad,Pcbnew,9.0.2*%
%TF.CreationDate,2025-06-30T23:17:22-04:00*%
%TF.ProjectId,Serv3Controller,53657276-3343-46f6-9e74-726f6c6c6572,rev?*%
%TF.SameCoordinates,Original*%
%TF.FileFunction,Copper,L1,Top*%
%TF.FilePolarity,Positive*%
%FSLAX46Y46*%
G04 Gerber Fmt 4.6, Leading zero omitted, Abs format (unit mm)*
G04 Created by KiCad (PCBNEW 9.0.2) date 2025-06-30 23:17:22*
%MOMM*%
%LPD*%
G01*
G04 APERTURE LIST*
G04 Aperture macros list*
%AMRoundRect*
0 Rectangle with rounded corners*
0 $1 Rounding radius*
0 $2 $3 $4 $5 $6 $7 $8 $9 X,Y pos of 4 corners*
0 Add a 4 corners polygon primitive as box body*
4,1,4,$2,$3,$4,$5,$6,$7,$8,$9,$2,$3,0*
0 Add four circle primitives for the rounded corners*
1,1,$1+$1,$2,$3*
1,1,$1+$1,$4,$5*
1,1,$1+$1,$6,$7*
1,1,$1+$1,$8,$9*
0 Add four rect primitives between the rounded corners*
20,1,$1+$1,$2,$3,$4,$5,0*
20,1,$1+$1,$4,$5,$6,$7,0*
20,1,$1+$1,$6,$7,$8,$9,0*
20,1,$1+$1,$8,$9,$2,$3,0*%
G04 Aperture macros list end*
%TA.AperFunction,ComponentPad*%
%ADD10RoundRect,0.250000X-0.725000X0.600000X-0.725000X-0.600000X0.725000X-0.600000X0.725000X0.600000X0*%
%TD*%
%TA.AperFunction,ComponentPad*%
%ADD11O,1.950000X1.700000*%
%TD*%
%TA.AperFunction,SMDPad,CuDef*%
%ADD12RoundRect,0.225000X-0.250000X0.225000X-0.250000X-0.225000X0.250000X-0.225000X0.250000X0.225000X0*%
%TD*%
%TA.AperFunction,SMDPad,CuDef*%
%ADD13RoundRect,0.200000X-0.275000X0.200000X-0.275000X-0.200000X0.275000X-0.200000X0.275000X0.200000X0*%
%TD*%
%TA.AperFunction,SMDPad,CuDef*%
%ADD14RoundRect,0.150000X0.150000X-0.587500X0.150000X0.587500X-0.150000X0.587500X-0.150000X-0.587500X0*%
%TD*%
%TA.AperFunction,SMDPad,CuDef*%
%ADD15RoundRect,0.200000X0.275000X-0.200000X0.275000X0.200000X-0.275000X0.200000X-0.275000X-0.200000X0*%
%TD*%
%TA.AperFunction,ComponentPad*%
%ADD16R,1.700000X1.700000*%
%TD*%
%TA.AperFunction,ComponentPad*%
%ADD17C,1.700000*%
%TD*%
%TA.AperFunction,ComponentPad*%
%ADD18RoundRect,0.250000X0.725000X-0.600000X0.725000X0.600000X-0.725000X0.600000X-0.725000X-0.600000X0*%
%TD*%
%TA.AperFunction,ComponentPad*%
%ADD19RoundRect,0.250000X-0.750000X-0.750000X0.750000X-0.750000X0.750000X0.750000X-0.750000X0.750000X0*%
%TD*%
%TA.AperFunction,ComponentPad*%
%ADD20C,2.000000*%
%TD*%
%TA.AperFunction,SMDPad,CuDef*%
%ADD21RoundRect,0.218750X-0.256250X0.218750X-0.256250X-0.218750X0.256250X-0.218750X0.256250X0.218750X0*%
%TD*%
%TA.AperFunction,SMDPad,CuDef*%
%ADD22RoundRect,0.225000X0.250000X-0.225000X0.250000X0.225000X-0.250000X0.225000X-0.250000X-0.225000X0*%
%TD*%
%TA.AperFunction,SMDPad,CuDef*%
%ADD23R,0.558800X1.981200*%
%TD*%
%TA.AperFunction,ConnectorPad*%
%ADD24C,0.787400*%
%TD*%
%TA.AperFunction,SMDPad,CuDef*%
%ADD25R,1.473200X0.355600*%
%TD*%
%TA.AperFunction,SMDPad,CuDef*%
%ADD26RoundRect,0.225000X0.225000X0.250000X-0.225000X0.250000X-0.225000X-0.250000X0.225000X-0.250000X0*%
%TD*%
%TA.AperFunction,ViaPad*%
%ADD27C,0.600000*%
%TD*%
%TA.AperFunction,Conductor*%
%ADD28C,0.200000*%
%TD*%
G04 APERTURE END LIST*
D10*
%TO.P,J6,1,Pin_1*%
%TO.N,/RESETB*%
X80800000Y-85300000D03*
D11*
%TO.P,J6,2,Pin_2*%
%TO.N,GND*%
X80800000Y-87800000D03*
%TO.P,J6,3,Pin_3*%
%TO.N,/CAN-*%
X80800000Y-90300000D03*
%TO.P,J6,4,Pin_4*%
%TO.N,/CAN+*%
X80800000Y-92800000D03*
%TO.P,J6,5,Pin_5*%
%TO.N,+3V3*%
X80800000Y-95300000D03*
%TD*%
D12*
%TO.P,C4,1*%
%TO.N,+3V3*%
X93600000Y-91225000D03*
%TO.P,C4,2*%
%TO.N,GND*%
X93600000Y-92775000D03*
%TD*%
D13*
%TO.P,R7,1*%
%TO.N,Net-(D4-K)*%
X93400000Y-79237500D03*
%TO.P,R7,2*%
%TO.N,GND*%
X93400000Y-80887500D03*
%TD*%
D14*
%TO.P,Q2,1,G*%
%TO.N,/SRV2_EN*%
X98100000Y-81000000D03*
%TO.P,Q2,2,S*%
%TO.N,/SRV2_SENSE*%
X100000000Y-81000000D03*
%TO.P,Q2,3,D*%
%TO.N,Net-(J7-Pin_3)*%
X99050000Y-79125000D03*
%TD*%
D15*
%TO.P,R3,1*%
%TO.N,/SRV1_SENSE*%
X91700000Y-80887500D03*
%TO.P,R3,2*%
%TO.N,GND*%
X91700000Y-79237500D03*
%TD*%
%TO.P,R1,1*%
%TO.N,Net-(D1-K)*%
X86000000Y-96525000D03*
%TO.P,R1,2*%
%TO.N,GND*%
X86000000Y-94875000D03*
%TD*%
%TO.P,R5,1*%
%TO.N,/SRV3_SENSE*%
X110710000Y-80887500D03*
%TO.P,R5,2*%
%TO.N,GND*%
X110710000Y-79237500D03*
%TD*%
D16*
%TO.P,J7,1,Pin_1*%
%TO.N,/SRV2_PWM*%
X90160000Y-75900000D03*
D17*
%TO.P,J7,2,Pin_2*%
%TO.N,/VSERVO*%
X92700000Y-75900000D03*
%TO.P,J7,3,Pin_3*%
%TO.N,Net-(J7-Pin_3)*%
X95240000Y-75900000D03*
%TD*%
D13*
%TO.P,R8,1*%
%TO.N,Net-(D5-K)*%
X103210000Y-79237500D03*
%TO.P,R8,2*%
%TO.N,GND*%
X103210000Y-80887500D03*
%TD*%
D18*
%TO.P,J5,1,Pin_1*%
%TO.N,+3V3*%
X106550000Y-95200000D03*
D11*
%TO.P,J5,2,Pin_2*%
%TO.N,/CAN+*%
X106550000Y-92700000D03*
%TO.P,J5,3,Pin_3*%
%TO.N,/CAN-*%
X106550000Y-90200000D03*
%TO.P,J5,4,Pin_4*%
%TO.N,GND*%
X106550000Y-87700000D03*
%TO.P,J5,5,Pin_5*%
%TO.N,/RESETB*%
X106550000Y-85200000D03*
%TD*%
D15*
%TO.P,R2,1*%
%TO.N,Net-(D2-K)*%
X87700000Y-96525000D03*
%TO.P,R2,2*%
%TO.N,GND*%
X87700000Y-94875000D03*
%TD*%
D19*
%TO.P,J2,1,Pin_1*%
%TO.N,GND*%
X97425000Y-98017500D03*
D20*
%TO.P,J2,2,Pin_2*%
%TO.N,/VSERVO*%
X99965000Y-98017500D03*
%TD*%
D14*
%TO.P,Q1,1,G*%
%TO.N,/SRV1_EN*%
X88200000Y-81000000D03*
%TO.P,Q1,2,S*%
%TO.N,/SRV1_SENSE*%
X90100000Y-81000000D03*
%TO.P,Q1,3,D*%
%TO.N,Net-(J4-Pin_3)*%
X89150000Y-79125000D03*
%TD*%
%TO.P,Q3,1,G*%
%TO.N,/SRV3_EN*%
X107060000Y-81000000D03*
%TO.P,Q3,2,S*%
%TO.N,/SRV3_SENSE*%
X108960000Y-81000000D03*
%TO.P,Q3,3,D*%
%TO.N,Net-(J8-Pin_3)*%
X108010000Y-79125000D03*
%TD*%
D16*
%TO.P,J8,1,Pin_1*%
%TO.N,/SRV3_PWM*%
X100600000Y-75900000D03*
D17*
%TO.P,J8,2,Pin_2*%
%TO.N,/VSERVO*%
X103140000Y-75900000D03*
%TO.P,J8,3,Pin_3*%
%TO.N,Net-(J8-Pin_3)*%
X105680000Y-75900000D03*
%TD*%
D21*
%TO.P,D3,1,K*%
%TO.N,Net-(D3-K)*%
X85850000Y-79295000D03*
%TO.P,D3,2,A*%
%TO.N,/SRV1_STAT*%
X85850000Y-80870000D03*
%TD*%
D12*
%TO.P,C1,1*%
%TO.N,+3V3*%
X86900000Y-84025000D03*
%TO.P,C1,2*%
%TO.N,GND*%
X86900000Y-85575000D03*
%TD*%
D22*
%TO.P,C2,1*%
%TO.N,+3V3*%
X87200000Y-88575000D03*
%TO.P,C2,2*%
%TO.N,GND*%
X87200000Y-87025000D03*
%TD*%
D23*
%TO.P,U2,1,D*%
%TO.N,/CANTX*%
X97295000Y-89463800D03*
%TO.P,U2,2,GND*%
%TO.N,GND*%
X98565000Y-89463800D03*
%TO.P,U2,3,VCC*%
%TO.N,+3V3*%
X99835000Y-89463800D03*
%TO.P,U2,4,R*%
%TO.N,/CANRX*%
X101105000Y-89463800D03*
%TO.P,U2,5,NC*%
%TO.N,unconnected-(U2-NC-Pad5)*%
X101105000Y-84536200D03*
%TO.P,U2,6,CANL*%
%TO.N,/CAN-*%
X99835000Y-84536200D03*
%TO.P,U2,7,CANH*%
%TO.N,/CAN+*%
X98565000Y-84536200D03*
%TO.P,U2,8,NC*%
%TO.N,unconnected-(U2-NC-Pad8)*%
X97295000Y-84536200D03*
%TD*%
D16*
%TO.P,J4,1,Pin_1*%
%TO.N,/SRV1_PWM*%
X79760000Y-75962500D03*
D17*
%TO.P,J4,2,Pin_2*%
%TO.N,/VSERVO*%
X82300000Y-75962500D03*
%TO.P,J4,3,Pin_3*%
%TO.N,Net-(J4-Pin_3)*%
X84840000Y-75962500D03*
%TD*%
D21*
%TO.P,D1,1,K*%
%TO.N,Net-(D1-K)*%
X85700000Y-99712500D03*
%TO.P,D1,2,A*%
%TO.N,+3V3*%
X85700000Y-101287500D03*
%TD*%
D19*
%TO.P,J3,1,Pin_1*%
%TO.N,GND*%
X90625000Y-98017500D03*
D20*
%TO.P,J3,2,Pin_2*%
%TO.N,/VSERVO*%
X93165000Y-98017500D03*
%TD*%
D15*
%TO.P,R4,1*%
%TO.N,/SRV2_SENSE*%
X101600000Y-80887500D03*
%TO.P,R4,2*%
%TO.N,GND*%
X101600000Y-79237500D03*
%TD*%
D12*
%TO.P,C8,1*%
%TO.N,/VSERVO*%
X108400000Y-75125000D03*
%TO.P,C8,2*%
%TO.N,GND*%
X108400000Y-76675000D03*
%TD*%
D24*
%TO.P,J1,1,VCC*%
%TO.N,+3V3*%
X87730000Y-92635000D03*
%TO.P,J1,2,SWDIO*%
%TO.N,/SWDIO*%
X87730000Y-91365000D03*
%TO.P,J1,3,~{RESET}*%
%TO.N,/RESETB*%
X89000000Y-92635000D03*
%TO.P,J1,4,SWCLK*%
%TO.N,/SWCLK*%
X89000000Y-91365000D03*
%TO.P,J1,5,GND*%
%TO.N,GND*%
X90270000Y-92635000D03*
%TO.P,J1,6,SWO*%
%TO.N,unconnected-(J1-SWO-Pad6)*%
X90270000Y-91365000D03*
%TD*%
D25*
%TO.P,U1,1,PB7/PB8*%
%TO.N,/SRV1_PWM*%
X89179000Y-83075000D03*
%TO.P,U1,2,PC14-OSCX_IN*%
%TO.N,/SRV1_EN*%
X89179000Y-83725001D03*
%TO.P,U1,3,PC15-OSCX_OUT*%
%TO.N,/SRV1_SENSE*%
X89179000Y-84374999D03*
%TO.P,U1,4,VDD/VDDA*%
%TO.N,+3V3*%
X89179000Y-85025001D03*
%TO.P,U1,5,VSS/VSSA*%
%TO.N,GND*%
X89179000Y-85674999D03*
%TO.P,U1,6,PF2-NRST*%
%TO.N,/RESETB*%
X89179000Y-86324998D03*
%TO.P,U1,7,PA0*%
%TO.N,/STATUS*%
X89179000Y-86974999D03*
%TO.P,U1,8,PA1*%
%TO.N,/SRV1_STAT*%
X89179000Y-87624998D03*
%TO.P,U1,9,PA2*%
%TO.N,/SRV2_PWM*%
X89179000Y-88274999D03*
%TO.P,U1,10,PA3*%
%TO.N,/SRV2_EN*%
X89179000Y-88924998D03*
%TO.P,U1,11,PA4*%
%TO.N,/SRV3_STAT*%
X95021000Y-88925000D03*
%TO.P,U1,12,PA5*%
%TO.N,/SRV2_STAT*%
X95021000Y-88275002D03*
%TO.P,U1,13,PA6*%
%TO.N,/SRV3_SENSE*%
X95021000Y-87625001D03*
%TO.P,U1,14,PA7*%
%TO.N,/SRV3_EN*%
X95021000Y-86975002D03*
%TO.P,U1,15,PB0/PB1/PB2/PA8*%
%TO.N,/SRV3_PWM*%
X95021000Y-86325001D03*
%TO.P,U1,16,PA11[PA9]*%
%TO.N,/SRV2_SENSE*%
X95021000Y-85675002D03*
%TO.P,U1,17,PA12[PA10]*%
%TO.N,/CANTX*%
X95021000Y-85025001D03*
%TO.P,U1,18,PA13*%
%TO.N,/SWDIO*%
X95021000Y-84375002D03*
%TO.P,U1,19,PA14-BOOT0/PA15*%
%TO.N,/SWCLK*%
X95021000Y-83725001D03*
%TO.P,U1,20,PB3/PB4/PB5/PB6*%
%TO.N,/CANRX*%
X95021000Y-83075002D03*
%TD*%
D21*
%TO.P,D4,1,K*%
%TO.N,Net-(D4-K)*%
X95800000Y-79295000D03*
%TO.P,D4,2,A*%
%TO.N,/SRV2_STAT*%
X95800000Y-80870000D03*
%TD*%
%TO.P,D5,1,K*%
%TO.N,Net-(D5-K)*%
X105310000Y-79295000D03*
%TO.P,D5,2,A*%
%TO.N,/SRV3_STAT*%
X105310000Y-80870000D03*
%TD*%
D13*
%TO.P,R6,1*%
%TO.N,Net-(D3-K)*%
X83450000Y-79237500D03*
%TO.P,R6,2*%
%TO.N,GND*%
X83450000Y-80887500D03*
%TD*%
D12*
%TO.P,C7,1*%
%TO.N,/VSERVO*%
X97900000Y-75150000D03*
%TO.P,C7,2*%
%TO.N,GND*%
X97900000Y-76700000D03*
%TD*%
%TO.P,C6,1*%
%TO.N,/VSERVO*%
X87500000Y-75287500D03*
%TO.P,C6,2*%
%TO.N,GND*%
X87500000Y-76837500D03*
%TD*%
D21*
%TO.P,D2,1,K*%
%TO.N,Net-(D2-K)*%
X87700000Y-99712500D03*
%TO.P,D2,2,A*%
%TO.N,/STATUS*%
X87700000Y-101287500D03*
%TD*%
D22*
%TO.P,C5,1*%
%TO.N,/VSERVO*%
X102900000Y-100875000D03*
%TO.P,C5,2*%
%TO.N,GND*%
X102900000Y-99325000D03*
%TD*%
D26*
%TO.P,C3,1*%
%TO.N,+3V3*%
X99675000Y-91700000D03*
%TO.P,C3,2*%
%TO.N,GND*%
X98125000Y-91700000D03*
%TD*%
D27*
%TO.N,GND*%
X108300000Y-86800000D03*
X86359620Y-86540380D03*
X83400000Y-96400000D03*
X78500000Y-88200000D03*
X104000000Y-87500000D03*
%TO.N,/STATUS*%
X88600000Y-98700000D03*
X93400000Y-90200000D03*
%TO.N,/SRV1_STAT*%
X85300000Y-84600000D03*
X86800000Y-81400000D03*
%TO.N,/SRV3_STAT*%
X96555741Y-88275001D03*
X105704669Y-81585429D03*
%TO.N,/SWCLK*%
X93100000Y-88800000D03*
X93771041Y-83550000D03*
X90419724Y-90483929D03*
X91350000Y-84600000D03*
%TO.N,/SWDIO*%
X96100000Y-90400000D03*
X93745710Y-84850000D03*
%TO.N,/RESETB*%
X90800000Y-86300000D03*
X87109620Y-94009620D03*
%TO.N,Net-(J4-Pin_3)*%
X88100000Y-78800000D03*
%TO.N,/CAN+*%
X102867722Y-91875000D03*
%TO.N,/CAN-*%
X103487489Y-91043285D03*
%TO.N,Net-(J7-Pin_3)*%
X98700000Y-77800000D03*
%TO.N,/SRV2_PWM*%
X90427707Y-87771521D03*
X83000000Y-85900000D03*
%TO.N,Net-(J8-Pin_3)*%
X108900000Y-78200000D03*
%TO.N,/SRV3_PWM*%
X105141682Y-84780957D03*
X97383652Y-86710549D03*
X106500000Y-83300000D03*
%TO.N,/SRV2_EN*%
X91230825Y-88415750D03*
X92900000Y-86500000D03*
%TO.N,/SRV2_SENSE*%
X100600000Y-82200000D03*
X93100000Y-82900000D03*
%TO.N,/SRV3_EN*%
X104736919Y-84033514D03*
X96549231Y-87003617D03*
%TO.N,/SRV3_SENSE*%
X107774466Y-82450000D03*
X95995635Y-87648626D03*
%TD*%
D28*
%TO.N,+3V3*%
X96701000Y-90648943D02*
X96807457Y-90755400D01*
X86900000Y-84025000D02*
X85644239Y-84025000D01*
X87730000Y-92635000D02*
X87021849Y-92635000D01*
X89179000Y-85025001D02*
X87900001Y-85025001D01*
X87900001Y-85025001D02*
X86900000Y-84025000D01*
X99472200Y-88172200D02*
X99835000Y-88535000D01*
X87200000Y-88900000D02*
X87200000Y-88575000D01*
X99835000Y-88535000D02*
X99835000Y-89463800D01*
X80800000Y-95300000D02*
X87200000Y-88900000D01*
X89811793Y-89421835D02*
X89533628Y-89700000D01*
X85509314Y-88575000D02*
X87200000Y-88575000D01*
X80800000Y-96387500D02*
X80800000Y-95300000D01*
X82000000Y-94100000D02*
X80800000Y-95300000D01*
X89533628Y-89700000D02*
X87875000Y-89700000D01*
X96701000Y-90151057D02*
X96701000Y-90648943D01*
X99835000Y-89463800D02*
X99835000Y-91540000D01*
X93543534Y-91225000D02*
X92056234Y-89737700D01*
X90842555Y-89421835D02*
X89811793Y-89421835D01*
X85569239Y-83950000D02*
X85030761Y-83950000D01*
X96807457Y-90755400D02*
X97875400Y-90755400D01*
X87200000Y-89025000D02*
X87200000Y-88575000D01*
X84400000Y-84580761D02*
X84400000Y-87465686D01*
X91158420Y-89737700D02*
X90842555Y-89421835D01*
X106550000Y-95200000D02*
X103175000Y-95200000D01*
X85700000Y-101287500D02*
X80800000Y-96387500D01*
X84400000Y-87465686D02*
X85509314Y-88575000D01*
X87021849Y-92635000D02*
X85556849Y-94100000D01*
X99835000Y-91540000D02*
X99675000Y-91700000D01*
X93600000Y-91225000D02*
X93543534Y-91225000D01*
X103175000Y-95200000D02*
X99675000Y-91700000D01*
X85644239Y-84025000D02*
X85569239Y-83950000D01*
X97984600Y-90646200D02*
X97984600Y-88172200D01*
X85030761Y-83950000D02*
X84400000Y-84580761D01*
X94355761Y-91225000D02*
X95781761Y-89799000D01*
X97984600Y-88172200D02*
X99472200Y-88172200D01*
X95781761Y-89799000D02*
X96348943Y-89799000D01*
X87875000Y-89700000D02*
X87200000Y-89025000D01*
X97875400Y-90755400D02*
X97984600Y-90646200D01*
X85556849Y-94100000D02*
X82000000Y-94100000D01*
X93600000Y-91225000D02*
X94355761Y-91225000D01*
X96348943Y-89799000D02*
X96701000Y-90151057D01*
X92056234Y-89737700D02*
X91158420Y-89737700D01*
%TO.N,GND*%
X107409000Y-78491000D02*
X107409000Y-77666000D01*
X89179000Y-85674999D02*
X86999999Y-85674999D01*
X110710000Y-79237500D02*
X110710000Y-78985000D01*
X93125000Y-92775000D02*
X92519700Y-92169700D01*
X97900000Y-76700000D02*
X97900000Y-78509100D01*
X99062500Y-76700000D02*
X97900000Y-76700000D01*
X89179000Y-85674999D02*
X90115600Y-85674999D01*
X93600000Y-95042500D02*
X90625000Y-98017500D01*
X101600000Y-79237500D02*
X101600000Y-79277500D01*
X98726000Y-96716500D02*
X97425000Y-98017500D01*
X85482032Y-77512500D02*
X86157032Y-76837500D01*
X90115600Y-85674999D02*
X90700000Y-85090599D01*
X102900000Y-99112608D02*
X100503892Y-96716500D01*
X107409000Y-77666000D02*
X108400000Y-76675000D01*
X78500000Y-88200000D02*
X78900000Y-87800000D01*
X88825000Y-76837500D02*
X87500000Y-76837500D01*
X87700000Y-94875000D02*
X86000000Y-94875000D01*
X82674000Y-78826000D02*
X83987500Y-77512500D01*
X96124000Y-96716500D02*
X97425000Y-98017500D01*
X97900000Y-78509100D02*
X96297600Y-80111500D01*
X90625000Y-98017500D02*
X91926000Y-96716500D01*
X88030000Y-94875000D02*
X87700000Y-94875000D01*
X91700000Y-79237500D02*
X91225000Y-79237500D01*
X98565000Y-91260000D02*
X98125000Y-91700000D01*
X86644240Y-87025000D02*
X86359620Y-86740380D01*
X90700000Y-84330761D02*
X91600001Y-83430760D01*
X100503892Y-96716500D02*
X98726000Y-96716500D01*
X90700000Y-85090599D02*
X90700000Y-84330761D01*
X92519700Y-92169700D02*
X90735300Y-92169700D01*
X92925000Y-80887500D02*
X93400000Y-80887500D01*
X86359620Y-86740380D02*
X86359620Y-86540380D01*
X103210000Y-84360000D02*
X106550000Y-87700000D01*
X103966000Y-80131500D02*
X105768500Y-80131500D01*
X98565000Y-89463800D02*
X98565000Y-91260000D01*
X96297600Y-80111500D02*
X94176000Y-80111500D01*
X86157032Y-76837500D02*
X87500000Y-76837500D01*
X101600000Y-79277500D02*
X103210000Y-80887500D01*
X90735300Y-92169700D02*
X90270000Y-92635000D01*
X103210000Y-80887500D02*
X103966000Y-80131500D01*
X82674000Y-80111500D02*
X82674000Y-78826000D01*
X101600000Y-79237500D02*
X99062500Y-76700000D01*
X105768500Y-80131500D02*
X107409000Y-78491000D01*
X97050000Y-92775000D02*
X93600000Y-92775000D01*
X93600000Y-92775000D02*
X93125000Y-92775000D01*
X91926000Y-96716500D02*
X96124000Y-96716500D01*
X78900000Y-87800000D02*
X80800000Y-87800000D01*
X87200000Y-85875000D02*
X86900000Y-85575000D01*
X93400000Y-80887500D02*
X94176000Y-80111500D01*
X87200000Y-87025000D02*
X87200000Y-85875000D01*
X98125000Y-91700000D02*
X97050000Y-92775000D01*
X83450000Y-80887500D02*
X82674000Y-80111500D01*
X91600001Y-82212499D02*
X92925000Y-80887500D01*
X83987500Y-77512500D02*
X85482032Y-77512500D01*
X91700000Y-79237500D02*
X91750000Y-79237500D01*
X102900000Y-99325000D02*
X102900000Y-99112608D01*
X103210000Y-80887500D02*
X103210000Y-84360000D01*
X86999999Y-85674999D02*
X86900000Y-85575000D01*
X91225000Y-79237500D02*
X88825000Y-76837500D01*
X87200000Y-87025000D02*
X86644240Y-87025000D01*
X93600000Y-92775000D02*
X93600000Y-95042500D01*
X90270000Y-92635000D02*
X88030000Y-94875000D01*
X110710000Y-78985000D02*
X108400000Y-76675000D01*
X91750000Y-79237500D02*
X93400000Y-80887500D01*
X91600001Y-83430760D02*
X91600001Y-82212499D01*
%TO.N,/VSERVO*%
X88038500Y-74749000D02*
X87500000Y-75287500D01*
X98301000Y-74749000D02*
X101989000Y-74749000D01*
X91549000Y-74749000D02*
X88038500Y-74749000D01*
X83451000Y-74811500D02*
X87024000Y-74811500D01*
X92700000Y-75900000D02*
X93851000Y-74749000D01*
X102822500Y-100875000D02*
X102900000Y-100875000D01*
X99965000Y-98017500D02*
X102822500Y-100875000D01*
X93851000Y-74749000D02*
X97499000Y-74749000D01*
X87024000Y-74811500D02*
X87500000Y-75287500D01*
X104291000Y-74749000D02*
X108024000Y-74749000D01*
X101989000Y-74749000D02*
X103140000Y-75900000D01*
X82300000Y-75962500D02*
X83451000Y-74811500D01*
X92700000Y-75900000D02*
X91549000Y-74749000D01*
X98664000Y-99318500D02*
X99965000Y-98017500D01*
X108024000Y-74749000D02*
X108400000Y-75125000D01*
X97499000Y-74749000D02*
X97900000Y-75150000D01*
X103140000Y-75900000D02*
X104291000Y-74749000D01*
X93165000Y-98017500D02*
X94466000Y-99318500D01*
X94466000Y-99318500D02*
X98664000Y-99318500D01*
X97900000Y-75150000D02*
X98301000Y-74749000D01*
%TO.N,Net-(D1-K)*%
X85700000Y-96825000D02*
X86000000Y-96525000D01*
X85700000Y-99712500D02*
X85700000Y-96825000D01*
%TO.N,/STATUS*%
X90709313Y-86974999D02*
X91909620Y-88175306D01*
X89179000Y-86974999D02*
X90709313Y-86974999D01*
X91909620Y-88709620D02*
X93400000Y-90200000D01*
X91909620Y-88175306D02*
X91909620Y-88709620D01*
X88600000Y-98700000D02*
X88600000Y-100387500D01*
X88600000Y-100387500D02*
X87700000Y-101287500D01*
%TO.N,Net-(D2-K)*%
X87700000Y-96525000D02*
X87700000Y-99712500D01*
%TO.N,Net-(D3-K)*%
X85850000Y-79295000D02*
X83507500Y-79295000D01*
X83507500Y-79295000D02*
X83450000Y-79237500D01*
%TO.N,/SRV1_STAT*%
X86800000Y-81400000D02*
X86380000Y-81400000D01*
X86725890Y-87776000D02*
X85300000Y-86350110D01*
X85300000Y-86350110D02*
X85300000Y-84600000D01*
X89027998Y-87776000D02*
X86725890Y-87776000D01*
X89179000Y-87624998D02*
X89027998Y-87776000D01*
X86380000Y-81400000D02*
X85850000Y-80870000D01*
%TO.N,/SRV2_STAT*%
X95021000Y-88275002D02*
X93755763Y-88275002D01*
X94873625Y-80870000D02*
X95800000Y-80870000D01*
X92665076Y-81850000D02*
X93893625Y-81850000D01*
X93893625Y-81850000D02*
X94873625Y-80870000D01*
X92300000Y-86819239D02*
X92300000Y-85431372D01*
X92000000Y-82515076D02*
X92665076Y-81850000D01*
X92000000Y-85131371D02*
X92000000Y-82515076D01*
X92300000Y-85431372D02*
X92000000Y-85131371D01*
X93755763Y-88275002D02*
X92300000Y-86819239D01*
%TO.N,Net-(D4-K)*%
X93400000Y-79237500D02*
X95742500Y-79237500D01*
X95742500Y-79237500D02*
X95800000Y-79295000D01*
%TO.N,/SRV3_STAT*%
X95957600Y-88925000D02*
X96555741Y-88326859D01*
X96555741Y-88326859D02*
X96555741Y-88275001D01*
X105310000Y-81345146D02*
X105550283Y-81585429D01*
X95021000Y-88925000D02*
X95957600Y-88925000D01*
X105310000Y-80870000D02*
X105310000Y-81345146D01*
X105550283Y-81585429D02*
X105704669Y-81585429D01*
%TO.N,Net-(D5-K)*%
X105310000Y-79295000D02*
X103267500Y-79295000D01*
X103267500Y-79295000D02*
X103210000Y-79237500D01*
%TO.N,/SWCLK*%
X89000000Y-91365000D02*
X89881071Y-90483929D01*
X89881071Y-90483929D02*
X90419724Y-90483929D01*
X91900000Y-87600000D02*
X91900000Y-85597056D01*
X91350000Y-85047056D02*
X91350000Y-84600000D01*
X95021000Y-83725001D02*
X93946042Y-83725001D01*
X93100000Y-88800000D02*
X91900000Y-87600000D01*
X91900000Y-85597056D02*
X91350000Y-85047056D01*
X93946042Y-83725001D02*
X93771041Y-83550000D01*
%TO.N,/SWDIO*%
X94084400Y-84375002D02*
X93745710Y-84713692D01*
X94500000Y-92000000D02*
X96100000Y-90400000D01*
X89965385Y-89833929D02*
X90688963Y-89833929D01*
X87730000Y-91365000D02*
X88995000Y-90100000D01*
X92386300Y-91334549D02*
X93051751Y-92000000D01*
X88995000Y-90100000D02*
X89699314Y-90100000D01*
X93745710Y-84713692D02*
X93745710Y-84850000D01*
X89699314Y-90100000D02*
X89965385Y-89833929D01*
X92386300Y-90633451D02*
X92386300Y-91334549D01*
X95021000Y-84375002D02*
X94084400Y-84375002D01*
X90992734Y-90137700D02*
X91890549Y-90137700D01*
X90688963Y-89833929D02*
X90992734Y-90137700D01*
X91890549Y-90137700D02*
X92386300Y-90633451D01*
X93051751Y-92000000D02*
X94500000Y-92000000D01*
%TO.N,/RESETB*%
X90775002Y-86324998D02*
X90800000Y-86300000D01*
X89000000Y-92635000D02*
X87625380Y-94009620D01*
X89179000Y-86324998D02*
X90775002Y-86324998D01*
X87625380Y-94009620D02*
X87109620Y-94009620D01*
%TO.N,Net-(J4-Pin_3)*%
X88825000Y-78800000D02*
X88100000Y-78800000D01*
X89150000Y-79125000D02*
X88825000Y-78800000D01*
%TO.N,/SRV1_PWM*%
X79760000Y-75962500D02*
X79760000Y-78386564D01*
X79760000Y-78386564D02*
X84448436Y-83075000D01*
X84448436Y-83075000D02*
X89179000Y-83075000D01*
%TO.N,/CAN+*%
X102700000Y-91707278D02*
X102867722Y-91875000D01*
X102700000Y-89273200D02*
X102700000Y-91707278D01*
X98565000Y-84536200D02*
X98565000Y-85138200D01*
X98565000Y-85138200D02*
X102700000Y-89273200D01*
%TO.N,/CAN-*%
X103300000Y-88712400D02*
X103300000Y-90855796D01*
X99835000Y-84536200D02*
X99835000Y-85247400D01*
X99835000Y-85247400D02*
X103300000Y-88712400D01*
X103300000Y-90855796D02*
X103487489Y-91043285D01*
%TO.N,Net-(J7-Pin_3)*%
X99050000Y-78150000D02*
X98700000Y-77800000D01*
X99050000Y-79125000D02*
X99050000Y-78150000D01*
%TO.N,/SRV2_PWM*%
X78609000Y-77802664D02*
X78609000Y-74811500D01*
X89179000Y-88274999D02*
X90115600Y-88274999D01*
X86342346Y-76086500D02*
X89973500Y-76086500D01*
X89973500Y-76086500D02*
X90160000Y-75900000D01*
X81149000Y-76439260D02*
X81822240Y-77112500D01*
X85316346Y-77112500D02*
X86342346Y-76086500D01*
X80776760Y-74811500D02*
X81149000Y-75183740D01*
X90115600Y-88274999D02*
X90427707Y-87962892D01*
X78609000Y-74811500D02*
X80776760Y-74811500D01*
X90427707Y-87962892D02*
X90427707Y-87771521D01*
X83000000Y-82193664D02*
X78609000Y-77802664D01*
X81149000Y-75183740D02*
X81149000Y-76439260D01*
X83000000Y-85900000D02*
X83000000Y-82193664D01*
X81822240Y-77112500D02*
X85316346Y-77112500D01*
%TO.N,Net-(J8-Pin_3)*%
X108010000Y-79090000D02*
X108900000Y-78200000D01*
X108010000Y-79125000D02*
X108010000Y-79090000D01*
%TO.N,/SRV3_PWM*%
X95021000Y-86325001D02*
X96998104Y-86325001D01*
X105141682Y-84780957D02*
X105141682Y-84658318D01*
X105141682Y-84658318D02*
X106500000Y-83300000D01*
X96998104Y-86325001D02*
X97383652Y-86710549D01*
%TO.N,/SRV1_EN*%
X90216600Y-82596200D02*
X90216600Y-83624001D01*
X88620400Y-81000000D02*
X90216600Y-82596200D01*
X90216600Y-83624001D02*
X90115600Y-83725001D01*
X90115600Y-83725001D02*
X89179000Y-83725001D01*
X88200000Y-81000000D02*
X88620400Y-81000000D01*
%TO.N,/SRV1_SENSE*%
X90090077Y-84374999D02*
X91000000Y-83465076D01*
X90100000Y-81000000D02*
X91587500Y-81000000D01*
X91587500Y-81000000D02*
X91700000Y-80887500D01*
X91000000Y-81900000D02*
X90100000Y-81000000D01*
X91000000Y-83465076D02*
X91000000Y-81900000D01*
X89179000Y-84374999D02*
X90090077Y-84374999D01*
%TO.N,/SRV2_EN*%
X96850000Y-82250000D02*
X92830761Y-82250000D01*
X89179000Y-88924998D02*
X90721577Y-88924998D01*
X92400000Y-82680761D02*
X92400000Y-84965686D01*
X98100000Y-81000000D02*
X96850000Y-82250000D01*
X92400000Y-84965686D02*
X92950000Y-85515686D01*
X92950000Y-85515686D02*
X92950000Y-86450000D01*
X92950000Y-86450000D02*
X92900000Y-86500000D01*
X90721577Y-88924998D02*
X91230825Y-88415750D01*
X92830761Y-82250000D02*
X92400000Y-82680761D01*
%TO.N,/SRV2_SENSE*%
X100600000Y-82200000D02*
X100600000Y-81600000D01*
X100000000Y-81000000D02*
X101487500Y-81000000D01*
X101487500Y-81000000D02*
X101600000Y-80887500D01*
X93100000Y-85100000D02*
X93100000Y-82900000D01*
X93675002Y-85675002D02*
X93300000Y-85300000D01*
X93300000Y-85300000D02*
X93100000Y-85100000D01*
X95021000Y-85675002D02*
X93675002Y-85675002D01*
X100600000Y-81600000D02*
X100000000Y-81000000D01*
%TO.N,/SRV3_EN*%
X104916486Y-84033514D02*
X104736919Y-84033514D01*
X107060000Y-81890000D02*
X104916486Y-84033514D01*
X107060000Y-81000000D02*
X107060000Y-81890000D01*
X95021000Y-86975002D02*
X96520616Y-86975002D01*
X96520616Y-86975002D02*
X96549231Y-87003617D01*
%TO.N,/SRV3_SENSE*%
X108960000Y-81000000D02*
X107774466Y-82185534D01*
X107774466Y-82185534D02*
X107774466Y-82450000D01*
X95021000Y-87625001D02*
X95972010Y-87625001D01*
X95972010Y-87625001D02*
X95995635Y-87648626D01*
X110597500Y-81000000D02*
X110710000Y-80887500D01*
X108960000Y-81000000D02*
X110597500Y-81000000D01*
%TO.N,/CANTX*%
X97295000Y-89463800D02*
X97295000Y-88273200D01*
X98250000Y-86658885D02*
X97418915Y-85827800D01*
X96760399Y-85827800D02*
X95957600Y-85025001D01*
X98250000Y-87318200D02*
X98250000Y-86658885D01*
X97295000Y-88273200D02*
X98250000Y-87318200D01*
X97418915Y-85827800D02*
X96760399Y-85827800D01*
X95957600Y-85025001D02*
X95021000Y-85025001D01*
%TO.N,/CANRX*%
X97984600Y-85827800D02*
X98180200Y-85827800D01*
X97705802Y-83075002D02*
X97875400Y-83244600D01*
X97875400Y-83244600D02*
X97875400Y-85718600D01*
X101105000Y-88752600D02*
X101105000Y-89463800D01*
X97875400Y-85718600D02*
X97984600Y-85827800D01*
X98180200Y-85827800D02*
X101105000Y-88752600D01*
X95021000Y-83075002D02*
X97705802Y-83075002D01*
%TD*%
%TA.AperFunction,Conductor*%
%TO.N,GND*%
G36*
X78243751Y-74120185D02*
G01*
X78289506Y-74172989D01*
X78299450Y-74242147D01*
X78270425Y-74305703D01*
X78246374Y-74325560D01*
X78246735Y-74326030D01*
X78240282Y-74330981D01*
X78128481Y-74442782D01*
X78128475Y-74442790D01*
X78049426Y-74579709D01*
X78049423Y-74579716D01*
X78008500Y-74732443D01*
X78008500Y-77715994D01*
X78008499Y-77716012D01*
X78008499Y-77881718D01*
X78008498Y-77881718D01*
X78049424Y-78034453D01*
X78049425Y-78034454D01*
X78070492Y-78070942D01*
X78070493Y-78070944D01*
X78128475Y-78171373D01*
X78128481Y-78171381D01*
X78247349Y-78290249D01*
X78247355Y-78290254D01*
X82363181Y-82406080D01*
X82396666Y-82467403D01*
X82399500Y-82493761D01*
X82399500Y-84250957D01*
X82379815Y-84317996D01*
X82327011Y-84363751D01*
X82257853Y-84373695D01*
X82194297Y-84344670D01*
X82169961Y-84316054D01*
X82117712Y-84231344D01*
X81993656Y-84107288D01*
X81844334Y-84015186D01*
X81677797Y-83960001D01*
X81677795Y-83960000D01*
X81575010Y-83949500D01*
X80024998Y-83949500D01*
X80024981Y-83949501D01*
X79922203Y-83960000D01*
X79922200Y-83960001D01*
X79755668Y-84015185D01*
X79755663Y-84015187D01*
X79606342Y-84107289D01*
X79482289Y-84231342D01*
X79390187Y-84380663D01*
X79390185Y-84380668D01*
X79367052Y-84450479D01*
X79335001Y-84547203D01*
X79335001Y-84547204D01*
X79335000Y-84547204D01*
X79324500Y-84649983D01*
X79324500Y-85950001D01*
X79324501Y-85950018D01*
X79335000Y-86052796D01*
X79335001Y-86052799D01*
X79390185Y-86219331D01*
X79390187Y-86219336D01*
X79396832Y-86230109D01*
X79482288Y-86368656D01*
X79606344Y-86492712D01*
X79700309Y-86550670D01*
X79761558Y-86588448D01*
X79808283Y-86640396D01*
X79819506Y-86709358D01*
X79791663Y-86773441D01*
X79784144Y-86781668D01*
X79645271Y-86920541D01*
X79520379Y-87092442D01*
X79423904Y-87281782D01*
X79358242Y-87483870D01*
X79358242Y-87483873D01*
X79347769Y-87550000D01*
X80395854Y-87550000D01*
X80357370Y-87616657D01*
X80325000Y-87737465D01*
X80325000Y-87862535D01*
X80357370Y-87983343D01*
X80395854Y-88050000D01*
X79347769Y-88050000D01*
X79358242Y-88116126D01*
X79358242Y-88116129D01*
X79423904Y-88318217D01*
X79520379Y-88507557D01*
X79645272Y-88679459D01*
X79645276Y-88679464D01*
X79795535Y-88829723D01*
X79795540Y-88829727D01*
X79960218Y-88949372D01*
X80002884Y-89004701D01*
X80008863Y-89074315D01*
X79976258Y-89136110D01*
X79960218Y-89150008D01*
X79795214Y-89269890D01*
X79795209Y-89269894D01*
X79644890Y-89420213D01*
X79519951Y-89592179D01*
X79423444Y-89781585D01*
X79357753Y-89983760D01*
X79324500Y-90193713D01*
X79324500Y-90406286D01*
X79350836Y-90572568D01*
X79357754Y-90616243D01*
X79421342Y-90811947D01*
X79423444Y-90818414D01*
X79519951Y-91007820D01*
X79644890Y-91179786D01*
X79795209Y-91330105D01*
X79795214Y-91330109D01*
X79959793Y-91449682D01*
X80002459Y-91505011D01*
X80008438Y-91574625D01*
X79975833Y-91636420D01*
X79959793Y-91650318D01*
X79795214Y-91769890D01*
X79795209Y-91769894D01*
X79644890Y-91920213D01*
X79519951Y-92092179D01*
X79423444Y-92281585D01*
X79357753Y-92483760D01*
X79333799Y-92635000D01*
X79324500Y-92693713D01*
X79324500Y-92906287D01*
X79357754Y-93116243D01*
X79420216Y-93308481D01*
X79423444Y-93318414D01*
X79519951Y-93507820D01*
X79644890Y-93679786D01*
X79795209Y-93830105D01*
X79795214Y-93830109D01*
X79959793Y-93949682D01*
X80002459Y-94005011D01*
X80008438Y-94074625D01*
X79975833Y-94136420D01*
X79959793Y-94150318D01*
X79795214Y-94269890D01*
X79795209Y-94269894D01*
X79644890Y-94420213D01*
X79519951Y-94592179D01*
X79423444Y-94781585D01*
X79357753Y-94983760D01*
X79324500Y-95193713D01*
X79324500Y-95406286D01*
X79349538Y-95564374D01*
X79357754Y-95616243D01*
X79414058Y-95789529D01*
X79423444Y-95818414D01*
X79519951Y-96007820D01*
X79644890Y-96179786D01*
X79795213Y-96330109D01*
X79967179Y-96455048D01*
X79967181Y-96455049D01*
X79967184Y-96455051D01*
X80056256Y-96500435D01*
X80156587Y-96551557D01*
X80156593Y-96551559D01*
X80166675Y-96554835D01*
X80189650Y-96570544D01*
X80214335Y-96583413D01*
X80219466Y-96590931D01*
X80224351Y-96594272D01*
X80236026Y-96611255D01*
X80240254Y-96618656D01*
X80240423Y-96619285D01*
X80258445Y-96650500D01*
X80258601Y-96650770D01*
X80319477Y-96756212D01*
X80319481Y-96756217D01*
X80438349Y-96875085D01*
X80438355Y-96875090D01*
X84688181Y-101124916D01*
X84721666Y-101186239D01*
X84724500Y-101212597D01*
X84724500Y-101554181D01*
X84734563Y-101652683D01*
X84787450Y-101812284D01*
X84787455Y-101812295D01*
X84875716Y-101955387D01*
X84875719Y-101955391D01*
X84994608Y-102074280D01*
X84994612Y-102074283D01*
X85137704Y-102162544D01*
X85137707Y-102162545D01*
X85137713Y-102162549D01*
X85297315Y-102215436D01*
X85395826Y-102225500D01*
X85395831Y-102225500D01*
X86004169Y-102225500D01*
X86004174Y-102225500D01*
X86102685Y-102215436D01*
X86262287Y-102162549D01*
X86405391Y-102074281D01*
X86524281Y-101955391D01*
X86594462Y-101841611D01*
X86646409Y-101794886D01*
X86715372Y-101783665D01*
X86779454Y-101811508D01*
X86805538Y-101841611D01*
X86875716Y-101955387D01*
X86875719Y-101955391D01*
X86994608Y-102074280D01*
X86994612Y-102074283D01*
X87137704Y-102162544D01*
X87137707Y-102162545D01*
X87137713Y-102162549D01*
X87297315Y-102215436D01*
X87395826Y-102225500D01*
X87395831Y-102225500D01*
X88004169Y-102225500D01*
X88004174Y-102225500D01*
X88102685Y-102215436D01*
X88262287Y-102162549D01*
X88405391Y-102074281D01*
X88524281Y-101955391D01*
X88612549Y-101812287D01*
X88665436Y-101652685D01*
X88675500Y-101554174D01*
X88675500Y-101212596D01*
X88695185Y-101145557D01*
X88711815Y-101124919D01*
X88958506Y-100878227D01*
X88958511Y-100878224D01*
X88968714Y-100868020D01*
X88968716Y-100868020D01*
X89080520Y-100756216D01*
X89084102Y-100750010D01*
X89147364Y-100640439D01*
X89147365Y-100640437D01*
X89152320Y-100631853D01*
X89159577Y-100619285D01*
X89200500Y-100466558D01*
X89200500Y-100308443D01*
X89200500Y-99452935D01*
X89220185Y-99385896D01*
X89272989Y-99340141D01*
X89342147Y-99330197D01*
X89401414Y-99355671D01*
X89406657Y-99359817D01*
X89555875Y-99451856D01*
X89555880Y-99451858D01*
X89722302Y-99507005D01*
X89722309Y-99507006D01*
X89825019Y-99517499D01*
X90374999Y-99517499D01*
X90375000Y-99517498D01*
X90375000Y-98565982D01*
X90393409Y-98576611D01*
X90546009Y-98617500D01*
X90703991Y-98617500D01*
X90856591Y-98576611D01*
X90875000Y-98565982D01*
X90875000Y-99517499D01*
X91424972Y-99517499D01*
X91424986Y-99517498D01*
X91527697Y-99507005D01*
X91694119Y-99451858D01*
X91694124Y-99451856D01*
X91843345Y-99359815D01*
X91967317Y-99235843D01*
X91997148Y-99187480D01*
X92049096Y-99140755D01*
X92118058Y-99129532D01*
X92182141Y-99157376D01*
X92183773Y-99158867D01*
X92183786Y-99158853D01*
X92187481Y-99162008D01*
X92187490Y-99162017D01*
X92378567Y-99300843D01*
X92477991Y-99351502D01*
X92589003Y-99408066D01*
X92589005Y-99408066D01*
X92589008Y-99408068D01*
X92661192Y-99431522D01*
X92813631Y-99481053D01*
X93046903Y-99518000D01*
X93046908Y-99518000D01*
X93283097Y-99518000D01*
X93389126Y-99501205D01*
X93516368Y-99481053D01*
X93642566Y-99440047D01*
X93712404Y-99438053D01*
X93768563Y-99470298D01*
X93981139Y-99682874D01*
X93981149Y-99682885D01*
X93985479Y-99687215D01*
X93985480Y-99687216D01*
X94097284Y-99799020D01*
X94184095Y-99849139D01*
X94184097Y-99849141D01*
X94222151Y-99871111D01*
X94234215Y-99878077D01*
X94386943Y-99919001D01*
X94386946Y-99919001D01*
X94552653Y-99919001D01*
X94552669Y-99919000D01*
X98577331Y-99919000D01*
X98577347Y-99919001D01*
X98584943Y-99919001D01*
X98743054Y-99919001D01*
X98743057Y-99919001D01*
X98895785Y-99878077D01*
X98945904Y-99849139D01*
X99032716Y-99799020D01*
X99144520Y-99687216D01*
X99144520Y-99687214D01*
X99154728Y-99677007D01*
X99154730Y-99677004D01*
X99361437Y-99470296D01*
X99422758Y-99436813D01*
X99487433Y-99440047D01*
X99613632Y-99481053D01*
X99700302Y-99494780D01*
X99846903Y-99518000D01*
X99846908Y-99518000D01*
X100083097Y-99518000D01*
X100189126Y-99501205D01*
X100316368Y-99481053D01*
X100442566Y-99440047D01*
X100512404Y-99438053D01*
X100568563Y-99470298D01*
X101888181Y-100789916D01*
X101921666Y-100851239D01*
X101924500Y-100877597D01*
X101924500Y-101148336D01*
X101924501Y-101148355D01*
X101934650Y-101247707D01*
X101934651Y-101247710D01*
X101987996Y-101408694D01*
X101988001Y-101408705D01*
X102077029Y-101553040D01*
X102077032Y-101553044D01*
X102196955Y-101672967D01*
X102196959Y-101672970D01*
X102341294Y-101761998D01*
X102341297Y-101761999D01*
X102341303Y-101762003D01*
X102502292Y-101815349D01*
X102601655Y-101825500D01*
X103198344Y-101825499D01*
X103198352Y-101825498D01*
X103198355Y-101825498D01*
X103252760Y-101819940D01*
X103297708Y-101815349D01*
X103458697Y-101762003D01*
X103603044Y-101672968D01*
X103722968Y-101553044D01*
X103812003Y-101408697D01*
X103865349Y-101247708D01*
X103875500Y-101148345D01*
X103875499Y-100601656D01*
X103875089Y-100597648D01*
X111199500Y-100597648D01*
X111199500Y-100802351D01*
X111231522Y-101004534D01*
X111294781Y-101199223D01*
X111387715Y-101381613D01*
X111508028Y-101547213D01*
X111652786Y-101691971D01*
X111749179Y-101762003D01*
X111818390Y-101812287D01*
X111875942Y-101841611D01*
X112000776Y-101905218D01*
X112000778Y-101905218D01*
X112000781Y-101905220D01*
X112105137Y-101939127D01*
X112195465Y-101968477D01*
X112296557Y-101984488D01*
X112397648Y-102000500D01*
X112397649Y-102000500D01*
X112602351Y-102000500D01*
X112602352Y-102000500D01*
X112804534Y-101968477D01*
X112999219Y-101905220D01*
X113181610Y-101812287D01*
X113274590Y-101744732D01*
X113347213Y-101691971D01*
X113347215Y-101691968D01*
X113347219Y-101691966D01*
X113491966Y-101547219D01*
X113491968Y-101547215D01*
X113491971Y-101547213D01*
X113592609Y-101408694D01*
X113612287Y-101381610D01*
X113705220Y-101199219D01*
X113768477Y-101004534D01*
X113800500Y-100802352D01*
X113800500Y-100597648D01*
X113768477Y-100395466D01*
X113750878Y-100341303D01*
X113726609Y-100266611D01*
X113705220Y-100200781D01*
X113705218Y-100200778D01*
X113705218Y-100200776D01*
X113642499Y-100077685D01*
X113612287Y-100018390D01*
X113600910Y-100002731D01*
X113491971Y-99852786D01*
X113347213Y-99708028D01*
X113181613Y-99587715D01*
X113181612Y-99587714D01*
X113181610Y-99587713D01*
X113124653Y-99558691D01*
X112999223Y-99494781D01*
X112804534Y-99431522D01*
X112629995Y-99403878D01*
X112602352Y-99399500D01*
X112397648Y-99399500D01*
X112373329Y-99403351D01*
X112195465Y-99431522D01*
X112000776Y-99494781D01*
X111818386Y-99587715D01*
X111652786Y-99708028D01*
X111508028Y-99852786D01*
X111387715Y-100018386D01*
X111294781Y-100200776D01*
X111231522Y-100395465D01*
X111199500Y-100597648D01*
X103875089Y-100597648D01*
X103874071Y-100587681D01*
X103865349Y-100502292D01*
X103865348Y-100502289D01*
X103864828Y-100500719D01*
X103812003Y-100341303D01*
X103811999Y-100341297D01*
X103811998Y-100341294D01*
X103722970Y-100196959D01*
X103722967Y-100196955D01*
X103713339Y-100187327D01*
X103679854Y-100126004D01*
X103684838Y-100056312D01*
X103713345Y-100011959D01*
X103722573Y-100002731D01*
X103811542Y-99858492D01*
X103811547Y-99858481D01*
X103864855Y-99697606D01*
X103874999Y-99598322D01*
X103875000Y-99598309D01*
X103875000Y-99575000D01*
X103024000Y-99575000D01*
X102956961Y-99555315D01*
X102911206Y-99502511D01*
X102900000Y-99451000D01*
X102900000Y-99325000D01*
X102774000Y-99325000D01*
X102706961Y-99305315D01*
X102661206Y-99252511D01*
X102650000Y-99201000D01*
X102650000Y-99075000D01*
X103150000Y-99075000D01*
X103874999Y-99075000D01*
X103874999Y-99051692D01*
X103874998Y-99051677D01*
X103864855Y-98952392D01*
X103811547Y-98791518D01*
X103811542Y-98791507D01*
X103722575Y-98647271D01*
X103722572Y-98647267D01*
X103602732Y-98527427D01*
X103602728Y-98527424D01*
X103458492Y-98438457D01*
X103458481Y-98438452D01*
X103297606Y-98385144D01*
X103198322Y-98375000D01*
X103150000Y-98375000D01*
X103150000Y-99075000D01*
X102650000Y-99075000D01*
X102650000Y-98375000D01*
X102649999Y-98374999D01*
X102601693Y-98375000D01*
X102601675Y-98375001D01*
X102502392Y-98385144D01*
X102341518Y-98438452D01*
X102341507Y-98438457D01*
X102197271Y-98527424D01*
X102197267Y-98527427D01*
X102077427Y-98647267D01*
X102077424Y-98647271D01*
X101988457Y-98791507D01*
X101988453Y-98791516D01*
X101952080Y-98901282D01*
X101912307Y-98958726D01*
X101847791Y-98985549D01*
X101779015Y-98973234D01*
X101746693Y-98949958D01*
X101417798Y-98621063D01*
X101384313Y-98559740D01*
X101387547Y-98495066D01*
X101428553Y-98368868D01*
X101453630Y-98210539D01*
X101465500Y-98135597D01*
X101465500Y-97899402D01*
X101428553Y-97666131D01*
X101355566Y-97441503D01*
X101299002Y-97330491D01*
X101248343Y-97231067D01*
X101109517Y-97039990D01*
X100942510Y-96872983D01*
X100751433Y-96734157D01*
X100540996Y-96626933D01*
X100316368Y-96553946D01*
X100083097Y-96517000D01*
X100083092Y-96517000D01*
X99846908Y-96517000D01*
X99846903Y-96517000D01*
X99613631Y-96553946D01*
X99389003Y-96626933D01*
X99178566Y-96734157D01*
X99089105Y-96799155D01*
X98987490Y-96872983D01*
X98987488Y-96872985D01*
X98983786Y-96876147D01*
X98982375Y-96874495D01*
X98928938Y-96903612D01*
X98859251Y-96898566D01*
X98803354Y-96856646D01*
X98797149Y-96847520D01*
X98767319Y-96799159D01*
X98767316Y-96799155D01*
X98643345Y-96675184D01*
X98494124Y-96583143D01*
X98494119Y-96583141D01*
X98327697Y-96527994D01*
X98327690Y-96527993D01*
X98224986Y-96517500D01*
X97675000Y-96517500D01*
X97675000Y-97469017D01*
X97656591Y-97458389D01*
X97503991Y-97417500D01*
X97346009Y-97417500D01*
X97193409Y-97458389D01*
X97175000Y-97469017D01*
X97175000Y-96517500D01*
X96625028Y-96517500D01*
X96625012Y-96517501D01*
X96522302Y-96527994D01*
X96355880Y-96583141D01*
X96355875Y-96583143D01*
X96206654Y-96675184D01*
X96082684Y-96799154D01*
X95990643Y-96948375D01*
X95990641Y-96948380D01*
X95935494Y-97114802D01*
X95935493Y-97114809D01*
X95925000Y-97217513D01*
X95925000Y-97767500D01*
X96876518Y-97767500D01*
X96865889Y-97785909D01*
X96825000Y-97938509D01*
X96825000Y-98096491D01*
X96865889Y-98249091D01*
X96876518Y-98267500D01*
X95925001Y-98267500D01*
X95925001Y-98594000D01*
X95905316Y-98661039D01*
X95852512Y-98706794D01*
X95801001Y-98718000D01*
X94766097Y-98718000D01*
X94736656Y-98709355D01*
X94706670Y-98702832D01*
X94701654Y-98699077D01*
X94699058Y-98698315D01*
X94678416Y-98681681D01*
X94617798Y-98621063D01*
X94584313Y-98559740D01*
X94587547Y-98495066D01*
X94628553Y-98368868D01*
X94653630Y-98210539D01*
X94665500Y-98135597D01*
X94665500Y-97899402D01*
X94628553Y-97666131D01*
X94555566Y-97441503D01*
X94473516Y-97280472D01*
X94448343Y-97231067D01*
X94309517Y-97039990D01*
X94142510Y-96872983D01*
X93951433Y-96734157D01*
X93740996Y-96626933D01*
X93516368Y-96553946D01*
X93283097Y-96517000D01*
X93283092Y-96517000D01*
X93046908Y-96517000D01*
X93046903Y-96517000D01*
X92813631Y-96553946D01*
X92589003Y-96626933D01*
X92378566Y-96734157D01*
X92289105Y-96799155D01*
X92187490Y-96872983D01*
X92187488Y-96872985D01*
X92183786Y-96876147D01*
X92182375Y-96874495D01*
X92128938Y-96903612D01*
X92059251Y-96898566D01*
X92003354Y-96856646D01*
X91997149Y-96847520D01*
X91967319Y-96799159D01*
X91967316Y-96799155D01*
X91843345Y-96675184D01*
X91694124Y-96583143D01*
X91694119Y-96583141D01*
X91527697Y-96527994D01*
X91527690Y-96527993D01*
X91424986Y-96517500D01*
X90875000Y-96517500D01*
X90875000Y-97469017D01*
X90856591Y-97458389D01*
X90703991Y-97417500D01*
X90546009Y-97417500D01*
X90393409Y-97458389D01*
X90375000Y-97469017D01*
X90375000Y-96517500D01*
X89825028Y-96517500D01*
X89825012Y-96517501D01*
X89722302Y-96527994D01*
X89555880Y-96583141D01*
X89555875Y-96583143D01*
X89406654Y-96675184D01*
X89282684Y-96799154D01*
X89190643Y-96948375D01*
X89190641Y-96948380D01*
X89135494Y-97114802D01*
X89135493Y-97114809D01*
X89125000Y-97217513D01*
X89125000Y-97865427D01*
X89105315Y-97932466D01*
X89052511Y-97978221D01*
X88983353Y-97988165D01*
X88953548Y-97979989D01*
X88906590Y-97960539D01*
X88833497Y-97930263D01*
X88833492Y-97930262D01*
X88833489Y-97930261D01*
X88678845Y-97899500D01*
X88678842Y-97899500D01*
X88521158Y-97899500D01*
X88521155Y-97899500D01*
X88448691Y-97913914D01*
X88379100Y-97907687D01*
X88323922Y-97864824D01*
X88300678Y-97798934D01*
X88300500Y-97792297D01*
X88300500Y-97416715D01*
X88320185Y-97349676D01*
X88360349Y-97310598D01*
X88410185Y-97280472D01*
X88530472Y-97160185D01*
X88618478Y-97014606D01*
X88669086Y-96852196D01*
X88675500Y-96781616D01*
X88675500Y-96268384D01*
X88669086Y-96197804D01*
X88618478Y-96035394D01*
X88530472Y-95889815D01*
X88530470Y-95889813D01*
X88530469Y-95889811D01*
X88427984Y-95787326D01*
X88394499Y-95726003D01*
X88399483Y-95656311D01*
X88427985Y-95611963D01*
X88530071Y-95509878D01*
X88530072Y-95509877D01*
X88618019Y-95364395D01*
X88668590Y-95202106D01*
X88675000Y-95131572D01*
X88675000Y-95125000D01*
X85025001Y-95125000D01*
X85025001Y-95131582D01*
X85031408Y-95202102D01*
X85031409Y-95202107D01*
X85081981Y-95364396D01*
X85169927Y-95509877D01*
X85272015Y-95611965D01*
X85305500Y-95673288D01*
X85300516Y-95742980D01*
X85272015Y-95787327D01*
X85169531Y-95889810D01*
X85169530Y-95889811D01*
X85081522Y-96035393D01*
X85030913Y-96197807D01*
X85024500Y-96268386D01*
X85024500Y-96781613D01*
X85030913Y-96852192D01*
X85030913Y-96852194D01*
X85030914Y-96852196D01*
X85081522Y-97014606D01*
X85081615Y-97014760D01*
X85081654Y-97014900D01*
X85084600Y-97021445D01*
X85083603Y-97021893D01*
X85099500Y-97078912D01*
X85099500Y-98791814D01*
X85079815Y-98858853D01*
X85040598Y-98897352D01*
X84994609Y-98925718D01*
X84875719Y-99044608D01*
X84875716Y-99044612D01*
X84787455Y-99187704D01*
X84787451Y-99187713D01*
X84766559Y-99250761D01*
X84726786Y-99308206D01*
X84662269Y-99335028D01*
X84593494Y-99322713D01*
X84561172Y-99299437D01*
X81784112Y-96522377D01*
X81750627Y-96461054D01*
X81755611Y-96391362D01*
X81797483Y-96335429D01*
X81798820Y-96334442D01*
X81804792Y-96330104D01*
X81955104Y-96179792D01*
X82080051Y-96007816D01*
X82176557Y-95818412D01*
X82242246Y-95616243D01*
X82275500Y-95406287D01*
X82275500Y-95193713D01*
X82242246Y-94983757D01*
X82202949Y-94862816D01*
X82200955Y-94792977D01*
X82237035Y-94733144D01*
X82299736Y-94702316D01*
X82320881Y-94700500D01*
X85470180Y-94700500D01*
X85470196Y-94700501D01*
X85477792Y-94700501D01*
X85635903Y-94700501D01*
X85635906Y-94700501D01*
X85788634Y-94659577D01*
X85819743Y-94641614D01*
X85881747Y-94625000D01*
X86552124Y-94625000D01*
X86619163Y-94644685D01*
X86621015Y-94645898D01*
X86730434Y-94719010D01*
X86730447Y-94719017D01*
X86867258Y-94775685D01*
X86876123Y-94779357D01*
X87030773Y-94810119D01*
X87030776Y-94810120D01*
X87030778Y-94810120D01*
X87188464Y-94810120D01*
X87188465Y-94810119D01*
X87343117Y-94779357D01*
X87488799Y-94719014D01*
X87598225Y-94645898D01*
X87664902Y-94625020D01*
X87667116Y-94625000D01*
X88674999Y-94625000D01*
X88674999Y-94618417D01*
X88668591Y-94547897D01*
X88668590Y-94547892D01*
X88618018Y-94385603D01*
X88530072Y-94240122D01*
X88474772Y-94184822D01*
X88441287Y-94123499D01*
X88446271Y-94053807D01*
X88474765Y-94009468D01*
X88918718Y-93565516D01*
X88980039Y-93532034D01*
X89006397Y-93529200D01*
X89088072Y-93529200D01*
X89088073Y-93529199D01*
X89260829Y-93494837D01*
X89423563Y-93427430D01*
X89424228Y-93426986D01*
X89433285Y-93420934D01*
X89837618Y-93420934D01*
X89837618Y-93420935D01*
X89846675Y-93426986D01*
X90009316Y-93494354D01*
X90009322Y-93494356D01*
X90181975Y-93528700D01*
X90358024Y-93528700D01*
X90530677Y-93494356D01*
X90530683Y-93494354D01*
X90693323Y-93426987D01*
X90693331Y-93426982D01*
X90745305Y-93392255D01*
X90811982Y-93371377D01*
X90879362Y-93389861D01*
X90917298Y-93426466D01*
X90960698Y-93491420D01*
X91064576Y-93595298D01*
X91064580Y-93595301D01*
X91186724Y-93676916D01*
X91186733Y-93676921D01*
X91211800Y-93687304D01*
X91322458Y-93733140D01*
X91466540Y-93761799D01*
X91466544Y-93761800D01*
X91466545Y-93761800D01*
X91613456Y-93761800D01*
X91613457Y-93761799D01*
X91757542Y-93733140D01*
X91893269Y-93676920D01*
X92015420Y-93595301D01*
X92119301Y-93491420D01*
X92200920Y-93369269D01*
X92257140Y-93233542D01*
X92285800Y-93089455D01*
X92285800Y-93048322D01*
X92625001Y-93048322D01*
X92635144Y-93147607D01*
X92688452Y-93308481D01*
X92688457Y-93308492D01*
X92777424Y-93452728D01*
X92777427Y-93452732D01*
X92897267Y-93572572D01*
X92897271Y-93572575D01*
X93041507Y-93661542D01*
X93041518Y-93661547D01*
X93202393Y-93714855D01*
X93301683Y-93724999D01*
X93850000Y-93724999D01*
X93898308Y-93724999D01*
X93898322Y-93724998D01*
X93997607Y-93714855D01*
X94158481Y-93661547D01*
X94158492Y-93661542D01*
X94302728Y-93572575D01*
X94302732Y-93572572D01*
X94422572Y-93452732D01*
X94422575Y-93452728D01*
X94511542Y-93308492D01*
X94511547Y-93308481D01*
X94564855Y-93147606D01*
X94574999Y-93048322D01*
X94575000Y-93048309D01*
X94575000Y-93025000D01*
X93850000Y-93025000D01*
X93850000Y-93724999D01*
X93301683Y-93724999D01*
X93349999Y-93724998D01*
X93350000Y-93724998D01*
X93350000Y-93025000D01*
X92625001Y-93025000D01*
X92625001Y-93048322D01*
X92285800Y-93048322D01*
X92285800Y-92942545D01*
X92257140Y-92798458D01*
X92205018Y-92672624D01*
X92200921Y-92662733D01*
X92200916Y-92662724D01*
X92119301Y-92540580D01*
X92119298Y-92540576D01*
X92015423Y-92436701D01*
X92015419Y-92436698D01*
X91893275Y-92355083D01*
X91893266Y-92355078D01*
X91757544Y-92298861D01*
X91757545Y-92298861D01*
X91757542Y-92298860D01*
X91757538Y-92298859D01*
X91757534Y-92298858D01*
X91613459Y-92270200D01*
X91613455Y-92270200D01*
X91466545Y-92270200D01*
X91466540Y-92270200D01*
X91322465Y-92298858D01*
X91322460Y-92298859D01*
X91322458Y-92298860D01*
X91322456Y-92298861D01*
X91245515Y-92330730D01*
X91176046Y-92338198D01*
X91113567Y-92306922D01*
X91083503Y-92263620D01*
X91061987Y-92211677D01*
X91055934Y-92202618D01*
X90446777Y-92811777D01*
X89837618Y-93420934D01*
X89433285Y-93420934D01*
X89476206Y-93392255D01*
X89570019Y-93329571D01*
X89591109Y-93308481D01*
X89612548Y-93287043D01*
X89694568Y-93205022D01*
X89694571Y-93205019D01*
X89792430Y-93058563D01*
X89859837Y-92895829D01*
X89879205Y-92798458D01*
X89891866Y-92734809D01*
X89924251Y-92672898D01*
X89984966Y-92638324D01*
X90013483Y-92635000D01*
X90270000Y-92635000D01*
X90270000Y-92378482D01*
X90289685Y-92311443D01*
X90342489Y-92265688D01*
X90369801Y-92256866D01*
X90530829Y-92224837D01*
X90693563Y-92157430D01*
X90840019Y-92059571D01*
X90964571Y-91935019D01*
X91062430Y-91788563D01*
X91083966Y-91736571D01*
X91127806Y-91682167D01*
X91194100Y-91660102D01*
X91245979Y-91669462D01*
X91299260Y-91691531D01*
X91322458Y-91701140D01*
X91466540Y-91729799D01*
X91466544Y-91729800D01*
X91466545Y-91729800D01*
X91613456Y-91729800D01*
X91613457Y-91729799D01*
X91757542Y-91701140D01*
X91784313Y-91690050D01*
X91804188Y-91687913D01*
X91822918Y-91680928D01*
X91838214Y-91684255D01*
X91853781Y-91682582D01*
X91871659Y-91691531D01*
X91891191Y-91695780D01*
X91913477Y-91712463D01*
X91916260Y-91713856D01*
X91919417Y-91716902D01*
X92017584Y-91815069D01*
X92017586Y-91815070D01*
X92024656Y-91822140D01*
X92566890Y-92364374D01*
X92566911Y-92364397D01*
X92590675Y-92388161D01*
X92624160Y-92449484D01*
X92626352Y-92488441D01*
X92625001Y-92501667D01*
X92625000Y-92501690D01*
X92625000Y-92525000D01*
X92726853Y-92525000D01*
X92788854Y-92541613D01*
X92819966Y-92559577D01*
X92972694Y-92600501D01*
X92972697Y-92600501D01*
X93138404Y-92600501D01*
X93138420Y-92600500D01*
X94413331Y-92600500D01*
X94413347Y-92600501D01*
X94420943Y-92600501D01*
X94579054Y-92600501D01*
X94579057Y-92600501D01*
X94731785Y-92559577D01*
X94781904Y-92530639D01*
X94868716Y-92480520D01*
X94980520Y-92368716D01*
X94980520Y-92368714D01*
X94990728Y-92358507D01*
X94990729Y-92358504D01*
X95350912Y-91998322D01*
X97175001Y-91998322D01*
X97185144Y-92097607D01*
X97238452Y-92258481D01*
X97238457Y-92258492D01*
X97327424Y-92402728D01*
X97327427Y-92402732D01*
X97447267Y-92522572D01*
X97447271Y-92522575D01*
X97591507Y-92611542D01*
X97591518Y-92611547D01*
X97752393Y-92664855D01*
X97851683Y-92674999D01*
X97875000Y-92674998D01*
X97875000Y-91950000D01*
X97175001Y-91950000D01*
X97175001Y-91998322D01*
X95350912Y-91998322D01*
X96114664Y-91234571D01*
X96131257Y-91225510D01*
X96144868Y-91212378D01*
X96174363Y-91201973D01*
X96175985Y-91201088D01*
X96178152Y-91200637D01*
X96178841Y-91200500D01*
X96178842Y-91200500D01*
X96269766Y-91182414D01*
X96301072Y-91176187D01*
X96370664Y-91182414D01*
X96412944Y-91210123D01*
X96438741Y-91235920D01*
X96520044Y-91282860D01*
X96575672Y-91314977D01*
X96728400Y-91355901D01*
X96728403Y-91355901D01*
X96894110Y-91355901D01*
X96894126Y-91355900D01*
X97051000Y-91355900D01*
X97118039Y-91375585D01*
X97163794Y-91428389D01*
X97166686Y-91441686D01*
X97175000Y-91450000D01*
X98001000Y-91450000D01*
X98068039Y-91469685D01*
X98113794Y-91522489D01*
X98125000Y-91574000D01*
X98125000Y-91700000D01*
X98251000Y-91700000D01*
X98318039Y-91719685D01*
X98363794Y-91772489D01*
X98375000Y-91824000D01*
X98375000Y-92674999D01*
X98398308Y-92674999D01*
X98398322Y-92674998D01*
X98497607Y-92664855D01*
X98658481Y-92611547D01*
X98658492Y-92611542D01*
X98802731Y-92522573D01*
X98811959Y-92513345D01*
X98873279Y-92479856D01*
X98942971Y-92484835D01*
X98987327Y-92513339D01*
X98996955Y-92522967D01*
X98996959Y-92522970D01*
X99141294Y-92611998D01*
X99141297Y-92611999D01*
X99141303Y-92612003D01*
X99302292Y-92665349D01*
X99401655Y-92675500D01*
X99749902Y-92675499D01*
X99816941Y-92695183D01*
X99837583Y-92711818D01*
X102690139Y-95564374D01*
X102690149Y-95564385D01*
X102694479Y-95568715D01*
X102694480Y-95568716D01*
X102806284Y-95680520D01*
X102806286Y-95680521D01*
X102806290Y-95680524D01*
X102914469Y-95742980D01*
X102943216Y-95759577D01*
X103055019Y-95789534D01*
X103095942Y-95800500D01*
X103095943Y-95800500D01*
X104957465Y-95800500D01*
X105024504Y-95820185D01*
X105070259Y-95872989D01*
X105080823Y-95911898D01*
X105085001Y-95952797D01*
X105085001Y-95952799D01*
X105112371Y-96035394D01*
X105140186Y-96119334D01*
X105232288Y-96268656D01*
X105356344Y-96392712D01*
X105505666Y-96484814D01*
X105672203Y-96539999D01*
X105774991Y-96550500D01*
X107325008Y-96550499D01*
X107427797Y-96539999D01*
X107594334Y-96484814D01*
X107743656Y-96392712D01*
X107867712Y-96268656D01*
X107959814Y-96119334D01*
X108014999Y-95952797D01*
X108025500Y-95850009D01*
X108025499Y-94549992D01*
X108025284Y-94547892D01*
X108014999Y-94447203D01*
X108014998Y-94447200D01*
X107995646Y-94388799D01*
X107959814Y-94280666D01*
X107867712Y-94131344D01*
X107743656Y-94007288D01*
X107594334Y-93915186D01*
X107594333Y-93915185D01*
X107588878Y-93911821D01*
X107542154Y-93859873D01*
X107530931Y-93790910D01*
X107558775Y-93726828D01*
X107566272Y-93718623D01*
X107705104Y-93579792D01*
X107710348Y-93572575D01*
X107816105Y-93427011D01*
X107830051Y-93407816D01*
X107926557Y-93218412D01*
X107992246Y-93016243D01*
X108025500Y-92806287D01*
X108025500Y-92593713D01*
X107992246Y-92383757D01*
X107926557Y-92181588D01*
X107830051Y-91992184D01*
X107830049Y-91992181D01*
X107830048Y-91992179D01*
X107705109Y-91820213D01*
X107554792Y-91669896D01*
X107527845Y-91650318D01*
X107390204Y-91550316D01*
X107347540Y-91494989D01*
X107341561Y-91425376D01*
X107374166Y-91363580D01*
X107390199Y-91349686D01*
X107554792Y-91230104D01*
X107705104Y-91079792D01*
X107705106Y-91079788D01*
X107705109Y-91079786D01*
X107830048Y-90907820D01*
X107830047Y-90907820D01*
X107830051Y-90907816D01*
X107926557Y-90718412D01*
X107992246Y-90516243D01*
X108025500Y-90306287D01*
X108025500Y-90093713D01*
X107992246Y-89883757D01*
X107926557Y-89681588D01*
X107830051Y-89492184D01*
X107830049Y-89492181D01*
X107830048Y-89492179D01*
X107705109Y-89320213D01*
X107554790Y-89169894D01*
X107554785Y-89169890D01*
X107389781Y-89050008D01*
X107347115Y-88994678D01*
X107341136Y-88925065D01*
X107373741Y-88863270D01*
X107389781Y-88849371D01*
X107554466Y-88729721D01*
X107704723Y-88579464D01*
X107704727Y-88579459D01*
X107829620Y-88407557D01*
X107926095Y-88218217D01*
X107991757Y-88016129D01*
X107991757Y-88016126D01*
X108002231Y-87950000D01*
X106954146Y-87950000D01*
X106992630Y-87883343D01*
X107025000Y-87762535D01*
X107025000Y-87637465D01*
X106992630Y-87516657D01*
X106954146Y-87450000D01*
X108002231Y-87450000D01*
X107991757Y-87383873D01*
X107991757Y-87383870D01*
X107926095Y-87181782D01*
X107829620Y-86992442D01*
X107704727Y-86820540D01*
X107704723Y-86820535D01*
X107554464Y-86670276D01*
X107554459Y-86670272D01*
X107389781Y-86550627D01*
X107347115Y-86495297D01*
X107341136Y-86425684D01*
X107373741Y-86363889D01*
X107389776Y-86349994D01*
X107554792Y-86230104D01*
X107705104Y-86079792D01*
X107705106Y-86079788D01*
X107705109Y-86079786D01*
X107830048Y-85907820D01*
X107830047Y-85907820D01*
X107830051Y-85907816D01*
X107926557Y-85718412D01*
X107992246Y-85516243D01*
X108025500Y-85306287D01*
X108025500Y-85093713D01*
X107992246Y-84883757D01*
X107926557Y-84681588D01*
X107830051Y-84492184D01*
X107830049Y-84492181D01*
X107830048Y-84492179D01*
X107705109Y-84320213D01*
X107554786Y-84169890D01*
X107382819Y-84044951D01*
X107382818Y-84044950D01*
X107382816Y-84044949D01*
X107314782Y-84010284D01*
X107195447Y-83949479D01*
X107144651Y-83901504D01*
X107127856Y-83833683D01*
X107148638Y-83770105D01*
X107209394Y-83679179D01*
X107210918Y-83675501D01*
X107260615Y-83555520D01*
X107269737Y-83533497D01*
X107300500Y-83378842D01*
X107300500Y-83305710D01*
X107320185Y-83238671D01*
X107372989Y-83192916D01*
X107442147Y-83182972D01*
X107471946Y-83191147D01*
X107540969Y-83219737D01*
X107695619Y-83250499D01*
X107695622Y-83250500D01*
X107695624Y-83250500D01*
X107853310Y-83250500D01*
X107853311Y-83250499D01*
X108007963Y-83219737D01*
X108153645Y-83159394D01*
X108284755Y-83071789D01*
X108396255Y-82960289D01*
X108483860Y-82829179D01*
X108544203Y-82683497D01*
X108574966Y-82528842D01*
X108574966Y-82371158D01*
X108574965Y-82371153D01*
X108574943Y-82370930D01*
X108574966Y-82370808D01*
X108574966Y-82365066D01*
X108576055Y-82365066D01*
X108587956Y-82302283D01*
X108636017Y-82251569D01*
X108703867Y-82234889D01*
X108708035Y-82235145D01*
X108744306Y-82238000D01*
X108744314Y-82238000D01*
X109175686Y-82238000D01*
X109175694Y-82238000D01*
X109212569Y-82235098D01*
X109212571Y-82235097D01*
X109212573Y-82235097D01*
X109254191Y-82223005D01*
X109370398Y-82189244D01*
X109511865Y-82105581D01*
X109628081Y-81989365D01*
X109711744Y-81847898D01*
X109745846Y-81730519D01*
X109757646Y-81689905D01*
X109771959Y-81667491D01*
X109783009Y-81643297D01*
X109790475Y-81638498D01*
X109795252Y-81631019D01*
X109819413Y-81619901D01*
X109841787Y-81605523D01*
X109854695Y-81603666D01*
X109858725Y-81601813D01*
X109876722Y-81600500D01*
X109905980Y-81600500D01*
X109973019Y-81620185D01*
X109993661Y-81636819D01*
X109999811Y-81642969D01*
X109999813Y-81642970D01*
X109999815Y-81642972D01*
X110145394Y-81730978D01*
X110307804Y-81781586D01*
X110378384Y-81788000D01*
X110378387Y-81788000D01*
X111041613Y-81788000D01*
X111041616Y-81788000D01*
X111112196Y-81781586D01*
X111274606Y-81730978D01*
X111420185Y-81642972D01*
X111540472Y-81522685D01*
X111628478Y-81377106D01*
X111679086Y-81214696D01*
X111685500Y-81144116D01*
X111685500Y-80630884D01*
X111679086Y-80560304D01*
X111628478Y-80397894D01*
X111540472Y-80252315D01*
X111540470Y-80252313D01*
X111540469Y-80252311D01*
X111437984Y-80149826D01*
X111404499Y-80088503D01*
X111409483Y-80018811D01*
X111437985Y-79974463D01*
X111540071Y-79872378D01*
X111540072Y-79872377D01*
X111628019Y-79726895D01*
X111678590Y-79564606D01*
X111685000Y-79494072D01*
X111685000Y-79487500D01*
X109735001Y-79487500D01*
X109735001Y-79494082D01*
X109741408Y-79564602D01*
X109741409Y-79564607D01*
X109791981Y-79726896D01*
X109879927Y-79872377D01*
X109982015Y-79974465D01*
X109986353Y-79982409D01*
X109993602Y-79987836D01*
X110002837Y-80012598D01*
X110015500Y-80035788D01*
X110014854Y-80044818D01*
X110018018Y-80053301D01*
X110012401Y-80079121D01*
X110010516Y-80105480D01*
X110004697Y-80114533D01*
X110003166Y-80121574D01*
X109982015Y-80149828D01*
X109920336Y-80211506D01*
X109859012Y-80244990D01*
X109789320Y-80240005D01*
X109733387Y-80198134D01*
X109713577Y-80158412D01*
X109711744Y-80152103D01*
X109711744Y-80152102D01*
X109628081Y-80010635D01*
X109628079Y-80010633D01*
X109628076Y-80010629D01*
X109511870Y-79894423D01*
X109511862Y-79894417D01*
X109385679Y-79819793D01*
X109370398Y-79810756D01*
X109370397Y-79810755D01*
X109370396Y-79810755D01*
X109370393Y-79810754D01*
X109212573Y-79764902D01*
X109212567Y-79764901D01*
X109175701Y-79762000D01*
X109175694Y-79762000D01*
X108934500Y-79762000D01*
X108867461Y-79742315D01*
X108821706Y-79689511D01*
X108810500Y-79638000D01*
X108810500Y-79190097D01*
X108819143Y-79160660D01*
X108825667Y-79130671D01*
X108829422Y-79125653D01*
X108830185Y-79123058D01*
X108846813Y-79102421D01*
X108914663Y-79034571D01*
X108975982Y-79001089D01*
X108978150Y-79000638D01*
X109044197Y-78987500D01*
X109077241Y-78980927D01*
X109735000Y-78980927D01*
X109735000Y-78987500D01*
X110460000Y-78987500D01*
X110960000Y-78987500D01*
X111684999Y-78987500D01*
X111684999Y-78980917D01*
X111678591Y-78910397D01*
X111678590Y-78910392D01*
X111628018Y-78748103D01*
X111540072Y-78602622D01*
X111419877Y-78482427D01*
X111274395Y-78394480D01*
X111274396Y-78394480D01*
X111112105Y-78343909D01*
X111112106Y-78343909D01*
X111041572Y-78337500D01*
X110960000Y-78337500D01*
X110960000Y-78987500D01*
X110460000Y-78987500D01*
X110460000Y-78337500D01*
X110459999Y-78337499D01*
X110378417Y-78337500D01*
X110307897Y-78343908D01*
X110307892Y-78343909D01*
X110145603Y-78394481D01*
X110000122Y-78482427D01*
X109879927Y-78602622D01*
X109837966Y-78672032D01*
X109790495Y-78752871D01*
X109741409Y-78910393D01*
X109735000Y-78980927D01*
X109077241Y-78980927D01*
X109133497Y-78969737D01*
X109279179Y-78909394D01*
X109410289Y-78821789D01*
X109521789Y-78710289D01*
X109609394Y-78579179D01*
X109669737Y-78433497D01*
X109700500Y-78278842D01*
X109700500Y-78121158D01*
X109700500Y-78121155D01*
X109700499Y-78121153D01*
X109690512Y-78070944D01*
X109669737Y-77966503D01*
X109657001Y-77935755D01*
X109609397Y-77820827D01*
X109609390Y-77820814D01*
X109521789Y-77689711D01*
X109521786Y-77689707D01*
X109410292Y-77578213D01*
X109410288Y-77578210D01*
X109278291Y-77490012D01*
X109233486Y-77436400D01*
X109224779Y-77367075D01*
X109241644Y-77321812D01*
X109311544Y-77208488D01*
X109311547Y-77208481D01*
X109364855Y-77047606D01*
X109374999Y-76948322D01*
X109375000Y-76948309D01*
X109375000Y-76925000D01*
X107425001Y-76925000D01*
X107425001Y-76948322D01*
X107435144Y-77047607D01*
X107488452Y-77208481D01*
X107488457Y-77208492D01*
X107577424Y-77352728D01*
X107577427Y-77352732D01*
X107697267Y-77472572D01*
X107697271Y-77472575D01*
X107841507Y-77561542D01*
X107841518Y-77561547D01*
X108002394Y-77614856D01*
X108002392Y-77614856D01*
X108102440Y-77625077D01*
X108103618Y-77625557D01*
X108104874Y-77625350D01*
X108135884Y-77638723D01*
X108167132Y-77651473D01*
X108167862Y-77652513D01*
X108169032Y-77653018D01*
X108187881Y-77681022D01*
X108207284Y-77708654D01*
X108207336Y-77709926D01*
X108208046Y-77710981D01*
X108208762Y-77744703D01*
X108210147Y-77778465D01*
X108209511Y-77779978D01*
X108209530Y-77780835D01*
X108204626Y-77791620D01*
X108195554Y-77813244D01*
X108194277Y-77815326D01*
X108190606Y-77820821D01*
X108189974Y-77822344D01*
X108186625Y-77827809D01*
X108163317Y-77848888D01*
X108141301Y-77871300D01*
X108137421Y-77872308D01*
X108134805Y-77874675D01*
X108116950Y-77877630D01*
X108080909Y-77887000D01*
X107794298Y-77887000D01*
X107757432Y-77889901D01*
X107757426Y-77889902D01*
X107599606Y-77935754D01*
X107599603Y-77935755D01*
X107458137Y-78019417D01*
X107458129Y-78019423D01*
X107341923Y-78135629D01*
X107341917Y-78135637D01*
X107258255Y-78277103D01*
X107258254Y-78277106D01*
X107212402Y-78434926D01*
X107212401Y-78434932D01*
X107209500Y-78471798D01*
X107209500Y-79638000D01*
X107189815Y-79705039D01*
X107137011Y-79750794D01*
X107085500Y-79762000D01*
X106844298Y-79762000D01*
X106807432Y-79764901D01*
X106807426Y-79764902D01*
X106649606Y-79810754D01*
X106649603Y-79810755D01*
X106508137Y-79894417D01*
X106508133Y-79894420D01*
X106392879Y-80009674D01*
X106331556Y-80043158D01*
X106261864Y-80038174D01*
X106205931Y-79996302D01*
X106181514Y-79930838D01*
X106196366Y-79862565D01*
X106199650Y-79856910D01*
X106222549Y-79819787D01*
X106275436Y-79660185D01*
X106285500Y-79561674D01*
X106285500Y-79028326D01*
X106275436Y-78929815D01*
X106222549Y-78770213D01*
X106222545Y-78770207D01*
X106222544Y-78770204D01*
X106134283Y-78627112D01*
X106134280Y-78627108D01*
X106015391Y-78508219D01*
X106015387Y-78508216D01*
X105872295Y-78419955D01*
X105872289Y-78419952D01*
X105872287Y-78419951D01*
X105712685Y-78367064D01*
X105712683Y-78367063D01*
X105614181Y-78357000D01*
X105614174Y-78357000D01*
X105005826Y-78357000D01*
X105005818Y-78357000D01*
X104907316Y-78367063D01*
X104907315Y-78367064D01*
X104828219Y-78393273D01*
X104747715Y-78419950D01*
X104747704Y-78419955D01*
X104604612Y-78508216D01*
X104604608Y-78508219D01*
X104485719Y-78627108D01*
X104485716Y-78627112D01*
X104480483Y-78635597D01*
X104472897Y-78642419D01*
X104468658Y-78651703D01*
X104447357Y-78665391D01*
X104428535Y-78682322D01*
X104416898Y-78684966D01*
X104409880Y-78689477D01*
X104374945Y-78694500D01*
X104166136Y-78694500D01*
X104099097Y-78674815D01*
X104060020Y-78634651D01*
X104049540Y-78617315D01*
X104040472Y-78602315D01*
X104040471Y-78602314D01*
X104040468Y-78602310D01*
X103920188Y-78482030D01*
X103903262Y-78471798D01*
X103774606Y-78394022D01*
X103612196Y-78343414D01*
X103612194Y-78343413D01*
X103612192Y-78343413D01*
X103562778Y-78338923D01*
X103541616Y-78337000D01*
X102878384Y-78337000D01*
X102859145Y-78338748D01*
X102807807Y-78343413D01*
X102645393Y-78394022D01*
X102499811Y-78482030D01*
X102499810Y-78482031D01*
X102492327Y-78489515D01*
X102431004Y-78523000D01*
X102361312Y-78518016D01*
X102316965Y-78489515D01*
X102309877Y-78482427D01*
X102164395Y-78394480D01*
X102164396Y-78394480D01*
X102002105Y-78343909D01*
X102002106Y-78343909D01*
X101931572Y-78337500D01*
X101850000Y-78337500D01*
X101850000Y-79113500D01*
X101830315Y-79180539D01*
X101777511Y-79226294D01*
X101726000Y-79237500D01*
X101600000Y-79237500D01*
X101600000Y-79363500D01*
X101580315Y-79430539D01*
X101527511Y-79476294D01*
X101476000Y-79487500D01*
X100625001Y-79487500D01*
X100625001Y-79494082D01*
X100631408Y-79564602D01*
X100631409Y-79564610D01*
X100679500Y-79718938D01*
X100680652Y-79788798D01*
X100643851Y-79848190D01*
X100580782Y-79878258D01*
X100511469Y-79869456D01*
X100497994Y-79862560D01*
X100425679Y-79819793D01*
X100410398Y-79810756D01*
X100410397Y-79810755D01*
X100410396Y-79810755D01*
X100410393Y-79810754D01*
X100252573Y-79764902D01*
X100252567Y-79764901D01*
X100215701Y-79762000D01*
X100215694Y-79762000D01*
X99974500Y-79762000D01*
X99907461Y-79742315D01*
X99861706Y-79689511D01*
X99850500Y-79638000D01*
X99850500Y-78980927D01*
X100625000Y-78980927D01*
X100625000Y-78987500D01*
X101350000Y-78987500D01*
X101350000Y-78337500D01*
X101349999Y-78337499D01*
X101268417Y-78337500D01*
X101197897Y-78343908D01*
X101197892Y-78343909D01*
X101035603Y-78394481D01*
X100890122Y-78482427D01*
X100769927Y-78602622D01*
X100681980Y-78748104D01*
X100631409Y-78910393D01*
X100625000Y-78980927D01*
X99850500Y-78980927D01*
X99850500Y-78471813D01*
X99850499Y-78471798D01*
X99847598Y-78434932D01*
X99847597Y-78434926D01*
X99811386Y-78310289D01*
X99801744Y-78277102D01*
X99718081Y-78135635D01*
X99718079Y-78135633D01*
X99718076Y-78135629D01*
X99672938Y-78090492D01*
X99640844Y-78034906D01*
X99609577Y-77918216D01*
X99593230Y-77889902D01*
X99530524Y-77781290D01*
X99530521Y-77781287D01*
X99530520Y-77781284D01*
X99530517Y-77781281D01*
X99525574Y-77774839D01*
X99527876Y-77773072D01*
X99501088Y-77724014D01*
X99500637Y-77721847D01*
X99486946Y-77653018D01*
X99469737Y-77566503D01*
X99448500Y-77515232D01*
X99409397Y-77420827D01*
X99409390Y-77420814D01*
X99388045Y-77388869D01*
X99367167Y-77322191D01*
X99385652Y-77254811D01*
X99437630Y-77208121D01*
X99506600Y-77196945D01*
X99534480Y-77203796D01*
X99642517Y-77244091D01*
X99642516Y-77244091D01*
X99649444Y-77244835D01*
X99702127Y-77250500D01*
X101497872Y-77250499D01*
X101557483Y-77244091D01*
X101692331Y-77193796D01*
X101807546Y-77107546D01*
X101893796Y-76992331D01*
X101942810Y-76860916D01*
X101984681Y-76804984D01*
X102050145Y-76780566D01*
X102118418Y-76795417D01*
X102146673Y-76816569D01*
X102260213Y-76930109D01*
X102432179Y-77055048D01*
X102432181Y-77055049D01*
X102432184Y-77055051D01*
X102621588Y-77151557D01*
X102823757Y-77217246D01*
X103033713Y-77250500D01*
X103033714Y-77250500D01*
X103246286Y-77250500D01*
X103246287Y-77250500D01*
X103456243Y-77217246D01*
X103658412Y-77151557D01*
X103847816Y-77055051D01*
X103924276Y-76999500D01*
X104019786Y-76930109D01*
X104019788Y-76930106D01*
X104019792Y-76930104D01*
X104170104Y-76779792D01*
X104170106Y-76779788D01*
X104170109Y-76779786D01*
X104295048Y-76607820D01*
X104295047Y-76607820D01*
X104295051Y-76607816D01*
X104299514Y-76599054D01*
X104347488Y-76548259D01*
X104415308Y-76531463D01*
X104481444Y-76553999D01*
X104520486Y-76599056D01*
X104524951Y-76607820D01*
X104649890Y-76779786D01*
X104800213Y-76930109D01*
X104972179Y-77055048D01*
X104972181Y-77055049D01*
X104972184Y-77055051D01*
X105161588Y-77151557D01*
X105363757Y-77217246D01*
X105573713Y-77250500D01*
X105573714Y-77250500D01*
X105786286Y-77250500D01*
X105786287Y-77250500D01*
X105996243Y-77217246D01*
X106198412Y-77151557D01*
X106387816Y-77055051D01*
X106464276Y-76999500D01*
X106559786Y-76930109D01*
X106559788Y-76930106D01*
X106559792Y-76930104D01*
X106710104Y-76779792D01*
X106710106Y-76779788D01*
X106710109Y-76779786D01*
X106835048Y-76607820D01*
X106835047Y-76607820D01*
X106835051Y-76607816D01*
X106931557Y-76418412D01*
X106997246Y-76216243D01*
X107030500Y-76006287D01*
X107030500Y-75793713D01*
X106997246Y-75583757D01*
X106973870Y-75511816D01*
X106973067Y-75483698D01*
X106969064Y-75455853D01*
X106972083Y-75449241D01*
X106971876Y-75441977D01*
X106986402Y-75417887D01*
X106998089Y-75392297D01*
X107004202Y-75388367D01*
X107007956Y-75382144D01*
X107033202Y-75369731D01*
X107056867Y-75354523D01*
X107067137Y-75353046D01*
X107070657Y-75351316D01*
X107091802Y-75349500D01*
X107307533Y-75349500D01*
X107374572Y-75369185D01*
X107420327Y-75421989D01*
X107430891Y-75460899D01*
X107434651Y-75497707D01*
X107434651Y-75497710D01*
X107487996Y-75658694D01*
X107488001Y-75658705D01*
X107577029Y-75803040D01*
X107577032Y-75803044D01*
X107586660Y-75812672D01*
X107620145Y-75873995D01*
X107615161Y-75943687D01*
X107586663Y-75988031D01*
X107577428Y-75997265D01*
X107577424Y-75997271D01*
X107488457Y-76141507D01*
X107488452Y-76141518D01*
X107435144Y-76302393D01*
X107425000Y-76401677D01*
X107425000Y-76425000D01*
X109374999Y-76425000D01*
X109374999Y-76401692D01*
X109374998Y-76401677D01*
X109364855Y-76302392D01*
X109341457Y-76231780D01*
X109330147Y-76197648D01*
X111199500Y-76197648D01*
X111199500Y-76402351D01*
X111231522Y-76604534D01*
X111294781Y-76799223D01*
X111343308Y-76894461D01*
X111385940Y-76978131D01*
X111387715Y-76981613D01*
X111508028Y-77147213D01*
X111652786Y-77291971D01*
X111800790Y-77399500D01*
X111818390Y-77412287D01*
X111933623Y-77471001D01*
X112000776Y-77505218D01*
X112000778Y-77505218D01*
X112000781Y-77505220D01*
X112105137Y-77539127D01*
X112195465Y-77568477D01*
X112296557Y-77584488D01*
X112397648Y-77600500D01*
X112397649Y-77600500D01*
X112602351Y-77600500D01*
X112602352Y-77600500D01*
X112804534Y-77568477D01*
X112999219Y-77505220D01*
X113181610Y-77412287D01*
X113274590Y-77344732D01*
X113347213Y-77291971D01*
X113347215Y-77291968D01*
X113347219Y-77291966D01*
X113491966Y-77147219D01*
X113491968Y-77147215D01*
X113491971Y-77147213D01*
X113558929Y-77055051D01*
X113612287Y-76981610D01*
X113705220Y-76799219D01*
X113768477Y-76604534D01*
X113800500Y-76402352D01*
X113800500Y-76197648D01*
X113768477Y-75995466D01*
X113766061Y-75988031D01*
X113723493Y-75857019D01*
X113705220Y-75800781D01*
X113705218Y-75800778D01*
X113705218Y-75800776D01*
X113671503Y-75734607D01*
X113612287Y-75618390D01*
X113587125Y-75583757D01*
X113491971Y-75452786D01*
X113347213Y-75308028D01*
X113181613Y-75187715D01*
X113181612Y-75187714D01*
X113181610Y-75187713D01*
X113124653Y-75158691D01*
X112999223Y-75094781D01*
X112804534Y-75031522D01*
X112629995Y-75003878D01*
X112602352Y-74999500D01*
X112397648Y-74999500D01*
X112373329Y-75003351D01*
X112195465Y-75031522D01*
X112000776Y-75094781D01*
X111818386Y-75187715D01*
X111652786Y-75308028D01*
X111508028Y-75452786D01*
X111387715Y-75618386D01*
X111294781Y-75800776D01*
X111231522Y-75995465D01*
X111199500Y-76197648D01*
X109330147Y-76197648D01*
X109311547Y-76141518D01*
X109311542Y-76141507D01*
X109222575Y-75997271D01*
X109222572Y-75997267D01*
X109213339Y-75988034D01*
X109179854Y-75926711D01*
X109184838Y-75857019D01*
X109213343Y-75812668D01*
X109222968Y-75803044D01*
X109312003Y-75658697D01*
X109365349Y-75497708D01*
X109375500Y-75398345D01*
X109375499Y-74851656D01*
X109365349Y-74752292D01*
X109312003Y-74591303D01*
X109311999Y-74591297D01*
X109311998Y-74591294D01*
X109222970Y-74446959D01*
X109222967Y-74446955D01*
X109103044Y-74327032D01*
X109097377Y-74322551D01*
X109099159Y-74320297D01*
X109061199Y-74278103D01*
X109049970Y-74209142D01*
X109077806Y-74145057D01*
X109135871Y-74106194D01*
X109173015Y-74100500D01*
X114375500Y-74100500D01*
X114442539Y-74120185D01*
X114488294Y-74172989D01*
X114499500Y-74224500D01*
X114499500Y-102575500D01*
X114479815Y-102642539D01*
X114427011Y-102688294D01*
X114375500Y-102699500D01*
X73224500Y-102699500D01*
X73157461Y-102679815D01*
X73111706Y-102627011D01*
X73100500Y-102575500D01*
X73100500Y-100597648D01*
X73799500Y-100597648D01*
X73799500Y-100802351D01*
X73831522Y-101004534D01*
X73894781Y-101199223D01*
X73987715Y-101381613D01*
X74108028Y-101547213D01*
X74252786Y-101691971D01*
X74349179Y-101762003D01*
X74418390Y-101812287D01*
X74475942Y-101841611D01*
X74600776Y-101905218D01*
X74600778Y-101905218D01*
X74600781Y-101905220D01*
X74705137Y-101939127D01*
X74795465Y-101968477D01*
X74896557Y-101984488D01*
X74997648Y-102000500D01*
X74997649Y-102000500D01*
X75202351Y-102000500D01*
X75202352Y-102000500D01*
X75404534Y-101968477D01*
X75599219Y-101905220D01*
X75781610Y-101812287D01*
X75874590Y-101744732D01*
X75947213Y-101691971D01*
X75947215Y-101691968D01*
X75947219Y-101691966D01*
X76091966Y-101547219D01*
X76091968Y-101547215D01*
X76091971Y-101547213D01*
X76192609Y-101408694D01*
X76212287Y-101381610D01*
X76305220Y-101199219D01*
X76368477Y-101004534D01*
X76400500Y-100802352D01*
X76400500Y-100597648D01*
X76368477Y-100395466D01*
X76350878Y-100341303D01*
X76326609Y-100266611D01*
X76305220Y-100200781D01*
X76305218Y-100200778D01*
X76305218Y-100200776D01*
X76242499Y-100077685D01*
X76212287Y-100018390D01*
X76200910Y-100002731D01*
X76091971Y-99852786D01*
X75947213Y-99708028D01*
X75781613Y-99587715D01*
X75781612Y-99587714D01*
X75781610Y-99587713D01*
X75724653Y-99558691D01*
X75599223Y-99494781D01*
X75404534Y-99431522D01*
X75229995Y-99403878D01*
X75202352Y-99399500D01*
X74997648Y-99399500D01*
X74973329Y-99403351D01*
X74795465Y-99431522D01*
X74600776Y-99494781D01*
X74418386Y-99587715D01*
X74252786Y-99708028D01*
X74108028Y-99852786D01*
X73987715Y-100018386D01*
X73894781Y-100200776D01*
X73831522Y-100395465D01*
X73799500Y-100597648D01*
X73100500Y-100597648D01*
X73100500Y-76197648D01*
X73799500Y-76197648D01*
X73799500Y-76402351D01*
X73831522Y-76604534D01*
X73894781Y-76799223D01*
X73943308Y-76894461D01*
X73985940Y-76978131D01*
X73987715Y-76981613D01*
X74108028Y-77147213D01*
X74252786Y-77291971D01*
X74400790Y-77399500D01*
X74418390Y-77412287D01*
X74533623Y-77471001D01*
X74600776Y-77505218D01*
X74600778Y-77505218D01*
X74600781Y-77505220D01*
X74705137Y-77539127D01*
X74795465Y-77568477D01*
X74896557Y-77584488D01*
X74997648Y-77600500D01*
X74997649Y-77600500D01*
X75202351Y-77600500D01*
X75202352Y-77600500D01*
X75404534Y-77568477D01*
X75599219Y-77505220D01*
X75781610Y-77412287D01*
X75874590Y-77344732D01*
X75947213Y-77291971D01*
X75947215Y-77291968D01*
X75947219Y-77291966D01*
X76091966Y-77147219D01*
X76091968Y-77147215D01*
X76091971Y-77147213D01*
X76158929Y-77055051D01*
X76212287Y-76981610D01*
X76305220Y-76799219D01*
X76368477Y-76604534D01*
X76400500Y-76402352D01*
X76400500Y-76197648D01*
X76368477Y-75995466D01*
X76366061Y-75988031D01*
X76323493Y-75857019D01*
X76305220Y-75800781D01*
X76305218Y-75800778D01*
X76305218Y-75800776D01*
X76271503Y-75734607D01*
X76212287Y-75618390D01*
X76187125Y-75583757D01*
X76091971Y-75452786D01*
X75947213Y-75308028D01*
X75781613Y-75187715D01*
X75781612Y-75187714D01*
X75781610Y-75187713D01*
X75724653Y-75158691D01*
X75599223Y-75094781D01*
X75404534Y-75031522D01*
X75229995Y-75003878D01*
X75202352Y-74999500D01*
X74997648Y-74999500D01*
X74973329Y-75003351D01*
X74795465Y-75031522D01*
X74600776Y-75094781D01*
X74418386Y-75187715D01*
X74252786Y-75308028D01*
X74108028Y-75452786D01*
X73987715Y-75618386D01*
X73894781Y-75800776D01*
X73831522Y-75995465D01*
X73799500Y-76197648D01*
X73100500Y-76197648D01*
X73100500Y-74224500D01*
X73120185Y-74157461D01*
X73172989Y-74111706D01*
X73224500Y-74100500D01*
X78176712Y-74100500D01*
X78243751Y-74120185D01*
G37*
%TD.AperFunction*%
%TA.AperFunction,Conductor*%
G36*
X103403039Y-80907185D02*
G01*
X103448794Y-80959989D01*
X103460000Y-81011500D01*
X103460000Y-81787499D01*
X103541581Y-81787499D01*
X103612102Y-81781091D01*
X103612107Y-81781090D01*
X103774396Y-81730518D01*
X103919877Y-81642572D01*
X104040072Y-81522377D01*
X104128017Y-81376899D01*
X104140964Y-81335351D01*
X104179702Y-81277203D01*
X104243727Y-81249229D01*
X104312712Y-81260310D01*
X104364755Y-81306929D01*
X104377053Y-81333231D01*
X104391592Y-81377106D01*
X104397450Y-81394784D01*
X104397455Y-81394795D01*
X104485716Y-81537887D01*
X104485719Y-81537891D01*
X104604608Y-81656780D01*
X104604612Y-81656783D01*
X104747704Y-81745044D01*
X104747707Y-81745045D01*
X104747713Y-81745049D01*
X104875399Y-81787360D01*
X104932844Y-81827133D01*
X104950956Y-81857613D01*
X104995273Y-81964605D01*
X104995278Y-81964614D01*
X105082879Y-82095717D01*
X105082882Y-82095721D01*
X105194376Y-82207215D01*
X105194380Y-82207218D01*
X105325483Y-82294819D01*
X105325496Y-82294826D01*
X105416458Y-82332503D01*
X105471172Y-82355166D01*
X105471787Y-82355288D01*
X105472537Y-82355438D01*
X105473182Y-82355775D01*
X105477004Y-82356935D01*
X105476784Y-82357659D01*
X105534448Y-82387823D01*
X105569022Y-82448538D01*
X105565283Y-82518308D01*
X105536027Y-82564736D01*
X104904069Y-83196695D01*
X104842746Y-83230180D01*
X104816388Y-83233014D01*
X104658074Y-83233014D01*
X104503429Y-83263775D01*
X104503417Y-83263778D01*
X104357746Y-83324116D01*
X104357733Y-83324123D01*
X104226630Y-83411724D01*
X104226626Y-83411727D01*
X104115132Y-83523221D01*
X104115129Y-83523225D01*
X104027528Y-83654328D01*
X104027521Y-83654341D01*
X103967183Y-83800012D01*
X103967180Y-83800024D01*
X103936419Y-83954667D01*
X103936419Y-84112360D01*
X103967180Y-84267003D01*
X103967183Y-84267015D01*
X104027521Y-84412686D01*
X104027528Y-84412699D01*
X104115129Y-84543802D01*
X104115132Y-84543806D01*
X104226627Y-84655301D01*
X104226630Y-84655303D01*
X104286073Y-84695021D01*
X104330877Y-84748632D01*
X104341182Y-84798123D01*
X104341182Y-84859803D01*
X104371943Y-85014446D01*
X104371946Y-85014458D01*
X104432284Y-85160129D01*
X104432291Y-85160142D01*
X104519892Y-85291245D01*
X104519895Y-85291249D01*
X104631389Y-85402743D01*
X104631393Y-85402746D01*
X104762496Y-85490347D01*
X104762509Y-85490354D01*
X104906765Y-85550106D01*
X104908185Y-85550694D01*
X104956714Y-85560347D01*
X105062229Y-85581336D01*
X105124140Y-85613721D01*
X105155968Y-85664633D01*
X105173442Y-85718412D01*
X105269951Y-85907820D01*
X105394890Y-86079786D01*
X105545209Y-86230105D01*
X105545214Y-86230109D01*
X105710218Y-86349991D01*
X105752884Y-86405320D01*
X105758863Y-86474934D01*
X105726258Y-86536729D01*
X105710218Y-86550627D01*
X105545540Y-86670272D01*
X105545535Y-86670276D01*
X105395276Y-86820535D01*
X105395272Y-86820540D01*
X105270379Y-86992442D01*
X105173904Y-87181782D01*
X105108242Y-87383870D01*
X105108242Y-87383873D01*
X105097769Y-87450000D01*
X106145854Y-87450000D01*
X106107370Y-87516657D01*
X106075000Y-87637465D01*
X106075000Y-87762535D01*
X106107370Y-87883343D01*
X106145854Y-87950000D01*
X105097769Y-87950000D01*
X105108242Y-88016126D01*
X105108242Y-88016129D01*
X105173904Y-88218217D01*
X105270379Y-88407557D01*
X105395272Y-88579459D01*
X105395276Y-88579464D01*
X105545535Y-88729723D01*
X105545540Y-88729727D01*
X105710218Y-88849372D01*
X105752884Y-88904701D01*
X105758863Y-88974315D01*
X105726258Y-89036110D01*
X105710218Y-89050008D01*
X105545214Y-89169890D01*
X105545209Y-89169894D01*
X105394890Y-89320213D01*
X105269951Y-89492179D01*
X105173444Y-89681585D01*
X105107753Y-89883760D01*
X105074500Y-90093713D01*
X105074500Y-90306286D01*
X105105998Y-90505161D01*
X105107754Y-90516243D01*
X105166398Y-90696731D01*
X105173444Y-90718414D01*
X105269951Y-90907820D01*
X105394890Y-91079786D01*
X105545209Y-91230105D01*
X105545214Y-91230109D01*
X105709793Y-91349682D01*
X105752459Y-91405011D01*
X105758438Y-91474625D01*
X105725833Y-91536420D01*
X105709793Y-91550318D01*
X105545214Y-91669890D01*
X105545209Y-91669894D01*
X105394890Y-91820213D01*
X105269951Y-91992179D01*
X105173444Y-92181585D01*
X105107753Y-92383760D01*
X105074500Y-92593713D01*
X105074500Y-92806286D01*
X105103319Y-92988245D01*
X105107754Y-93016243D01*
X105169092Y-93205022D01*
X105173444Y-93218414D01*
X105269951Y-93407820D01*
X105394890Y-93579786D01*
X105533705Y-93718601D01*
X105567190Y-93779924D01*
X105562206Y-93849616D01*
X105520334Y-93905549D01*
X105511121Y-93911821D01*
X105356342Y-94007289D01*
X105232289Y-94131342D01*
X105140187Y-94280663D01*
X105140185Y-94280668D01*
X105085001Y-94447204D01*
X105085000Y-94447205D01*
X105080823Y-94488102D01*
X105054427Y-94552793D01*
X104997247Y-94592945D01*
X104957465Y-94599500D01*
X103475097Y-94599500D01*
X103408058Y-94579815D01*
X103387416Y-94563181D01*
X100661818Y-91837583D01*
X100628333Y-91776260D01*
X100625499Y-91749902D01*
X100625499Y-91401662D01*
X100625498Y-91401644D01*
X100615349Y-91302292D01*
X100615348Y-91302289D01*
X100608909Y-91282858D01*
X100562003Y-91141303D01*
X100550598Y-91122813D01*
X100532159Y-91055422D01*
X100553082Y-90988759D01*
X100606724Y-90943989D01*
X100676054Y-90935328D01*
X100699468Y-90941535D01*
X100718117Y-90948491D01*
X100777727Y-90954900D01*
X101432272Y-90954899D01*
X101491883Y-90948491D01*
X101626731Y-90898196D01*
X101741946Y-90811946D01*
X101828196Y-90696731D01*
X101859318Y-90613289D01*
X101901189Y-90557355D01*
X101966653Y-90532938D01*
X102034926Y-90547789D01*
X102084332Y-90597194D01*
X102099500Y-90656622D01*
X102099500Y-91620724D01*
X102099499Y-91621796D01*
X102099481Y-91621854D01*
X102098513Y-91631683D01*
X102098742Y-91634302D01*
X102098741Y-91634311D01*
X102098260Y-91634257D01*
X102097116Y-91645871D01*
X102096945Y-91646731D01*
X102067222Y-91796155D01*
X102067222Y-91953846D01*
X102097983Y-92108489D01*
X102097986Y-92108501D01*
X102158324Y-92254172D01*
X102158331Y-92254185D01*
X102245932Y-92385288D01*
X102245935Y-92385292D01*
X102357429Y-92496786D01*
X102357433Y-92496789D01*
X102488536Y-92584390D01*
X102488549Y-92584397D01*
X102634220Y-92644735D01*
X102634225Y-92644737D01*
X102775799Y-92672898D01*
X102788875Y-92675499D01*
X102788878Y-92675500D01*
X102788880Y-92675500D01*
X102946566Y-92675500D01*
X102946567Y-92675499D01*
X103101219Y-92644737D01*
X103246901Y-92584394D01*
X103378011Y-92496789D01*
X103489511Y-92385289D01*
X103577116Y-92254179D01*
X103637459Y-92108497D01*
X103668222Y-91953842D01*
X103668222Y-91917731D01*
X103687907Y-91850692D01*
X103740711Y-91804937D01*
X103744703Y-91803197D01*
X103866668Y-91752679D01*
X103997778Y-91665074D01*
X104109278Y-91553574D01*
X104196883Y-91422464D01*
X104197615Y-91420698D01*
X104224454Y-91355901D01*
X104257226Y-91276782D01*
X104287989Y-91122127D01*
X104287989Y-90964443D01*
X104287989Y-90964440D01*
X104287988Y-90964438D01*
X104284816Y-90948491D01*
X104257226Y-90809788D01*
X104243930Y-90777689D01*
X104196886Y-90664112D01*
X104196879Y-90664099D01*
X104109278Y-90532996D01*
X104109275Y-90532992D01*
X103997782Y-90421499D01*
X103955607Y-90393318D01*
X103910803Y-90339705D01*
X103900500Y-90290217D01*
X103900500Y-88801459D01*
X103900501Y-88801446D01*
X103900501Y-88633345D01*
X103900501Y-88633343D01*
X103859577Y-88480615D01*
X103844658Y-88454776D01*
X103824280Y-88419479D01*
X103824279Y-88419478D01*
X103780521Y-88343686D01*
X103780520Y-88343684D01*
X103668716Y-88231880D01*
X103668715Y-88231879D01*
X103664385Y-88227549D01*
X103664374Y-88227539D01*
X101602013Y-86165178D01*
X101568528Y-86103855D01*
X101573512Y-86034163D01*
X101615384Y-85978230D01*
X101623506Y-85973010D01*
X101626731Y-85970596D01*
X101741946Y-85884346D01*
X101828196Y-85769131D01*
X101878491Y-85634283D01*
X101884900Y-85574673D01*
X101884899Y-83497728D01*
X101878491Y-83438117D01*
X101868648Y-83411727D01*
X101828197Y-83303271D01*
X101828193Y-83303264D01*
X101741947Y-83188055D01*
X101741944Y-83188052D01*
X101626735Y-83101806D01*
X101626728Y-83101802D01*
X101491886Y-83051510D01*
X101491885Y-83051509D01*
X101491883Y-83051509D01*
X101432273Y-83045100D01*
X101432264Y-83045100D01*
X101184740Y-83045100D01*
X101117701Y-83025415D01*
X101071946Y-82972611D01*
X101062002Y-82903453D01*
X101091027Y-82839897D01*
X101106081Y-82825242D01*
X101110283Y-82821792D01*
X101110289Y-82821789D01*
X101221789Y-82710289D01*
X101309394Y-82579179D01*
X101369737Y-82433497D01*
X101400500Y-82278842D01*
X101400500Y-82121158D01*
X101400500Y-82121155D01*
X101400499Y-82121153D01*
X101397402Y-82105582D01*
X101369737Y-81966503D01*
X101368951Y-81964605D01*
X101366816Y-81959450D01*
X101359349Y-81889980D01*
X101390625Y-81827502D01*
X101450715Y-81791851D01*
X101481378Y-81788000D01*
X101931613Y-81788000D01*
X101931616Y-81788000D01*
X102002196Y-81781586D01*
X102164606Y-81730978D01*
X102310185Y-81642972D01*
X102317667Y-81635489D01*
X102378985Y-81602001D01*
X102448677Y-81606980D01*
X102493034Y-81635484D01*
X102500122Y-81642572D01*
X102645604Y-81730519D01*
X102645603Y-81730519D01*
X102807894Y-81781090D01*
X102807892Y-81781090D01*
X102878418Y-81787499D01*
X102959999Y-81787498D01*
X102960000Y-81787498D01*
X102960000Y-81011500D01*
X102979685Y-80944461D01*
X103032489Y-80898706D01*
X103084000Y-80887500D01*
X103336000Y-80887500D01*
X103403039Y-80907185D01*
G37*
%TD.AperFunction*%
%TA.AperFunction,Conductor*%
G36*
X82313022Y-86321813D02*
G01*
X82336674Y-86348126D01*
X82378210Y-86410288D01*
X82378213Y-86410292D01*
X82489707Y-86521786D01*
X82489711Y-86521789D01*
X82620814Y-86609390D01*
X82620827Y-86609397D01*
X82766498Y-86669735D01*
X82766503Y-86669737D01*
X82866944Y-86689716D01*
X82921153Y-86700499D01*
X82921156Y-86700500D01*
X82921158Y-86700500D01*
X83078844Y-86700500D01*
X83078845Y-86700499D01*
X83233497Y-86669737D01*
X83346166Y-86623067D01*
X83379172Y-86609397D01*
X83379172Y-86609396D01*
X83379179Y-86609394D01*
X83510289Y-86521789D01*
X83539366Y-86492712D01*
X83587819Y-86444260D01*
X83649142Y-86410775D01*
X83718834Y-86415759D01*
X83774767Y-86457631D01*
X83799184Y-86523095D01*
X83799500Y-86531941D01*
X83799500Y-87379016D01*
X83799499Y-87379034D01*
X83799499Y-87544740D01*
X83799498Y-87544740D01*
X83806722Y-87571700D01*
X83840423Y-87697471D01*
X83840424Y-87697472D01*
X83850788Y-87715423D01*
X83850789Y-87715426D01*
X83919475Y-87834395D01*
X83919481Y-87834403D01*
X84038349Y-87953271D01*
X84038355Y-87953276D01*
X85024453Y-88939374D01*
X85024463Y-88939385D01*
X85028793Y-88943715D01*
X85028794Y-88943716D01*
X85140598Y-89055520D01*
X85140600Y-89055521D01*
X85140604Y-89055524D01*
X85224666Y-89104057D01*
X85224667Y-89104057D01*
X85277529Y-89134577D01*
X85430257Y-89175501D01*
X85430260Y-89175501D01*
X85595967Y-89175501D01*
X85595983Y-89175500D01*
X85775902Y-89175500D01*
X85842941Y-89195185D01*
X85888696Y-89247989D01*
X85898640Y-89317147D01*
X85869615Y-89380703D01*
X85863583Y-89387181D01*
X82486079Y-92764683D01*
X82424756Y-92798168D01*
X82355064Y-92793184D01*
X82299131Y-92751312D01*
X82275925Y-92696400D01*
X82275500Y-92693716D01*
X82275500Y-92693713D01*
X82242246Y-92483757D01*
X82176557Y-92281588D01*
X82080051Y-92092184D01*
X82080049Y-92092181D01*
X82080048Y-92092179D01*
X81955109Y-91920213D01*
X81804792Y-91769896D01*
X81804784Y-91769890D01*
X81640204Y-91650316D01*
X81597540Y-91594989D01*
X81591561Y-91525376D01*
X81624166Y-91463580D01*
X81640199Y-91449686D01*
X81804792Y-91330104D01*
X81955104Y-91179792D01*
X81955106Y-91179788D01*
X81955109Y-91179786D01*
X82080048Y-91007820D01*
X82080047Y-91007820D01*
X82080051Y-91007816D01*
X82176557Y-90818412D01*
X82242246Y-90616243D01*
X82275500Y-90406287D01*
X82275500Y-90193713D01*
X82242246Y-89983757D01*
X82176557Y-89781588D01*
X82080051Y-89592184D01*
X82080049Y-89592181D01*
X82080048Y-89592179D01*
X81955109Y-89420213D01*
X81804790Y-89269894D01*
X81804785Y-89269890D01*
X81639781Y-89150008D01*
X81597115Y-89094678D01*
X81591136Y-89025065D01*
X81623741Y-88963270D01*
X81639781Y-88949371D01*
X81804466Y-88829721D01*
X81954723Y-88679464D01*
X81954727Y-88679459D01*
X82079620Y-88507557D01*
X82176095Y-88318217D01*
X82241757Y-88116129D01*
X82241757Y-88116126D01*
X82252231Y-88050000D01*
X81204146Y-88050000D01*
X81242630Y-87983343D01*
X81275000Y-87862535D01*
X81275000Y-87737465D01*
X81242630Y-87616657D01*
X81204146Y-87550000D01*
X82252231Y-87550000D01*
X82241757Y-87483873D01*
X82241757Y-87483870D01*
X82176095Y-87281782D01*
X82079620Y-87092442D01*
X81954727Y-86920540D01*
X81954723Y-86920535D01*
X81815856Y-86781668D01*
X81782371Y-86720345D01*
X81787355Y-86650653D01*
X81829227Y-86594720D01*
X81838441Y-86588448D01*
X81844331Y-86584814D01*
X81844334Y-86584814D01*
X81993656Y-86492712D01*
X82117712Y-86368656D01*
X82128032Y-86351923D01*
X82179976Y-86305198D01*
X82248939Y-86293973D01*
X82313022Y-86321813D01*
G37*
%TD.AperFunction*%
%TA.AperFunction,Conductor*%
G36*
X87366442Y-85344685D02*
G01*
X87387084Y-85361319D01*
X87415140Y-85389375D01*
X87415150Y-85389386D01*
X87419480Y-85393716D01*
X87419481Y-85393717D01*
X87531285Y-85505521D01*
X87609528Y-85550694D01*
X87668216Y-85584578D01*
X87673508Y-85585996D01*
X87685195Y-85592449D01*
X87705093Y-85612535D01*
X87727110Y-85630277D01*
X87729358Y-85637030D01*
X87734367Y-85642087D01*
X87740246Y-85669742D01*
X87749177Y-85696571D01*
X87747416Y-85703467D01*
X87748897Y-85710429D01*
X87738892Y-85736870D01*
X87731900Y-85764271D01*
X87726690Y-85769121D01*
X87724172Y-85775777D01*
X87701458Y-85792614D01*
X87680764Y-85811882D01*
X87672985Y-85813720D01*
X87668042Y-85817385D01*
X87653317Y-85818368D01*
X87625256Y-85825000D01*
X87024000Y-85825000D01*
X86956961Y-85805315D01*
X86911206Y-85752511D01*
X86900000Y-85701000D01*
X86900000Y-85449000D01*
X86919685Y-85381961D01*
X86972489Y-85336206D01*
X87024000Y-85325000D01*
X87299403Y-85325000D01*
X87366442Y-85344685D01*
G37*
%TD.AperFunction*%
%TA.AperFunction,Conductor*%
G36*
X90621301Y-84958242D02*
G01*
X90643201Y-84983064D01*
X90689234Y-85051956D01*
X90728211Y-85110289D01*
X90730923Y-85113001D01*
X90733640Y-85116106D01*
X90742337Y-85134909D01*
X90760097Y-85165669D01*
X90790420Y-85278835D01*
X90790422Y-85278839D01*
X90790423Y-85278841D01*
X90800375Y-85296078D01*
X90811079Y-85314618D01*
X90827553Y-85382517D01*
X90804701Y-85448545D01*
X90749781Y-85491736D01*
X90726936Y-85497329D01*
X90727132Y-85498311D01*
X90560528Y-85531451D01*
X90559983Y-85528713D01*
X90554226Y-85528757D01*
X90537312Y-85533908D01*
X90520015Y-85529016D01*
X90502041Y-85529153D01*
X90487094Y-85519706D01*
X90470079Y-85514895D01*
X90458171Y-85501427D01*
X90442978Y-85491825D01*
X90435461Y-85475742D01*
X90423798Y-85462551D01*
X90415601Y-85433248D01*
X90413517Y-85428788D01*
X90404400Y-85369587D01*
X90407409Y-85347053D01*
X90405784Y-85324378D01*
X90408738Y-85314314D01*
X90409689Y-85310290D01*
X90409689Y-85310289D01*
X90409691Y-85310284D01*
X90416100Y-85250674D01*
X90416099Y-85051954D01*
X90435783Y-84984916D01*
X90488587Y-84939161D01*
X90557745Y-84929217D01*
X90621301Y-84958242D01*
G37*
%TD.AperFunction*%
%TA.AperFunction,Conductor*%
G36*
X84948142Y-79905248D02*
G01*
X84981578Y-79914924D01*
X84981828Y-79915139D01*
X84981984Y-79915185D01*
X84982537Y-79915749D01*
X85008341Y-79937933D01*
X85015094Y-79945665D01*
X85025719Y-79962891D01*
X85060610Y-79997782D01*
X85063362Y-80000933D01*
X85076316Y-80029008D01*
X85091132Y-80056142D01*
X85090823Y-80060451D01*
X85092634Y-80064375D01*
X85088353Y-80094991D01*
X85086148Y-80125834D01*
X85083558Y-80129293D01*
X85082960Y-80133572D01*
X85057647Y-80170181D01*
X85025719Y-80202108D01*
X85025716Y-80202112D01*
X84937455Y-80345204D01*
X84937450Y-80345215D01*
X84919994Y-80397894D01*
X84884564Y-80504815D01*
X84884564Y-80504816D01*
X84884563Y-80504816D01*
X84874500Y-80603318D01*
X84874500Y-81136681D01*
X84884563Y-81235183D01*
X84937450Y-81394784D01*
X84937455Y-81394795D01*
X85025716Y-81537887D01*
X85025719Y-81537891D01*
X85144608Y-81656780D01*
X85144612Y-81656783D01*
X85287704Y-81745044D01*
X85287707Y-81745045D01*
X85287713Y-81745049D01*
X85447315Y-81797936D01*
X85545826Y-81808000D01*
X85887402Y-81808000D01*
X85954441Y-81827685D01*
X85959564Y-81831160D01*
X85967862Y-81837098D01*
X86011284Y-81880520D01*
X86095353Y-81929057D01*
X86148215Y-81959577D01*
X86224424Y-81979996D01*
X86280011Y-82012090D01*
X86289707Y-82021786D01*
X86289711Y-82021789D01*
X86420814Y-82109390D01*
X86420827Y-82109397D01*
X86566498Y-82169735D01*
X86566503Y-82169737D01*
X86664571Y-82189244D01*
X86721153Y-82200499D01*
X86721156Y-82200500D01*
X86721158Y-82200500D01*
X86878844Y-82200500D01*
X86878845Y-82200499D01*
X87033497Y-82169737D01*
X87179179Y-82109394D01*
X87310289Y-82021789D01*
X87349811Y-81982267D01*
X87411134Y-81948781D01*
X87480825Y-81953765D01*
X87524426Y-81985824D01*
X87526402Y-81983849D01*
X87648129Y-82105576D01*
X87648133Y-82105579D01*
X87648135Y-82105581D01*
X87789602Y-82189244D01*
X87828342Y-82200499D01*
X87934784Y-82231424D01*
X87993670Y-82269030D01*
X88022876Y-82332503D01*
X88013130Y-82401689D01*
X87967526Y-82454624D01*
X87900543Y-82474499D01*
X87900189Y-82474500D01*
X84748534Y-82474500D01*
X84681495Y-82454815D01*
X84660853Y-82438181D01*
X84088167Y-81865495D01*
X84054682Y-81804172D01*
X84059666Y-81734480D01*
X84101538Y-81678547D01*
X84111699Y-81671696D01*
X84159879Y-81642570D01*
X84280072Y-81522377D01*
X84368019Y-81376895D01*
X84418590Y-81214606D01*
X84425000Y-81144072D01*
X84425000Y-81137500D01*
X83574000Y-81137500D01*
X83506961Y-81117815D01*
X83461206Y-81065011D01*
X83450000Y-81013500D01*
X83450000Y-80761500D01*
X83469685Y-80694461D01*
X83522489Y-80648706D01*
X83574000Y-80637500D01*
X84424999Y-80637500D01*
X84424999Y-80630917D01*
X84418591Y-80560397D01*
X84418590Y-80560392D01*
X84368018Y-80398103D01*
X84280072Y-80252622D01*
X84177984Y-80150534D01*
X84144499Y-80089211D01*
X84149483Y-80019519D01*
X84177983Y-79975173D01*
X84221339Y-79931818D01*
X84282662Y-79898333D01*
X84309019Y-79895500D01*
X84914945Y-79895500D01*
X84948142Y-79905248D01*
G37*
%TD.AperFunction*%
%TA.AperFunction,Conductor*%
G36*
X96872018Y-75369185D02*
G01*
X96917773Y-75421989D01*
X96928337Y-75460899D01*
X96934650Y-75522707D01*
X96934651Y-75522710D01*
X96987996Y-75683694D01*
X96988001Y-75683705D01*
X97077029Y-75828040D01*
X97077032Y-75828044D01*
X97086660Y-75837672D01*
X97120145Y-75898995D01*
X97115161Y-75968687D01*
X97086663Y-76013031D01*
X97077428Y-76022265D01*
X97077424Y-76022271D01*
X96988457Y-76166507D01*
X96988452Y-76166518D01*
X96935144Y-76327393D01*
X96925000Y-76426677D01*
X96925000Y-76450000D01*
X98874999Y-76450000D01*
X98874999Y-76426692D01*
X98874998Y-76426677D01*
X98864855Y-76327392D01*
X98811547Y-76166518D01*
X98811542Y-76166507D01*
X98722575Y-76022271D01*
X98722572Y-76022267D01*
X98713339Y-76013034D01*
X98679854Y-75951711D01*
X98684838Y-75882019D01*
X98713343Y-75837668D01*
X98722968Y-75828044D01*
X98812003Y-75683697D01*
X98865349Y-75522708D01*
X98870376Y-75473500D01*
X98871664Y-75460897D01*
X98872658Y-75458459D01*
X98872284Y-75455853D01*
X98885781Y-75426298D01*
X98898060Y-75396205D01*
X98900215Y-75394691D01*
X98901309Y-75392297D01*
X98928638Y-75374733D01*
X98955241Y-75356054D01*
X98958554Y-75355508D01*
X98960087Y-75354523D01*
X98995022Y-75349500D01*
X99125500Y-75349500D01*
X99192539Y-75369185D01*
X99238294Y-75421989D01*
X99249500Y-75473500D01*
X99249500Y-76797870D01*
X99249501Y-76797876D01*
X99255908Y-76857483D01*
X99296203Y-76965519D01*
X99301187Y-77035211D01*
X99267701Y-77096534D01*
X99206378Y-77130018D01*
X99136686Y-77125033D01*
X99126975Y-77120933D01*
X99118717Y-77117025D01*
X99079179Y-77090606D01*
X98948727Y-77036571D01*
X98945954Y-77035259D01*
X98922054Y-77013972D01*
X98897144Y-76993898D01*
X98896144Y-76990894D01*
X98893779Y-76988788D01*
X98886042Y-76961042D01*
X98875000Y-76950000D01*
X96925001Y-76950000D01*
X96925001Y-76973322D01*
X96935144Y-77072607D01*
X96988452Y-77233481D01*
X96988457Y-77233492D01*
X97077424Y-77377728D01*
X97077427Y-77377732D01*
X97197267Y-77497572D01*
X97197271Y-77497575D01*
X97341507Y-77586542D01*
X97341518Y-77586547D01*
X97502393Y-77639855D01*
X97601683Y-77649999D01*
X97775499Y-77649999D01*
X97842539Y-77669683D01*
X97888294Y-77722487D01*
X97899500Y-77773999D01*
X97899500Y-77878846D01*
X97930261Y-78033489D01*
X97930264Y-78033501D01*
X97990602Y-78179172D01*
X97990609Y-78179185D01*
X98078210Y-78310288D01*
X98078213Y-78310292D01*
X98189709Y-78421788D01*
X98194388Y-78424914D01*
X98239194Y-78478525D01*
X98249500Y-78528018D01*
X98249500Y-79638000D01*
X98229815Y-79705039D01*
X98177011Y-79750794D01*
X98125500Y-79762000D01*
X97884298Y-79762000D01*
X97847432Y-79764901D01*
X97847426Y-79764902D01*
X97689606Y-79810754D01*
X97689603Y-79810755D01*
X97548137Y-79894417D01*
X97548129Y-79894423D01*
X97431923Y-80010629D01*
X97431917Y-80010637D01*
X97348255Y-80152103D01*
X97348254Y-80152106D01*
X97302402Y-80309926D01*
X97302401Y-80309932D01*
X97299500Y-80346798D01*
X97299500Y-80899903D01*
X97279815Y-80966942D01*
X97263181Y-80987584D01*
X96983436Y-81267328D01*
X96922113Y-81300813D01*
X96852421Y-81295829D01*
X96796488Y-81253957D01*
X96772071Y-81188493D01*
X96772397Y-81167043D01*
X96775500Y-81136674D01*
X96775500Y-80603326D01*
X96765436Y-80504815D01*
X96712549Y-80345213D01*
X96712545Y-80345207D01*
X96712544Y-80345204D01*
X96624283Y-80202112D01*
X96624280Y-80202108D01*
X96592353Y-80170181D01*
X96558868Y-80108858D01*
X96563852Y-80039166D01*
X96592353Y-79994819D01*
X96604763Y-79982409D01*
X96624281Y-79962891D01*
X96712549Y-79819787D01*
X96765436Y-79660185D01*
X96775500Y-79561674D01*
X96775500Y-79028326D01*
X96765436Y-78929815D01*
X96712549Y-78770213D01*
X96712545Y-78770207D01*
X96712544Y-78770204D01*
X96624283Y-78627112D01*
X96624280Y-78627108D01*
X96505391Y-78508219D01*
X96505387Y-78508216D01*
X96362295Y-78419955D01*
X96362289Y-78419952D01*
X96362287Y-78419951D01*
X96202685Y-78367064D01*
X96202683Y-78367063D01*
X96104181Y-78357000D01*
X96104174Y-78357000D01*
X95495826Y-78357000D01*
X95495818Y-78357000D01*
X95397316Y-78367063D01*
X95397315Y-78367064D01*
X95318219Y-78393273D01*
X95237715Y-78419950D01*
X95237704Y-78419955D01*
X95094612Y-78508216D01*
X95002146Y-78600682D01*
X94940822Y-78634166D01*
X94914465Y-78637000D01*
X94316520Y-78637000D01*
X94249481Y-78617315D01*
X94228839Y-78600681D01*
X94110188Y-78482030D01*
X94093262Y-78471798D01*
X93964606Y-78394022D01*
X93802196Y-78343414D01*
X93802194Y-78343413D01*
X93802192Y-78343413D01*
X93752778Y-78338923D01*
X93731616Y-78337000D01*
X93068384Y-78337000D01*
X93049145Y-78338748D01*
X92997807Y-78343413D01*
X92835393Y-78394022D01*
X92689811Y-78482030D01*
X92689810Y-78482031D01*
X92637327Y-78534515D01*
X92576004Y-78568000D01*
X92506312Y-78563016D01*
X92461965Y-78534515D01*
X92409877Y-78482427D01*
X92264395Y-78394480D01*
X92264396Y-78394480D01*
X92102105Y-78343909D01*
X92102106Y-78343909D01*
X92031572Y-78337500D01*
X91950000Y-78337500D01*
X91950000Y-79113500D01*
X91930315Y-79180539D01*
X91877511Y-79226294D01*
X91826000Y-79237500D01*
X91700000Y-79237500D01*
X91700000Y-79363500D01*
X91680315Y-79430539D01*
X91627511Y-79476294D01*
X91576000Y-79487500D01*
X90725001Y-79487500D01*
X90725001Y-79494082D01*
X90731408Y-79564602D01*
X90731409Y-79564610D01*
X90779500Y-79718938D01*
X90780652Y-79788798D01*
X90743851Y-79848190D01*
X90680782Y-79878258D01*
X90611469Y-79869456D01*
X90597994Y-79862560D01*
X90525679Y-79819793D01*
X90510398Y-79810756D01*
X90510397Y-79810755D01*
X90510396Y-79810755D01*
X90510393Y-79810754D01*
X90352573Y-79764902D01*
X90352567Y-79764901D01*
X90315701Y-79762000D01*
X90315694Y-79762000D01*
X90074500Y-79762000D01*
X90007461Y-79742315D01*
X89961706Y-79689511D01*
X89950500Y-79638000D01*
X89950500Y-78980927D01*
X90725000Y-78980927D01*
X90725000Y-78987500D01*
X91450000Y-78987500D01*
X91450000Y-78337500D01*
X91449999Y-78337499D01*
X91368417Y-78337500D01*
X91297897Y-78343908D01*
X91297892Y-78343909D01*
X91135603Y-78394481D01*
X90990122Y-78482427D01*
X90869927Y-78602622D01*
X90781980Y-78748104D01*
X90731409Y-78910393D01*
X90725000Y-78980927D01*
X89950500Y-78980927D01*
X89950500Y-78471813D01*
X89950499Y-78471798D01*
X89947598Y-78434932D01*
X89947597Y-78434926D01*
X89911386Y-78310289D01*
X89901744Y-78277102D01*
X89818081Y-78135635D01*
X89818079Y-78135633D01*
X89818076Y-78135629D01*
X89701870Y-78019423D01*
X89701862Y-78019417D01*
X89560396Y-77935755D01*
X89560393Y-77935754D01*
X89402573Y-77889902D01*
X89402567Y-77889901D01*
X89365701Y-77887000D01*
X89365694Y-77887000D01*
X88934306Y-77887000D01*
X88934298Y-77887000D01*
X88897432Y-77889901D01*
X88897426Y-77889902D01*
X88739606Y-77935754D01*
X88739603Y-77935755D01*
X88598140Y-78019415D01*
X88598134Y-78019420D01*
X88571540Y-78046013D01*
X88510215Y-78079496D01*
X88440524Y-78074509D01*
X88436409Y-78072890D01*
X88333501Y-78030264D01*
X88333489Y-78030261D01*
X88178845Y-77999500D01*
X88178842Y-77999500D01*
X88021158Y-77999500D01*
X88021153Y-77999500D01*
X87999860Y-78003735D01*
X87876800Y-78028213D01*
X87876799Y-78028214D01*
X87866509Y-78030261D01*
X87866498Y-78030264D01*
X87720827Y-78090602D01*
X87720814Y-78090609D01*
X87589711Y-78178210D01*
X87589707Y-78178213D01*
X87478213Y-78289707D01*
X87478210Y-78289711D01*
X87390609Y-78420814D01*
X87390602Y-78420827D01*
X87330264Y-78566498D01*
X87330261Y-78566510D01*
X87299500Y-78721153D01*
X87299500Y-78878846D01*
X87330261Y-79033489D01*
X87330264Y-79033501D01*
X87390602Y-79179172D01*
X87390609Y-79179185D01*
X87478210Y-79310288D01*
X87478213Y-79310292D01*
X87589707Y-79421786D01*
X87589711Y-79421789D01*
X87720814Y-79509390D01*
X87720827Y-79509397D01*
X87850574Y-79563139D01*
X87904978Y-79606979D01*
X87927043Y-79673273D01*
X87909764Y-79740973D01*
X87858627Y-79788584D01*
X87837718Y-79796776D01*
X87789605Y-79810754D01*
X87789603Y-79810755D01*
X87648137Y-79894417D01*
X87648129Y-79894423D01*
X87531923Y-80010629D01*
X87531917Y-80010637D01*
X87448255Y-80152103D01*
X87448254Y-80152106D01*
X87402402Y-80309926D01*
X87402401Y-80309932D01*
X87399500Y-80346798D01*
X87399500Y-80605831D01*
X87379815Y-80672870D01*
X87327011Y-80718625D01*
X87257853Y-80728569D01*
X87206610Y-80708934D01*
X87179183Y-80690608D01*
X87179172Y-80690602D01*
X87033501Y-80630264D01*
X87033491Y-80630261D01*
X86913775Y-80606448D01*
X86851864Y-80574063D01*
X86817290Y-80513347D01*
X86816714Y-80510788D01*
X86815437Y-80504827D01*
X86815436Y-80504815D01*
X86762549Y-80345213D01*
X86762545Y-80345207D01*
X86762544Y-80345204D01*
X86674283Y-80202112D01*
X86674280Y-80202108D01*
X86642353Y-80170181D01*
X86608868Y-80108858D01*
X86613852Y-80039166D01*
X86642353Y-79994819D01*
X86654763Y-79982409D01*
X86674281Y-79962891D01*
X86762549Y-79819787D01*
X86815436Y-79660185D01*
X86825500Y-79561674D01*
X86825500Y-79028326D01*
X86815436Y-78929815D01*
X86762549Y-78770213D01*
X86762545Y-78770207D01*
X86762544Y-78770204D01*
X86674283Y-78627112D01*
X86674280Y-78627108D01*
X86555391Y-78508219D01*
X86555387Y-78508216D01*
X86412295Y-78419955D01*
X86412289Y-78419952D01*
X86412287Y-78419951D01*
X86252685Y-78367064D01*
X86252683Y-78367063D01*
X86154181Y-78357000D01*
X86154174Y-78357000D01*
X85545826Y-78357000D01*
X85545818Y-78357000D01*
X85447316Y-78367063D01*
X85447315Y-78367064D01*
X85368219Y-78393273D01*
X85287715Y-78419950D01*
X85287704Y-78419955D01*
X85144612Y-78508216D01*
X85144608Y-78508219D01*
X85025719Y-78627108D01*
X85025716Y-78627112D01*
X85020483Y-78635597D01*
X84968535Y-78682322D01*
X84914945Y-78694500D01*
X84406136Y-78694500D01*
X84339097Y-78674815D01*
X84300020Y-78634651D01*
X84289540Y-78617315D01*
X84280472Y-78602315D01*
X84280471Y-78602314D01*
X84280468Y-78602310D01*
X84160188Y-78482030D01*
X84143262Y-78471798D01*
X84014606Y-78394022D01*
X83852196Y-78343414D01*
X83852194Y-78343413D01*
X83852192Y-78343413D01*
X83802778Y-78338923D01*
X83781616Y-78337000D01*
X83118384Y-78337000D01*
X83099145Y-78338748D01*
X83047807Y-78343413D01*
X82885393Y-78394022D01*
X82739811Y-78482030D01*
X82619530Y-78602311D01*
X82531522Y-78747893D01*
X82480913Y-78910307D01*
X82474500Y-78980886D01*
X82474500Y-79494113D01*
X82480913Y-79564692D01*
X82480913Y-79564694D01*
X82480914Y-79564696D01*
X82531522Y-79727106D01*
X82619342Y-79872378D01*
X82619530Y-79872688D01*
X82722015Y-79975173D01*
X82726353Y-79983118D01*
X82733601Y-79988544D01*
X82742835Y-80013303D01*
X82755500Y-80036496D01*
X82754854Y-80045525D01*
X82758018Y-80054008D01*
X82752401Y-80079828D01*
X82750516Y-80106188D01*
X82744697Y-80115241D01*
X82743166Y-80122281D01*
X82722015Y-80150535D01*
X82635292Y-80237258D01*
X82573969Y-80270743D01*
X82504277Y-80265759D01*
X82459930Y-80237258D01*
X80396819Y-78174147D01*
X80363334Y-78112824D01*
X80360500Y-78086466D01*
X80360500Y-77436999D01*
X80380185Y-77369960D01*
X80432989Y-77324205D01*
X80484500Y-77312999D01*
X80657871Y-77312999D01*
X80657872Y-77312999D01*
X80717483Y-77306591D01*
X80852331Y-77256296D01*
X80917563Y-77207463D01*
X80983025Y-77183046D01*
X81051298Y-77197897D01*
X81079554Y-77219049D01*
X81337379Y-77476874D01*
X81337389Y-77476885D01*
X81341719Y-77481215D01*
X81341720Y-77481216D01*
X81453524Y-77593020D01*
X81535629Y-77640423D01*
X81590455Y-77672077D01*
X81743183Y-77713000D01*
X85229677Y-77713000D01*
X85229693Y-77713001D01*
X85237289Y-77713001D01*
X85395400Y-77713001D01*
X85395403Y-77713001D01*
X85548131Y-77672077D01*
X85602957Y-77640423D01*
X85685062Y-77593020D01*
X85796866Y-77481216D01*
X85796866Y-77481214D01*
X85807070Y-77471011D01*
X85807073Y-77471006D01*
X86313322Y-76964758D01*
X86374642Y-76931275D01*
X86444334Y-76936259D01*
X86500267Y-76978131D01*
X86524684Y-77043595D01*
X86525000Y-77052439D01*
X86525000Y-77110806D01*
X86525001Y-77110823D01*
X86535144Y-77210107D01*
X86588452Y-77370981D01*
X86588457Y-77370992D01*
X86677424Y-77515228D01*
X86677427Y-77515232D01*
X86797267Y-77635072D01*
X86797271Y-77635075D01*
X86941507Y-77724042D01*
X86941518Y-77724047D01*
X87102393Y-77777355D01*
X87201683Y-77787499D01*
X87750000Y-77787499D01*
X87798308Y-77787499D01*
X87798317Y-77787498D01*
X87834166Y-77783835D01*
X87943955Y-77761997D01*
X88058479Y-77724048D01*
X88058492Y-77724042D01*
X88202728Y-77635075D01*
X88202732Y-77635072D01*
X88322572Y-77515232D01*
X88322575Y-77515228D01*
X88411542Y-77370992D01*
X88411547Y-77370981D01*
X88464855Y-77210106D01*
X88474999Y-77110822D01*
X88475000Y-77110809D01*
X88475000Y-77087500D01*
X87750000Y-77087500D01*
X87750000Y-77787499D01*
X87201683Y-77787499D01*
X87249999Y-77787498D01*
X87250000Y-77787498D01*
X87250000Y-76961500D01*
X87269685Y-76894461D01*
X87322489Y-76848706D01*
X87374000Y-76837500D01*
X87500000Y-76837500D01*
X87500000Y-76811000D01*
X87519685Y-76743961D01*
X87572489Y-76698206D01*
X87624000Y-76687000D01*
X88686197Y-76687000D01*
X88753236Y-76706685D01*
X88798991Y-76759489D01*
X88809487Y-76797746D01*
X88815908Y-76857483D01*
X88866202Y-76992328D01*
X88866206Y-76992335D01*
X88952452Y-77107544D01*
X88952455Y-77107547D01*
X89067664Y-77193793D01*
X89067671Y-77193797D01*
X89202517Y-77244091D01*
X89202516Y-77244091D01*
X89209444Y-77244835D01*
X89262127Y-77250500D01*
X91057872Y-77250499D01*
X91117483Y-77244091D01*
X91252331Y-77193796D01*
X91367546Y-77107546D01*
X91453796Y-76992331D01*
X91502810Y-76860916D01*
X91544681Y-76804984D01*
X91610145Y-76780566D01*
X91678418Y-76795417D01*
X91706673Y-76816569D01*
X91820213Y-76930109D01*
X91992179Y-77055048D01*
X91992181Y-77055049D01*
X91992184Y-77055051D01*
X92181588Y-77151557D01*
X92383757Y-77217246D01*
X92593713Y-77250500D01*
X92593714Y-77250500D01*
X92806286Y-77250500D01*
X92806287Y-77250500D01*
X93016243Y-77217246D01*
X93218412Y-77151557D01*
X93407816Y-77055051D01*
X93484276Y-76999500D01*
X93579786Y-76930109D01*
X93579788Y-76930106D01*
X93579792Y-76930104D01*
X93730104Y-76779792D01*
X93730106Y-76779788D01*
X93730109Y-76779786D01*
X93855048Y-76607820D01*
X93855047Y-76607820D01*
X93855051Y-76607816D01*
X93859514Y-76599054D01*
X93907488Y-76548259D01*
X93975308Y-76531463D01*
X94041444Y-76553999D01*
X94080486Y-76599056D01*
X94084951Y-76607820D01*
X94209890Y-76779786D01*
X94360213Y-76930109D01*
X94532179Y-77055048D01*
X94532181Y-77055049D01*
X94532184Y-77055051D01*
X94721588Y-77151557D01*
X94923757Y-77217246D01*
X95133713Y-77250500D01*
X95133714Y-77250500D01*
X95346286Y-77250500D01*
X95346287Y-77250500D01*
X95556243Y-77217246D01*
X95758412Y-77151557D01*
X95947816Y-77055051D01*
X96024276Y-76999500D01*
X96119786Y-76930109D01*
X96119788Y-76930106D01*
X96119792Y-76930104D01*
X96270104Y-76779792D01*
X96270106Y-76779788D01*
X96270109Y-76779786D01*
X96395048Y-76607820D01*
X96395047Y-76607820D01*
X96395051Y-76607816D01*
X96491557Y-76418412D01*
X96557246Y-76216243D01*
X96590500Y-76006287D01*
X96590500Y-75793713D01*
X96557246Y-75583757D01*
X96533870Y-75511816D01*
X96533067Y-75483698D01*
X96529064Y-75455853D01*
X96532083Y-75449241D01*
X96531876Y-75441977D01*
X96546402Y-75417887D01*
X96558089Y-75392297D01*
X96564202Y-75388367D01*
X96567956Y-75382144D01*
X96593202Y-75369731D01*
X96616867Y-75354523D01*
X96627137Y-75353046D01*
X96630657Y-75351316D01*
X96651802Y-75349500D01*
X96804979Y-75349500D01*
X96872018Y-75369185D01*
G37*
%TD.AperFunction*%
%TA.AperFunction,Conductor*%
G36*
X104408142Y-79905248D02*
G01*
X104441578Y-79914924D01*
X104441828Y-79915139D01*
X104441984Y-79915185D01*
X104442537Y-79915749D01*
X104468341Y-79937933D01*
X104475094Y-79945665D01*
X104485719Y-79962891D01*
X104520610Y-79997782D01*
X104523362Y-80000933D01*
X104536316Y-80029008D01*
X104551132Y-80056142D01*
X104550823Y-80060451D01*
X104552634Y-80064375D01*
X104548353Y-80094991D01*
X104546148Y-80125834D01*
X104543558Y-80129293D01*
X104542960Y-80133572D01*
X104517647Y-80170181D01*
X104485719Y-80202108D01*
X104485716Y-80202112D01*
X104397455Y-80345204D01*
X104397451Y-80345213D01*
X104372136Y-80421610D01*
X104371435Y-80423725D01*
X104331662Y-80481169D01*
X104267146Y-80507992D01*
X104198370Y-80495677D01*
X104147170Y-80448134D01*
X104135343Y-80421610D01*
X104128017Y-80398100D01*
X104040072Y-80252622D01*
X103937984Y-80150534D01*
X103904499Y-80089211D01*
X103909483Y-80019519D01*
X103937983Y-79975173D01*
X103981339Y-79931818D01*
X104042662Y-79898333D01*
X104069019Y-79895500D01*
X104374945Y-79895500D01*
X104408142Y-79905248D01*
G37*
%TD.AperFunction*%
%TA.AperFunction,Conductor*%
G36*
X94896518Y-79857685D02*
G01*
X94935015Y-79896900D01*
X94960325Y-79937933D01*
X94975720Y-79962892D01*
X95007647Y-79994819D01*
X95009953Y-79999043D01*
X95013995Y-80001663D01*
X95026541Y-80029421D01*
X95041132Y-80056142D01*
X95040788Y-80060942D01*
X95042772Y-80065331D01*
X95038320Y-80095460D01*
X95036148Y-80125834D01*
X95033068Y-80131000D01*
X95032559Y-80134451D01*
X95021909Y-80149725D01*
X95013362Y-80164067D01*
X95010610Y-80167217D01*
X94975719Y-80202109D01*
X94965094Y-80219334D01*
X94958341Y-80227067D01*
X94937185Y-80240546D01*
X94918535Y-80257322D01*
X94906601Y-80260033D01*
X94899416Y-80264612D01*
X94886673Y-80264562D01*
X94864945Y-80269500D01*
X94794567Y-80269500D01*
X94641840Y-80310423D01*
X94641839Y-80310423D01*
X94641837Y-80310424D01*
X94641834Y-80310425D01*
X94594388Y-80337818D01*
X94594364Y-80337833D01*
X94591720Y-80339360D01*
X94504909Y-80389480D01*
X94487757Y-80406631D01*
X94476654Y-80413797D01*
X94455307Y-80420108D01*
X94435772Y-80430775D01*
X94422456Y-80429822D01*
X94409652Y-80433608D01*
X94388281Y-80427376D01*
X94366080Y-80425788D01*
X94355392Y-80417787D01*
X94342576Y-80414050D01*
X94327967Y-80397255D01*
X94310148Y-80383915D01*
X94303301Y-80373758D01*
X94230072Y-80252622D01*
X94127984Y-80150534D01*
X94123645Y-80142588D01*
X94116397Y-80137162D01*
X94107162Y-80112402D01*
X94094499Y-80089211D01*
X94095144Y-80080180D01*
X94091981Y-80071698D01*
X94097597Y-80045877D01*
X94099483Y-80019519D01*
X94105301Y-80010465D01*
X94106833Y-80003425D01*
X94127984Y-79975173D01*
X94197909Y-79905248D01*
X94228840Y-79874318D01*
X94290163Y-79840834D01*
X94316520Y-79838000D01*
X94829479Y-79838000D01*
X94896518Y-79857685D01*
G37*
%TD.AperFunction*%
%TD*%
M02*
